<svg xmlns="http://www.w3.org/2000/svg" viewBox="0 0 500 500" xmlns:v="https://vecta.io/nano"><style><![CDATA[.B{fill:#263238}.C{fill:#ff725e}.D{fill:#fff}.E{fill:#455a64}.F{fill:#e0e0e0}.G{fill:#ebebeb}]]></style><g class="E"><path d="M439.89 396.51v-.83-2.43-9.39l-.06-35.3-.12-123.24.24.24H330.59h0l.26-.26v171.19l-.21-.21 79.69.11h22 5.75 2-1.94-5.71l-21.91.06-79.81.1h-.21v-.2l-.05-171.19v-.27h.27 109.36.24v.24l-.12 123.4-.06 35.24v9.35 2.4c0 .55-.25.99-.25.99z"/><path d="M366.76 396.51c-.14 0-.26-38.23-.26-85.37l.26-85.37c.14 0 .24 38.23.24 85.37l-.24 85.37zm38.24 0c-.15 0-.26-38.23-.26-85.37l.26-85.37c.15 0 .26 38.22.26 85.37l-.26 85.37z"/><path d="M441.19 341.34c0 .14-24.77.26-55.33.26s-55.34-.12-55.34-.26 24.77-.26 55.34-.26l55.33.26zm0-58.11c0 .14-24.77.26-55.33.26s-55.34-.12-55.34-.26 24.77-.26 55.34-.26l55.33.26zm-109.67-50.68h-2v-8.24h8.62v2h-6.62v6.24zm109.54 0h-2v-6.24h-6.62v-2h8.62v8.24zm-.09 164.96h-8.62v-2h6.62v-6.23h2v8.23zm-102.91 0h-8.63v-8.23h2v6.23h6.63v2z"/></g><path d="M333.13 104.64h87.49v100.43h-87.49z" class="D"/><path d="M335.99 107.99h82.43v94.62h-82.43z" class="C"/><g opacity=".8" class="D"><path d="M335.99 107.99h82.43v94.62h-82.43z"/></g><path d="M399 171.77l-.75-1.56a34.6 34.6 0 0 1-1.94-5.43c1.27.43 2.69.52 3.66 1.43 1.51 1.4 1.11 4 2.44 5.6s3.57 1.49 5.49 1.11 4-1 5.79-.27c-.18-1.26-1.39-2.1-2.57-2.59a9.49 9.49 0 0 1-3.38-1.72c-1.31-1.33-1.31-3.41-1.85-5.2a8.33 8.33 0 0 0-4.36-5c-1.21-.58-2.61-.88-3.59-1.8a6 6 0 0 1-1.54-3.92c0-.32-.05-.65-.07-1l.14.18c2 2.15 5.38 2.67 7.15 5s1.48 5.88 3.75 7.66a5.32 5.32 0 0 0 3.5 1 15.15 15.15 0 0 0 3.62-.75l-11.07-16.58a4.78 4.78 0 0 1 2.75.3 19.69 19.69 0 0 1 2.43 1.77c1.87 1.27 4.32 1.16 6.57 1a5.41 5.41 0 0 1-3.54-2.93 4.73 4.73 0 0 0 5-1.36 4.8 4.8 0 0 1-3-1.4 10.86 10.86 0 0 0-2.68-2 7.1 7.1 0 0 0-4.26-.11 16.76 16.76 0 0 1-4.26.63 4.54 4.54 0 0 1-1-.18h0 0a5 5 0 0 1-.84-.32l2.89-2.17c5.41-4 5.18-7.62 4.57-9.6a7.76 7.76 0 0 0-4.67-4.9 32.36 32.36 0 0 0-14.78-3.16h0-3l-.17-.13-.21-.17h0a17 17 0 0 0-12.71-3.2 14.88 14.88 0 0 0-10.82 8.34h0l-.17.48a17.03 17.03 0 0 0-.28.76v.1l-.51.26a71.88 71.88 0 0 0-9.73 5.72c-2.73 1.91-5.6 4.52-5.45 7.85.12 2.61 2.18 4.81 4.57 5.87a21.2 21.2 0 0 0 7.68 1.34h.19l.5.22-.19 2.94-.22.92a24 24 0 0 1-1.45 2.29c-1.74 2.44-3.75 5-3.91 8-.09 1.64.39 3.32 0 4.9a5.41 5.41 0 0 1-.61 1.34 12.5 12.5 0 0 0-4.2 3.09C346 177 338.06 199.44 336.28 200l1.94 2.62 12.39.16h49.06 0 1.17v.12a.49.49 0 0 0 0-.12h.49 3.58v-.06h3.88l7-.08-12.14-25.49a14.56 14.56 0 0 0-4.65-5.38z" class="C"/><g class="B"><path d="M420.68 205.51v-.48-1.4-5.44l-.07-20.5-.12-72.61.25.25h-87.48 0l.28-.28-.05 100.43-.23-.24 63.43.13 17.75.06h4.68 1.63-1.58-4.64l-17.69.07-63.58.12H333v-.24-100.43-.28h.29 87.48.25v.25l-.13 72.77-.07 20.45v5.38 1.38c0 .38-.14.61-.14.61z"/><path d="M329.91 461.25L188 461.17a30.92 30.92 0 0 1-30.9-30.92l.07-355.8a30.91 30.91 0 0 1 30.93-30.91l141.9.09a30.92 30.92 0 0 1 30.9 30.92l-.07 355.79a30.92 30.92 0 0 1-30.92 30.91z"/></g><path d="M330.12 56.48h-27.51a6.84 6.84 0 0 0-6.69 7v5a6.83 6.83 0 0 1-6.68 7h-53.63a6.85 6.85 0 0 1-6.69-7v-5a6.84 6.84 0 0 0-6.68-7h-33.75a21.66 21.66 0 0 0-21.67 21.65l-.07 347.28A21.65 21.65 0 0 0 188.39 447l141.64.09a21.65 21.65 0 0 0 21.66-21.65l.07-347.28a21.65 21.65 0 0 0-21.64-21.68z" class="D"/><g class="B"><path d="M210.42 99.65a24.68 24.68 0 0 0 2.58-.13 5.55 5.55 0 0 0 2.49-1.06 3.68 3.68 0 0 0 1.51-2.79 3 3 0 0 0-1.57-2.67 5.38 5.38 0 0 0-2.61-.71c-1.59 0-2.6.15-2.61 0a2.32 2.32 0 0 1 .69-.2 11.87 11.87 0 0 1 1.92-.22 5.58 5.58 0 0 1 2.85.66 3.68 3.68 0 0 1 1.3 1.22 3.31 3.31 0 0 1 .5 1.86 4.1 4.1 0 0 1-1.69 3.16 5.6 5.6 0 0 1-2.73 1 7.29 7.29 0 0 1-1.94 0c-.46-.01-.7-.09-.69-.12z"/><path d="M211.27 90.34v4.22l-3.06-1.91 3.06-2.31zm122.25 2.16a9.19 9.19 0 0 1-1.39 1.77l-3.63 4-1.23 1.31-.18.2-.19-.19a38.16 38.16 0 0 1-3.9-4.38 42 42 0 0 1 4.26 4h-.37l1.22-1.32 3.74-3.9a11 11 0 0 1 1.67-1.49zm-36.65.45h4.61V101h-4.61zm10.35 8.05c0-.14.45-.26 1-.26l-.22.26h0v-.37a2.29 2.29 0 0 1 .06-.32c0-.18.11-.29.18-.29s.14.11.19.29a2.4 2.4 0 0 1 0 .32v.19.18h0l-.26.26c-.5 0-.95-.12-.95-.26zm-3.61-1c.14 0 .26.45.26 1l-.26-.26h.39a1.4 1.4 0 0 1 .32.06c.18 0 .29.11.29.18s-.11.14-.29.19H304h-.19-.2c-.12-.11.26.26-.26-.26 0-.46.12-.91.26-.91z"/><path d="M303.61 96c.14 0 .26.45.26 1s-.12 1-.26 1-.26-.45-.26-1 .12-1 .26-1zm1-3c0 .14-.45.26-1 .26l.26-.26h0v.37a1.4 1.4 0 0 1-.06.32c0 .18-.11.29-.18.29s-.14-.11-.18-.29a1.4 1.4 0 0 1-.06-.32v-.19V93h0l.26-.26c.51-.05.96.07.96.26zm3.61 1c-.14 0-.26-.45-.26-1l.26.26h-.39a1.31 1.31 0 0 1-.31-.06c-.19 0-.3-.11-.3-.18s.11-.14.3-.19l.31-.05h.19.2l.26.26c0 .46-.11.96-.26.96zm0 4c-.14 0-.26-.45-.26-1s.12-1 .26-1 .26.45.26 1-.11 1-.26 1zm-5.86 4.61a34.66 34.66 0 0 1-.26-6 34.66 34.66 0 0 1 .26-6 33.49 33.49 0 0 1 .26 6 33.49 33.49 0 0 1-.26 6zM191.82 92.45a30 30 0 0 1-3.63 4.22 30.88 30.88 0 0 1-4 3.88 30.27 30.27 0 0 1 3.64-4.23 29.21 29.21 0 0 1 3.99-3.87z"/><path d="M184,92.67a30.55,30.55,0,0,1,4.22,3.64,30.47,30.47,0,0,1,3.88,4,29.75,29.75,0,0,1-4.23-3.63A29.59,29.59,0,0,1,184,92.67Z"/></g><path d="M97.78 131.32h198.54v227.91H97.78z" class="D"/><path d="M104.16 137.92h187.05v214.72H104.16z" class="F"/><path d="M296.34 359.23l-.23-227.91.23.23H97.81h0l.26-.26V359.2l-.22-.22 198.55.22-198.55.22h-.22v-.23-227.91-.26h.28 198.53.23v.23l-.33 227.98z" class="B"/><path d="M185.05 373.83a3.25 3.25 0 1 1 3.25-3.25 3.26 3.26 0 0 1-3.25 3.25zm0-5.5a2.25 2.25 0 1 0 2.25 2.25 2.25 2.25 0 0 0-2.25-2.25z" class="C"/><path d="M326.69 371.08H194.06a.51.51 0 0 1-.5-.5.5.5 0 0 1 .5-.5h132.63a.5.5 0 0 1 .5.5.51.51 0 0 1-.5.5z" class="B"/><path d="M283.27 370.73a4.39 4.39 0 1 1-4.39-4.39 4.4 4.4 0 0 1 4.39 4.39zm52.22 2.62a3.29 3.29 0 1 1 3.29-3.29 3.29 3.29 0 0 1-3.29 3.29zm0-5.57a2.29 2.29 0 1 0 2.29 2.28 2.28 2.28 0 0 0-2.29-2.28zm4.96 3.27c-.42-.09-.75-.35-.73-.57s.4-.41.83-.42.76.25.73.57-.41.51-.83.42zm-2.15 3.22c-.23-.37-.28-.78-.11-.92s.57 0 .88.29.36.71.11.92-.64.07-.88-.29zm-3.8.73c.09-.42.35-.75.57-.73s.41.4.42.83-.25.76-.57.73-.51-.38-.42-.83zm-3.21-2.13c.36-.23.77-.28.91-.11s0 .57-.28.88-.72.36-.92.11-.08-.64.29-.88zm-.76-3.79c.42.09.75.34.73.57s-.39.41-.83.41-.76-.24-.73-.57.41-.49.83-.41zm2.15-3.22c.23.36.28.78.11.92s-.57 0-.88-.29-.36-.71-.11-.92.65-.07.88.29zm3.8-.76c-.09.42-.35.75-.57.73s-.41-.39-.42-.82.25-.76.57-.73.51.4.42.82zm3.21 2.15c-.36.24-.77.29-.91.11s0-.56.28-.87.72-.37.92-.12.08.63-.29.88zm-142.63 42.67a3.37 3.37 0 1 1-3.36-3.36 3.36 3.36 0 0 1 3.36 3.36zm2.67.96c-.43-.07-.76-.32-.74-.54s.38-.41.81-.42.77.24.74.54-.39.54-.81.42zm-1.73 3.36c-.3-.31-.43-.7-.29-.87s.56-.11.91.14.48.64.28.87-.58.17-.9-.14zm-3.34 1.76c-.06-.42.06-.81.28-.87s.51.24.65.65 0 .8-.29.87-.58-.27-.64-.65zm-3.73-.63c.2-.38.53-.63.74-.54s.27.49.14.9-.46.66-.74.54-.34-.52-.14-.9zm-2.67-2.66c.39-.2.8-.2.92 0s-.07.56-.42.82-.75.26-.91 0 .02-.63.41-.82zm-.6-3.71c.43.07.76.31.74.54s-.38.41-.81.42-.77-.24-.74-.54.39-.51.81-.42zm1.71-3.38c.3.31.43.7.28.87s-.55.1-.9-.14-.49-.64-.29-.87.6-.17.91.14zm3.35-1.73c.06.43-.06.82-.28.88s-.51-.24-.65-.65 0-.8.28-.87.59.22.65.64zm3.73.58c-.2.38-.53.63-.74.54s-.27-.49-.14-.9.45-.66.73-.54.35.52.15.9zm2.68 2.66c-.39.19-.8.19-.92 0s.07-.56.41-.82.76-.26.92 0-.03.62-.41.82zm-5.43 16.8a14 14 0 1 1 14-14 14 14 0 0 1-14 14zm0-27a13 13 0 1 0 13 13 13 13 0 0 0-13-13.02z" class="C"/><circle cx="236.37" cy="409.92" r="13.51" transform="matrix(.925143 -.379618 .379618 .925143 -137.9 120.39)" class="G"/><path d="M236.91 405.86a4 4 0 0 1 0 7.95m-.54 2.33a6.31 6.31 0 1 1 6.3-6.31 6.31 6.31 0 0 1-6.3 6.31zm0-11.61a5.31 5.31 0 1 0 5.3 5.3 5.31 5.31 0 0 0-5.3-5.3z" class="B"/><circle cx="281.18" cy="409.92" r="13.51" transform="matrix(.925143 -.379618 .379618 .925143 -134.55 137.39)" class="G"/><path d="M281.1 415.88a4.58 4.58 0 0 1-.53 0 5.18 5.18 0 0 1-4.37-5.61 6.59 6.59 0 0 1 1.8-3.57 20.52 20.52 0 0 1 3-2.64l.29-.22.3.22a15.49 15.49 0 0 1 3.35 3.17 6.26 6.26 0 0 1 1.18 4.23 5 5 0 0 1-1.92 3.3 5.11 5.11 0 0 1-3.1 1.12zm.21-10.79a20.47 20.47 0 0 0-2.59 2.29 5.71 5.71 0 0 0-1.53 3 4.19 4.19 0 0 0 3.5 4.49 4.21 4.21 0 0 0 4.47-3.52 5.31 5.31 0 0 0-1-3.55h0a13 13 0 0 0-2.85-2.71zm-3.2 5.67a3.14 3.14 0 0 0 2.78 3.23c1.57.11 3.59-1.33 3.19-3.29z" class="B"/><circle cx="324.3" cy="409.83" r="13.51" transform="matrix(.204838 -.978796 .978796 .204838 -143.26 643.34)" class="G"/><g class="B"><path d="M326 412.61a4.35 4.35 0 1 1 4.35-4.35 4.35 4.35 0 0 1-4.35 4.35zm0-7.69a3.35 3.35 0 1 0 3.35 3.34 3.35 3.35 0 0 0-3.35-3.34z"/><path d="M326.46 411.4a3.85 3.85 0 1 1-3.85-3.84 3.85 3.85 0 0 1 3.85 3.84z"/></g><path d="M278.38,371.73H194.26a1,1,0,0,1,0-2h84.12a1,1,0,0,1,0,2Z" class="C"/><path d="M340.55 386.26c0 .14-35.9.26-80.18.26s-80.19-.12-80.19-.26 35.9-.26 80.19-.26l80.18.26z" class="F"/><path d="M118.43 115.62h198.54v226.92H118.43z" class="D"/><path d="M124.91 122.22h187.05v214.72H124.91z" class="F"/><path d="M242.94 162.38c-8.66-9.76-22.31-15.21-35.17-13s-24.22 12.58-26.6 25.41l73.06 23.94c1.18-12.98-2.62-26.59-11.29-36.35z" class="C"/><path d="M183.14 168.37s22.69-15.49 53.63-11.61l2.82 2.17-58.42 14.9zM308 210.13c-2.54 0-4.83-1.51-6.76-3.17s-3.74-3.57-6.08-4.58c-3-1.3-6.46-.93-9.66-.26s-6.42 1.63-9.68 1.43-6.72-1.85-7.89-4.91l-9.73 7.83a11.3 11.3 0 0 0 9.38 7.66c5.61.59 11.56-3 16.65-.63 2.07 1 3.58 2.82 5.48 4.11 4.25 2.88 9.8 2.63 14.92 2.28a12.32 12.32 0 0 1-8-6.66 10.72 10.72 0 0 0 11.37-3.1z" class="E"/><path d="M273.54 203.09a66.43 66.43 0 0 1-5.21 4.68 66.88 66.88 0 0 1-5.35 4.54 7.74 7.74 0 0 1 1.37-1.54l3.63-3.39 3.85-3.14a8.07 8.07 0 0 1 1.71-1.15zm4.33.16a33.5 33.5 0 0 1-2.38 5.41 33.08 33.08 0 0 1-2.84 5.17 34.07 34.07 0 0 1 2.38-5.4 34.1 34.1 0 0 1 2.84-5.18zm8.57-.49a29.5 29.5 0 0 1-2 5.09 29.82 29.82 0 0 1-2.46 4.88 27.74 27.74 0 0 1 2-5.09 28.39 28.39 0 0 1 2.46-4.88zm9.56.88a59.34 59.34 0 0 1-3.27 7.07 57.75 57.75 0 0 1-3.74 6.83 59.34 59.34 0 0 1 3.27-7.07 57.75 57.75 0 0 1 3.74-6.83z" class="D"/><path d="M288.48 175.72c-2.22-7.17-7.44-9.59-10.59-11.12-19.48-9.44-38.36-8-59.73-4.57s-41.6 12.55-59.35 24.94c-6.19 4.33-12.71 10.27-12.37 17.82.27 5.92 5 10.92 10.38 13.33s11.5 2.74 17.42 3l80.35-6.54c8.77-3.31 11-5.87 23.52-15.1 12.28-9.02 11.76-17.27 10.37-21.76z" class="C"/><g opacity=".3"><path d="M252,172.78a10,10,0,0,1,6.74,5.43c1.51,3.25,1.15,7,1.31,10.59a24.29,24.29,0,0,0,4.21,13.2c1,1.34,2.21,2.52,2.06,4.17a47.91,47.91,0,0,1-9.52,5.83l-4.43-32.38Z"/></g><g opacity=".3"><path d="M170.18 198.94c-3.43 4.12-4.87 10.35-2.07 14.93 2.09 3.43 6 5.24 9.83 6.51a1.71 1.71 0 0 0 2.72-1.67q1.09-13.52 2.2-27.05l-1.14-3.13c-4.92 2.12-8.11 6.28-11.54 10.41z"/></g><g class="B"><path d="M188.51 265.34l-5.4-39-5.62-11.61c1.71 6.6-2 13.32-5.91 18.88s-8.5 11.28-8.87 18.08c-.2 3.72.89 7.54-.11 11.13-.9 3.19-3.32 5.68-5.14 8.45s-3.06 6.46-1.39 9.32l26.33-5.61c1.81-.39 3.75-.85 5-2.22 1.7-1.96 1.46-4.87 1.11-7.42zm66.15-25.22a10.51 10.51 0 0 0 5.83 10.47c3.16 1.47 7.1 1.37 9.65 3.75 3.43 3.19 2.52 9.13 5.54 12.72 2.87 3.4 8.09 3.38 12.46 2.52s9-2.24 13.14-.62c-.41-2.86-3.17-4.77-5.84-5.87s-5.63-1.84-7.66-3.9c-3-3-3-7.75-4.21-11.8a18.89 18.89 0 0 0-9.88-11.39c-2.76-1.31-5.93-2-8.16-4.08s-3.2-5.65-3.5-8.89-.15-6.57-1.08-9.69-3.23-6.13-6.45-6.64"/><path d="M178.12 200l79.63-3.22c.3 24.74-.9 46 8.48 66.67 2.38 5.25 5.42 10.22 7.23 15.69s2.3 11.72-.4 16.81l-16.37-3.78-.13-5a7.37 7.37 0 0 1-4.15 5.14c-2.66 1.26-5.72 1.23-8.66 1.13a246.81 246.81 0 0 1-50.52-7c-2.19-.54-12.42.89-12.42.89-7.2-25.16-7.04-61.61-2.69-87.33z"/></g><path d="M306.07 336.94l-27.55-57.82a33.65 33.65 0 0 0-28-18.15l-74.05-1.7s-20.47 7.13-24.78 13.56c-4 5.95-22.09 56.93-26.13 58.18l4.4 5.93 28.11.37h111.35 0l20.77-.14z" class="E"/><g opacity=".1"><path d="M219.43 292.42a42.07 42.07 0 0 0-5.9-7.17 129.55 129.55 0 0 1-21.92-32.14l-18.53 7.59c1 9.67 1.66 20.53 6.74 28.82 3.61 5.88 7.07 11.27 12.34 15.73 1.2-1.36 5.25-2.28 7-1.66a29.78 29.78 0 0 1 4.69 2.72 13.68 13.68 0 0 0 10 1.74 10 10 0 0 0 7.28-6.73 11.74 11.74 0 0 0-1.7-8.9z"/></g><path d="M179.25 195.19c2.92-12.29 5.5-14.75 15.71-22.18 9.09-6.63 24.4-12.59 35.62-11.72 5.53.43 7-2.76 11.68.14 6.48 4 9 11.66 12 18.66 5.9 14 4.43 32.71-.08 37.75l-58.78 28.43c-10-5.67-16.77-8.39-19.08-19.68-1.61-7.69 1.11-23.77 2.93-31.4z" class="B"/><path d="M196.23 174.11l36.69-9.43c11.76-1.29 19.64 13.16 20.43 25 .88 13.11 1.44 29.16-.08 39-3 19.69-18.12 22.25-18.12 22.25s0 .3-.13 6.14l.07 13.16c-4.89 16-21.06 14-41.24 5.64l-3.79-94.62a6.93 6.93 0 0 1 6.17-7.14z" fill="#c27b67"/><path d="M245.45 205.6a2.53 2.53 0 0 1-2.43 2.56 2.42 2.42 0 0 1-2.61-2.26 2.52 2.52 0 0 1 2.42-2.56 2.42 2.42 0 0 1 2.62 2.26zm4.45-5.6c-.31.33-2.23-1.08-5-1.06s-4.7 1.38-5 1.05c-.15-.15.17-.74 1-1.38a7 7 0 0 1 4-1.25 6.67 6.67 0 0 1 3.94 1.26c.93.67 1.21 1.27 1.06 1.38zm-28.96 5.6a2.53 2.53 0 0 1-2.43 2.56 2.41 2.41 0 0 1-2.61-2.26 2.52 2.52 0 0 1 2.42-2.56 2.42 2.42 0 0 1 2.62 2.26zm2.45-6.18c-.32.33-2.24-1.08-4.95-1.06s-4.7 1.38-5 1c-.14-.15.17-.74 1-1.38a7 7 0 0 1 4-1.25 6.6 6.6 0 0 1 3.94 1.26c.87.68 1.16 1.28 1.01 1.43zm9.76 19.3c0-.16 1.67-.46 4.41-.82.69-.07 1.35-.21 1.46-.69a3.53 3.53 0 0 0-.47-2.05q-1-2.5-2.07-5.27c-2.88-7.51-5-13.68-4.66-13.79s2.88 5.87 5.76 13.38l2 5.3a4 4 0 0 1 .37 2.73 1.74 1.74 0 0 1-1.13 1 4.59 4.59 0 0 1-1.18.17c-2.77.17-4.48.19-4.49.04z" class="B"/><path d="M235.16 250.84a50.07 50.07 0 0 1-26.39-6.92s6.57 13.74 26.26 11.82zm-3.76-26.54a4.7 4.7 0 0 0-4.3-2.11 3.45 3.45 0 0 0-2.91 5.39 3.55 3.55 0 0 0 3.74 1.36 8.19 8.19 0 0 0 3.35-2.1c.28-.25.16-.07.32-.43a3 3 0 0 0-.2-2.11z" fill="#8f4e45"/><g class="B"><path d="M224.67 220.73c.45 0 .48 2.91 3 5s5.68 1.72 5.71 2.13c0 .18-.7.58-2 .63a7.4 7.4 0 0 1-4.76-1.61 6.38 6.38 0 0 1-2.34-4.18c-.13-1.25.19-1.99.39-1.97zm-.09-29.86c-.22.75-3 .57-6.1 1.15s-5.68 1.61-6.14 1c-.21-.3.2-1 1.19-1.8a10.24 10.24 0 0 1 4.47-1.92 10.42 10.42 0 0 1 4.85.27c1.2.43 1.83.94 1.73 1.3zm25.35 3.2c-.64.52-2.58-.48-5.05-1s-4.64-.42-5-1.14c-.15-.35.29-.9 1.31-1.31a7.86 7.86 0 0 1 4.29-.25 7.67 7.67 0 0 1 3.81 2c.71.77.92 1.45.64 1.7z"/><path d="M233.31,162.41a43.6,43.6,0,0,1-3.91,23.33,16,16,0,0,1-3.79,5.46,7.16,7.16,0,0,1-6.2,1.77,26.57,26.57,0,0,0,5.89-15.08c-2.52,5.51-5.1,11.12-9.21,15.57S206,201.11,200,200.38l.53-4a14,14,0,0,1-5,7.37c-2.52,1.69-6.17,1.93-8.45-.06,2.34-9.79-3.36-20.66.71-29.85,2.82-6.37,10.46-8.34,17.16-10.23,9.43-2.67,18.74-4.45,28.21-2"/><path d="M232.49 162.54c0 .15 0 .29.07.43h-.06c-.01-.12-.01-.28-.01-.43zm.07.46l1.21-.46c3.77-1.8 6.27-3.9 11.88 1.38a35.81 35.81 0 0 1 7.58 11.37c1.67 3.83 3.48 8 4 12.13a52.36 52.36 0 0 1-.05 15.1c-3.26-2.31-4.85-6.32-5.81-10.21s-1.46-7.95-3.3-11.5c.47 3.31.93 6.69.3 10a4.15 4.15 0 0 1-1.16 2.43 1.74 1.74 0 0 1-2.44-.07 21.51 21.51 0 0 0 .33-11.83A61.65 61.65 0 0 0 241 170a58.9 58.9 0 0 1-1.36 20 5.07 5.07 0 0 1-1.21 2.58c-1 1-2.68 1-4.09.72s-2.88-.69-4.27-.31a56.6 56.6 0 0 0 2.49-29.99zm-21.07 111.1c-3.36-5.12-7.34-10.31-7.78-16.42-.38-5.18 1.88-10.28 1.46-15.45-.44-5.48-3.81-10.28-5.08-15.63-3.06-13 6.59-26.75 2.6-39.48l-17.14 1.78-9.09 67.28a81 81 0 0 0 10.67 41.35l1.56-1.48c-1.19-3.09-2.23-6.25-3.12-9.44A40.71 40.71 0 0 0 199 300.06c5.61-2.48 11.48-4.63 17.08-8.76 1.76-5.87-1.23-12.07-4.59-17.2z"/></g><path d="M245.12 160.2c-13.27-4-33.21.71-45.57 4.59-13.23 4.14-26.87 14.54-27.17 28.39l-.93 4.22c13.54-14.58 31.27-19 48-23.41s35.34-3.77 50.2 5c-4.89-11.2-12.82-15.27-24.53-18.79z" class="C"/><path d="M177.4 294.13l-.25-.11-.72-.39a15.6 15.6 0 0 1-2.53-1.86 17 17 0 0 1-5.46-10 17.26 17.26 0 0 1 2.59-12c.84-1.3 1.92-2.45 2.87-3.72a7.69 7.69 0 0 0 1.86-4.32 9.3 9.3 0 0 0-1.61-4.67 20.34 20.34 0 0 1-2.9-10.42 41.89 41.89 0 0 1 1.45-10.75l2.49-9.77a361.61 361.61 0 0 0 3.7-16.64l2.09-11.31.53-3.08.15-.8a2 2 0 0 1 .06-.27.86.86 0 0 1 0 .28l-.1.81-.43 3.1a251.69 251.69 0 0 1-1.93 11.34c-.93 4.77-2.08 10.44-3.59 16.69l-2.47 9.77a41.67 41.67 0 0 0-1.42 10.62 19.86 19.86 0 0 0 2.83 10.18 9.72 9.72 0 0 1 1.66 4.94 8.18 8.18 0 0 1-2 4.59c-1 1.29-2.06 2.43-2.88 3.68a17.47 17.47 0 0 0-1.9 3.92 16.92 16.92 0 0 0-.7 7.75 16.37 16.37 0 0 0 2.16 6.07 17.09 17.09 0 0 0 3.07 3.81 17.9 17.9 0 0 0 2.45 1.92 10 10 0 0 1 .93.64zm67.72-12.99a10.6 10.6 0 0 0-2.22-3.66 14.32 14.32 0 0 0-4.06-3 27.28 27.28 0 0 0-6.36-2.08 76.23 76.23 0 0 1-8-1.95 19.17 19.17 0 0 1-4.15-2 11.82 11.82 0 0 1-3.52-3.39c-1.89-2.87-2.25-6.56-2.16-10.13s.48-7.36-.43-11a8.66 8.66 0 0 0-.41-1.34 7.07 7.07 0 0 0-.55-1.26 9.81 9.81 0 0 0-1.52-2.29 33.94 33.94 0 0 0-4-3.71 24 24 0 0 1-3.75-3.8 20 20 0 0 1-2.59-4.42 26.68 26.68 0 0 1-2.08-9.18 35.63 35.63 0 0 1 .55-8.19 72 72 0 0 1 3.18-11.42 84.06 84.06 0 0 1 1.1-3l.31-.78a1.28 1.28 0 0 1 .12-.26.82.82 0 0 1-.07.28l-.26.8-1 3a78 78 0 0 0-3 11.42 35.68 35.68 0 0 0-.48 8.1 26.39 26.39 0 0 0 2.09 9 19.9 19.9 0 0 0 2.54 4.31 24.4 24.4 0 0 0 3.69 3.71 34 34 0 0 1 4 3.77 10.37 10.37 0 0 1 1.58 2.38 8.14 8.14 0 0 1 .58 1.32 11.17 11.17 0 0 1 .43 1.39c.93 3.8.46 7.59.43 11.16s.26 7.11 2.05 9.85a14.26 14.26 0 0 0 7.42 5.23 75.69 75.69 0 0 0 7.9 2 27.16 27.16 0 0 1 6.41 2.19 14.05 14.05 0 0 1 4.07 3.08 9.31 9.31 0 0 1 1.73 2.73 4.54 4.54 0 0 1 .43 1.14zm57.97-30.69l-.25.1-.74.24-2.89.82a21.94 21.94 0 0 1-4.72.69 13 13 0 0 1-6.18-1.28 11.27 11.27 0 0 1-5-5.72c-1.12-2.54-1.78-5.42-2.84-8.29a16.76 16.76 0 0 0-2.13-4.14 14.77 14.77 0 0 0-3.49-3.33c-2.72-1.92-6-3.23-9-5.13a17.94 17.94 0 0 1-4.1-3.4 15.17 15.17 0 0 1-2.65-4.44 25.39 25.39 0 0 1-1.56-9.59c0-3.1.43-6 .72-8.74a63.44 63.44 0 0 0 .5-7.58 22.15 22.15 0 0 0-2.43-10.58 15.47 15.47 0 0 0-1.68-2.46l-.52-.59a1.07 1.07 0 0 1-.17-.21l.21.18c.12.12.32.3.56.55a14 14 0 0 1 1.78 2.43 22.06 22.06 0 0 1 2.62 10.68 61.38 61.38 0 0 1-.44 7.63c-.27 2.73-.64 5.63-.67 8.7a25 25 0 0 0 1.55 9.39 14.83 14.83 0 0 0 2.57 4.29 17.77 17.77 0 0 0 4 3.3c3 1.87 6.24 3.19 9 5.15a15 15 0 0 1 3.61 3.46 18 18 0 0 1 2.17 4.26c1.06 2.92 1.7 5.79 2.78 8.28a10.9 10.9 0 0 0 4.79 5.57 12.76 12.76 0 0 0 6 1.32 23.86 23.86 0 0 0 4.68-.59c1.27-.28 2.25-.56 2.91-.73l.76-.19a.66.66 0 0 1 .25-.05zm-58.7-93.03a4.75 4.75 0 0 1-.7 0h-2l-3.17.07-4.18.21c-3.1.17-6.78.61-10.84 1.18s-8.5 1.47-13.1 2.58-8.93 2.43-12.83 3.72a115.39 115.39 0 0 0-10.18 3.9c-1.44.59-2.71 1.19-3.83 1.71l-2.85 1.37-1.8.89a3.56 3.56 0 0 1-.64.27 3.87 3.87 0 0 1 .59-.37l1.75-1c.76-.43 1.71-.91 2.82-1.45s2.38-1.17 3.81-1.78c2.83-1.31 6.3-2.63 10.18-4s8.24-2.64 12.85-3.78 9.08-1.93 13.16-2.55 7.77-.94 10.89-1.06c1.55-.11 3-.13 4.2-.14h3.17l2 .08a3.51 3.51 0 0 1 .7.15zm19.61 22.2c-.06.06-1-.87-2.57-2.2a20.88 20.88 0 0 0-7-3.89 47.79 47.79 0 0 0-7.95-1.63 24.1 24.1 0 0 1-3.35-.51 3.42 3.42 0 0 1 .91 0c.59 0 1.44.07 2.48.17a38.15 38.15 0 0 1 8.07 1.5 19.09 19.09 0 0 1 7.11 4.1 20.86 20.86 0 0 1 1.77 1.76l.53.7zm-98.68 157.55c-.14 0 0-5.94.31-13.26s.69-13.23.84-13.23 0 5.94-.32 13.26-.68 13.23-.83 13.23zm106.79.35a47.27 47.27 0 0 0 .12-5.75c0-.44-.07-.9-.11-1.38s-.16-1-.23-1.5c-.14-1-.42-2.12-.67-3.26l-2.2-7.35-2.24-7.37-.71-3.29-.25-1.51-.14-1.4a21.09 21.09 0 0 1-.1-2.42v-1c0-.31.06-.57.08-.83a8.39 8.39 0 0 1 .22-1.54 53.75 53.75 0 0 0 .16 5.75l.17 1.38c.06.47.18 1 .28 1.49.17 1 .47 2.11.75 3.25l2.26 7.33 2.18 7.39.62 3.32.21 1.51.08 1.41a17.74 17.74 0 0 1 0 2.43v1c0 .31-.09.57-.13.83a8.07 8.07 0 0 1-.35 1.51zm-65.5-170.66a3.36 3.36 0 0 1-.61.22l-1.78.53-2.8.85-3.69 1.21c-2.72.92-5.92 2.13-9.42 3.61s-7.27 3.28-11.14 5.35-7.42 4.27-10.6 6.35-5.93 4.12-8.2 5.89c-1.15.86-2.14 1.7-3 2.41l-2.26 1.87-1.42 1.19a3.36 3.36 0 0 1-.52.39 3.18 3.18 0 0 1 .45-.46L153 195a50.13 50.13 0 0 1 2.2-1.94c.88-.73 1.85-1.6 3-2.48 2.24-1.81 5-3.85 8.16-6s6.74-4.31 10.61-6.41 7.69-3.85 11.2-5.33 6.75-2.64 9.5-3.52c1.36-.47 2.62-.81 3.71-1.14s2.06-.58 2.84-.77L206 167a2.48 2.48 0 0 1 .61-.14zm-47.89 27.36c.07.14-1.81 1.19-3.75 3s-3.19 3.52-3.32 3.43a14 14 0 0 1 7.07-6.4z" class="B"/><path d="M284.64 178.73c-.05 0 0-.61-.16-1.69a12.38 12.38 0 0 0-1.5-4.31 15.85 15.85 0 0 0-4.54-5 26.2 26.2 0 0 0-7.52-3.57A109.59 109.59 0 0 0 256 161l-4.6-.61a10.66 10.66 0 0 1-1.69-.25 1.43 1.43 0 0 1 .45 0q.44 0 1.26.06l4.63.44a94.85 94.85 0 0 1 15.06 3.05 25.93 25.93 0 0 1 7.64 3.67 15.72 15.72 0 0 1 4.58 5.2 11.71 11.71 0 0 1 1.38 4.46 8.11 8.11 0 0 1 0 1.28 1.29 1.29 0 0 1-.07.43zm-43.41-18.52a14 14 0 0 1-5.38 0 14 14 0 0 1 5.38 0zm-16.57-6.89c0 .08-1.43-.41-3.76-.93a39.72 39.72 0 0 0-18.44.21l-3.74 1a3.8 3.8 0 0 1 .95-.45 27.59 27.59 0 0 1 2.69-.92 35.26 35.26 0 0 1 9.3-1.35A35.64 35.64 0 0 1 221 152a25.21 25.21 0 0 1 2.72.86 3.25 3.25 0 0 1 .94.46z" class="D"/><g opacity=".1"><path d="M275 318.58c-3.32-5.65-7.06-11.23-8.72-17.54a15.76 15.76 0 0 1-.23-.93l1.64 13c3.29 8.32 5.56 24.17 5.56 24.17l8.13.07c.62-6.91-2.9-12.85-6.38-18.77z"/></g><path d="M316.9 342.54V115.62l.23.23H118.6h0l.26-.26-.23 226.92-.22-.22 198.55.22-198.55.22h-.22v-.22l.15-226.92v-.26h.28 198.53.23v.23l-.48 226.98z" class="B"/></svg>