<svg xmlns="http://www.w3.org/2000/svg" xmlns:xlink="http://www.w3.org/1999/xlink" viewBox="0 0 500 500" xmlns:v="https://vecta.io/nano"><style><![CDATA[.B{stroke-linejoin:round}.C{stroke:#2e353a}.D{fill:#fff}.E{fill:none}.F{fill:#2e353a}.G{stroke-linecap:round}.H{fill:#7e57c2}.I{stroke-miterlimit:10}]]></style><defs><clipPath id="A"><path d="M213.93 347.17a25.86 25.86 0 0 1-5.36 11.51c-4.55 5.63-10.71 16.61-11 27.05s-12.33 39.33-11 41.47 13.12 5.09 17.67 5.09c2.39 0 6.35.92 7.93-1.41.09-.13-9.35-5-10-5.47s-5.91-4.17-5.74-4.64c0 0 12.34-33.44 18.5-42s10.71-15 12.58-20.35l3.55-10.42z" class="B C D"/></clipPath><clipPath id="B"><path d="M252.68,349.36a25.87,25.87,0,0,1,5,11.68c1.13,7.15,5.17,19.07,12.76,26.26s21,37.43,23.48,37.86c2.91.52,7.35-3.2,9.51-4.71,2.75-1.92,9.06-5.84,10-9.23,1.13-3.9-2.88-1.94-4.57-.68-2.19,1.63-13.12,3-13.12,3S279.13,380,276.89,369.7s-4-18-6.71-23-5.43-9.57-5.43-9.57Z" class="B C D"/></clipPath><clipPath id="C"><path d="M214.29,293.73,205,345a70.74,70.74,0,0,0,13.31,6.66c7.32,2.66,20,2,20,2l5-24.95,2,23.29s9.65,1,16.64-.33,18.3-8.66,18.3-8.66l-22-40.92-5-9.65-38.93-1Z" class="C D I"/></clipPath><clipPath id="D"><path d="M233,175s-3.33-4-5.32-2.33-1.34,6.33,1,8.66,5.33.33,5.33.33,1.33,4.32,3.66,6.32,10.31,3.33,13,1.33,1.66-9.32,1.66-9.32,4.66-2.33,4.33-4-3.67-3-3.67-4.32a18.49,18.49,0,0,0-.33-3V166l-15.3,3.33S235.35,177,233,175Z" class="B C D"/></clipPath><path id="E" d="M213.93 347.17a25.86 25.86 0 0 1-5.36 11.51c-4.55 5.63-10.71 16.61-11 27.05s-12.33 39.33-11 41.47 13.12 5.09 17.67 5.09c2.39 0 6.35.92 7.93-1.41.09-.13-9.35-5-10-5.47s-5.91-4.17-5.74-4.64c0 0 12.34-33.44 18.5-42s10.71-15 12.58-20.35l3.55-10.42z"/><path id="F" d="M252.68,349.36a25.87,25.87,0,0,1,5,11.68c1.13,7.15,5.17,19.07,12.76,26.26s21,37.43,23.48,37.86c2.91.52,7.35-3.2,9.51-4.71,2.75-1.92,9.06-5.84,10-9.23,1.13-3.9-2.88-1.94-4.57-.68-2.19,1.63-13.12,3-13.12,3S279.13,380,276.89,369.7s-4-18-6.71-23-5.43-9.57-5.43-9.57Z"/><path id="G" d="M214.29,293.73,205,345a70.74,70.74,0,0,0,13.31,6.66c7.32,2.66,20,2,20,2l5-24.95,2,23.29s9.65,1,16.64-.33,18.3-8.66,18.3-8.66l-22-40.92-5-9.65-38.93-1Z"/><path id="H" d="M233,175s-3.33-4-5.32-2.33-1.34,6.33,1,8.66,5.33.33,5.33.33,1.33,4.32,3.66,6.32,10.31,3.33,13,1.33,1.66-9.32,1.66-9.32,4.66-2.33,4.33-4-3.67-3-3.67-4.32a18.49,18.49,0,0,0-.33-3V166l-15.3,3.33S235.35,177,233,175Z"/></defs><ellipse cx="245.56" cy="432" rx="76.5" ry="8" class="H"/><ellipse cx="245.56" cy="432" rx="76.5" ry="8" opacity=".5" class="D"/><path d="M418.43 365.9v-12.21h-13.62V330h-19.57v-96.22h-18.72v58.16H349.5v-20.82h-22.97v53.85h-9.36v17.23h-22.12v-6.46h6.8v-3.59h-28.08v4.31h3.41v18.67h-14.47v-35.19h-51.05v25.13h-36.6V326.4h-13.61v20.83h-28.93v-38.06h-11.91v-12.92H99.33v58.88H78.06v12.92H64.45v39.49h380.36V365.9h-26.38z" class="C E I"/><path d="M103.1 309h4.6v4.6h-4.6zm9.58 0h4.6v4.6h-4.6zm-9.58 9.59h4.6v4.6h-4.6zm9.58 0h4.6v4.6h-4.6zm10.35 0h4.6v4.6h-4.6zm0 9.58h4.6v4.6h-4.6zm0 9.59h4.6v4.6h-4.6zm0 9.58h4.6v4.6h-4.6zm0 9.59h4.6v4.6h-4.6zm0 9.59h4.6v4.6h-4.6zm-19.93-38.35h4.6v4.6h-4.6zm9.58 0h4.6v4.6h-4.6zm-9.58 9.59h4.6v4.6h-4.6zm9.58 0h4.6v4.6h-4.6zm-9.58 9.58h4.6v4.6h-4.6zm9.58 0h4.6v4.6h-4.6zm-9.58 9.59h4.6v4.6h-4.6zm-21.09 5.37h4.6v4.6h-4.6zm66.33-10.36h4.6v4.6h-4.6zm9.2 0h4.6v4.6h-4.6zm212.04-112.73h4.6v4.6h-4.6zm5.75 0h4.6v4.6h-4.6zm-5.75 9.59h4.6v4.6h-4.6zm5.75 0h4.6v4.6h-4.6zm-5.75 9.59h4.6v4.6h-4.6zm5.75 0h4.6v4.6h-4.6zm-5.75 9.58h4.6v4.6h-4.6zm5.75 0h4.6v4.6h-4.6zm-5.75 9.59h4.6v4.6h-4.6zm5.75 0h4.6v4.6h-4.6zm-5.75 9.58h4.6v4.6h-4.6zm5.75 0h4.6v4.6h-4.6zm-5.75 9.59h4.6v4.6h-4.6zm5.75 0h4.6v4.6h-4.6zm-5.75 9.59h4.6v4.6h-4.6zm5.75 0h4.6v4.6h-4.6zm-5.75 9.58h4.6v4.6h-4.6zm5.75 0h4.6v4.6h-4.6zm-44.86 0h4.6v4.6h-4.6zm9.97 0h4.6v4.6h-4.6zm9.97 0h4.6v4.6h-4.6zm-19.94 20.71h4.6v4.6h-4.6zm9.97 0h4.6v4.6h-4.6zm9.97 0h4.6v4.6h-4.6zm-19.94 20.7h4.6v4.6h-4.6zm9.97 0h4.6v4.6h-4.6zm9.97 0h4.6v4.6h-4.6zm19.17-31.82h4.6v4.6h-4.6zm5.75 0h4.6v4.6h-4.6zm-5.75 9.58h4.6v4.6h-4.6zm5.75 0h4.6v4.6h-4.6zm-5.75 9.59h4.6v4.6h-4.6zm5.75 0h4.6v4.6h-4.6zm9.59-9.59h4.6v4.6h-4.6zm10.74 0h4.6v4.6h-4.6zm-10.74 9.21h4.6v4.6h-4.6zm10.74 0h4.6v4.6h-4.6zm-10.74 9.2h4.6v4.6h-4.6zm10.74 0h4.6v4.6h-4.6zm-10.74 9.2h4.6v4.6h-4.6zm10.74 0h4.6v4.6h-4.6zm-26.08-8.43h4.6v4.6h-4.6zm5.75 0h4.6v4.6h-4.6zm-5.75 9.58h4.6v4.6h-4.6zm5.75 0h4.6v4.6h-4.6zm-262.65-6.9h4.6v4.6h-4.6zm-9.58 9.59h4.6v4.6h-4.6zm9.58 0h4.6v4.6h-4.6zm-9.58 9.58h4.6v4.6h-4.6zm9.58 0h4.6v4.6h-4.6zm-9.58 9.59h4.6v4.6h-4.6zm9.58 0h4.6v4.6h-4.6z" class="F"/><g class="C E I"><path d="M359.61 388.57v18.97h-38.34v-37.72h38.34v15.37m70.56 16.62v5.73h-38.35V387.6h7.92"/><path d="M404.41 387.6h25.76v11.1m-282.61-11.1h27.24v19.94h-38.35V387.6h7.47m-56.35 0h3.64v19.94H77.02V387.6h7.69m252.66-17.78h6.13v37.72h-6.13zm-41.52 5.13h-6.02v-9.97h20.32v9.97h-8.84m-136.48-16.87h23.39v8.44h-23.39z"/><path d="M175.95 358.08h2.3v49.46h-2.3z"/></g><g class="B C"><path d="M250 57.63a129 129 0 0 0-129 129c0 64.35 119 216 119 216h10s129-144.76 129-216a129 129 0 0 0-129-129zm0 192a63 63 0 1 1 63-63 63 63 0 0 1-63 63z" class="F"/><path d="M240 57.63a129 129 0 0 0-129 129c0 71.24 129 216 129 216s129-144.76 129-216a129 129 0 0 0-129-129zm0 192a63 63 0 1 1 63-63 63 63 0 0 1-63 63z" class="H"/><path d="M199.43 265.25L213.68 241l.25 8.75-8.5 17-6-1.5z" class="D"/></g><use xlink:href="#E" class="D"/><g clip-path="url(#A)" class="H"><path d="M210.58 355.82a66.29 66.29 0 0 0 16.2 4.61l.8-2c1.88-5.36 3.48-10.45 3.48-10.45l-17.13-.8a25.16 25.16 0 0 1-3.35 8.64z" style="mix-blend-mode:multiply"/></g><use xlink:href="#E" class="B C E"/><use xlink:href="#F" class="D"/><g clip-path="url(#B)" class="H"><path d="M270.18 346.73c-2.73-5-5.44-9.57-5.44-9.57l-12.06 12.2a25.34 25.34 0 0 1 4.39 9 99.46 99.46 0 0 0 16-4.25 38.92 38.92 0 0 0-2.89-7.38z" style="mix-blend-mode:multiply"/></g><g class="B C"><use xlink:href="#F" class="E"/><path d="M313.44 411.22c1.13-3.9-2.88-1.94-4.57-.68-2.19 1.63-13.12 3-13.12 3l-2.9-6.52a29 29 0 0 1-7 4.09c3.75 7.39 6.86 13.88 8.08 14.09 2.91.52 7.35-3.2 9.51-4.71 2.72-1.96 9.03-5.88 10-9.27z" class="D"/></g><use xlink:href="#G" class="D"/><g clip-path="url(#C)" class="H"><path d="M243.63 323.16c3.38-4.23 4.6-29.1 4.6-29.1l-33.94-2.57v2.24L210.05 317c9.5 3.06 30.95 9.44 33.58 6.16z" style="mix-blend-mode:multiply"/></g><g class="C"><use xlink:href="#G" class="E I"/><path d="M271.68 253.25l19 5 7.75-23-29-5.5-6.5 21.25 8.75 2.25z" class="B F"/></g><path d="M275.39 242.61l12.08 2.95m-13.25 0l12.08 2.95" stroke="#fff" class="E G B"/><g class="C B"><path d="M251.93 254.5s6-3.25 8-6 4.25-7.5 5.25-8.25 6-3.25 7-4 2.5.75.75 2.25l-5.5 4.75s1 4.5-.25 6a15.13 15.13 0 0 1-2.25 2.25l6.75 1.75s-4.5 3.25-6.5 3.75a46 46 0 0 1-6 .75l-8.25 6.5z" class="D"/><path d="M224.93 199.89s-8 11.65-10 25.29-.66 68.55-.66 68.55 10.64 4.32 19 4.32 20.63.67 21-4-2.33-58.23-6-71.21a95.83 95.83 0 0 0-11-24s-8.34-5.61-12.34 1.05z" class="F"/><path d="M243.18 210l-10.75 68.5 9.5 3.5 4.25-65.75-3-6.25zm-23.8-36.65s1.33 6.32 4 9.65 7.65 5 7.65 5l-1.43 7.57 9.32 5.66 3.42-16.23 1-19.3s-23.34 3.99-23.96 7.65z" class="D"/><path d="M219.38 173.35s1.33 6.32 4 9.65 7.65 5 7.65 5 8-2.33 8.65-7.65c.48-3.84-.24-10.43-.69-13.82-6.79 1.34-19.13 4.17-19.61 6.82z" class="F"/></g><use xlink:href="#H" class="D"/><g clip-path="url(#D)" class="H"><g style="mix-blend-mode:multiply" opacity=".5"><path d="M237.35,169.36a20.36,20.36,0,0,1-1.86,4.61c6-.27,12.41-.65,18.15-1.15a1.81,1.81,0,0,1-.66-1.13,18.49,18.49,0,0,0-.33-3V166Z" style="mix-blend-mode:multiply"/></g></g><g class="B C"><use xlink:href="#H" class="E"/><path d="M219.38 173.35l33.27-7.35s-4.66-16.31-10.31-17.64-16.64-2-22.63 4-.33 20.99-.33 20.99z" class="D"/><path d="M241.67,168.69a97.07,97.07,0,0,0,13.31,2c6,.33,19.63-5,16.31-5.33s-18.64.67-18.64.67Z" class="F"/><path d="M226.27 192.9l-3 6.66 14.98 9.31 2.99-9.31-14.97-6.66zm-30.84 69.6l53.25 13.75-5.53 38.94a4.56 4.56 0 0 1-5.67 3.77l-48.41-12.58a3.61 3.61 0 0 1-2.62-4.29z" class="D"/><path d="M195.43,262.5S208,293,215.7,297s33-20.72,33-20.72" class="E G"/><path d="M206,249.14s-3.33,7.32-2.33,10,42.26,17.64,42.26,17.64.33,5.65,1.33,7a20.57,20.57,0,0,1,2,4.66s-2,4.66-1,5.66,4-4.66,4-6.32.33-10.65-.66-13-29.29-19.63-29.29-19.63Z" class="D"/><path d="M224.27 209.21l-19.3 40.92 17.3 5 13.98-32.61" class="F G"/></g><g class="E B G"><path d="M222.27 255.13l12.74-28.57m-4.37 10.49l6.41-6.41" stroke="#fff"/><g class="C"><path d="M211.64 343.93a48.92 48.92 0 0 0 25.94 5.37m-30.28-7.99s.77.58 2.2 1.44m62.66-1.17a39.82 39.82 0 0 0 3.69-2.27M246.56 348a58.21 58.21 0 0 0 22.66-4.92m-25.98-14.41l7.18-12.43m-6.79 11.78l11.97-13.57"/><path d="M213.1 322.63l-1 7.38a30.55 30.55 0 0 0 8 4c4.79 1.6 15 1.4 15 1.4l1.4-7s-17.76-2-21.35-5m-3.24 9.39s-2.8 6.79-1 8.39 14.56 6.38 18 6 5.38-8.78 5.38-8.78"/></g></g><path d="M313.44 411.22c1.13-3.9-2.88-1.94-4.57-.68-2.19 1.63-13.12 3-13.12 3l-1.33-3a23.1 23.1 0 0 1-6.78 4.14c2.91 5.78 5.24 10.32 6.26 10.49 2.91.52 7.35-3.2 9.51-4.71 2.75-1.93 9.06-5.85 10.03-9.24z" class="B C F"/><path d="M305.13 416.68l-12.78 6.77c.66 1 1.19 1.65 1.55 1.71 2.91.52 7.35-3.2 9.51-4.71 2.75-1.92 9.06-5.84 10-9.23.48-1.64 0-2.24-.75-2.29-1.66 2.78-4.24 6.07-7.53 7.75zm-102.89 8.73c-.48-.36-5.91-4.17-5.74-4.64l2.76-7.27a31.2 31.2 0 0 1-8.32-2.24c-2.66 8.08-5 14.94-4.34 15.94 1.33 2.14 13.12 5.09 17.67 5.09 2.39 0 6.35.92 7.93-1.41.09-.13-9.35-5.02-9.96-5.47z" class="D B C"/><path d="M212.2 430.88c.09-.13-9.35-5-10-5.47s-5.91-4.17-5.74-4.64l1.06-2.83a42.59 42.59 0 0 1-8.06-2.3c-2 6.06-3.41 10.74-2.9 11.56 1.33 2.14 13.12 5.09 17.67 5.09 2.43 0 6.39.92 7.97-1.41z" class="B C F"/><path d="M202.84 430.08c-6.13-.37-12.94-2.89-16.27-4.27a2.46 2.46 0 0 0 0 1.39c1.33 2.14 13.12 5.09 17.67 5.09 2.39 0 6.35.92 7.93-1.41a9.82 9.82 0 0 0-1.41-.83 57.05 57.05 0 0 1-7.92.03z" class="B C D"/><path d="M239.94 168.72l-5.34-12.69m-.67-2.33s-1.67-3.68-.33-5.35" stroke="#000" class="E G B"/></svg>