<svg xmlns="http://www.w3.org/2000/svg" xmlns:xlink="http://www.w3.org/1999/xlink" viewBox="0 0 500 500" xmlns:v="https://vecta.io/nano"><style><![CDATA[.B{fill:#407bff}.C{fill:#fff}.D{opacity:.2}.E{fill:#263238}.F{fill:#ce7a63}.G{opacity:.3}]]></style><ellipse cx="250" cy="415.69" rx="193.89" ry="11.32" fill="#f5f5f5"/><path d="M188.5 187.87h10.7A3.75 3.75 0 0 1 203 192l-2 22.57a4.62 4.62 0 0 1-4.51 4.15H185.8a3.75 3.75 0 0 1-3.79-4.15L184 192a4.62 4.62 0 0 1 4.5-4.13z" class="B"/><path d="M308.2 183.05h16.72a5.85 5.85 0 0 1 5.92 6.48l-2.06 23.57a7.22 7.22 0 0 1-7 6.48H305a5.85 5.85 0 0 1-5.91-6.48l2.06-23.57a7.22 7.22 0 0 1 7.05-6.48zm-3.43 39.16h16.73a5.85 5.85 0 0 1 5.91 6.48l-2.06 23.57a7.21 7.21 0 0 1-7.05 6.48h-16.72a5.85 5.85 0 0 1-5.92-6.48l2.07-23.57a7.21 7.21 0 0 1 7.04-6.48z" class="D"/><use xlink:href="#B" class="B"/><use xlink:href="#B" class="D"/><path d="M215.5 138.86h93.17a21.15 21.15 0 0 1 21.39 23.45l-19.88 227.17a26.1 26.1 0 0 1-25.49 23.44h-93.16a21.13 21.13 0 0 1-21.39-23.44L190 162.31c1.14-12.95 12.56-23.45 25.5-23.45z" class="B"/><path d="M327.26 162.31l-19.87 227.16a23 23 0 0 1-22.46 20.64h-93.16a18.61 18.61 0 0 1-18.84-20.64l19.88-227.16a23 23 0 0 1 22.45-20.65h93.16a18.62 18.62 0 0 1 18.84 20.65z" class="C"/><g opacity=".1"><path d="M191.77 410.11h35.32l57.06-268.45h-45l-56.58 266.18a19.43 19.43 0 0 0 9.2 2.27zm113.98-268.45h-8.56l-57.07 268.45h8.57l57.06-268.45z"/></g><g class="B"><path d="M234.53 141a6 6 0 0 0 6 6.62h41.5a7.39 7.39 0 0 0 7.19-6.62zm72.2 8h9.42a1.3 1.3 0 0 1 1.3 1.43l-.36 4.1a1.59 1.59 0 0 1-1.55 1.43h-9.42a1.29 1.29 0 0 1-1.3-1.43l.36-4.1a1.59 1.59 0 0 1 1.55-1.43z"/><use xlink:href="#C"/></g><use xlink:href="#C" opacity=".4" class="C"/><path d="M304.22 150.16h1.48a.47.47 0 0 1 .48.52l-.31 3.54a.58.58 0 0 1-.57.52h-1.48a.47.47 0 0 1-.48-.52l.31-3.54a.58.58 0 0 1 .57-.52z" class="B"/><g class="C"><use xlink:href="#D"/><use xlink:href="#D" x="-3.19"/></g><use xlink:href="#E" class="B"/><use xlink:href="#E" class="D"/><path d="M330 187.87l-2 23.23a4.62 4.62 0 0 0 3.73-4.07L333 192a3.74 3.74 0 0 0-3-4.13z" class="B"/><path d="M330 187.87l-2 23.23a4.62 4.62 0 0 0 3.73-4.07L333 192a3.74 3.74 0 0 0-3-4.13z" class="D"/><path d="M405.29 240.88h-19.63a6 6 0 0 0-6 6v11.62a6 6 0 0 0 6 5.95h5.61v4.53a1.27 1.27 0 0 0 2.16.89l5.41-5.42h6.45a6 6 0 0 0 5.95-5.95v-11.67a6 6 0 0 0-5.95-5.95z" class="B"/><g class="C"><path d="M400.54 246.44h-9.43l-.23-2h-5.19l.28 1.12h3.74l.13.84.63 4.12.17 1.12.62 4.12.34 2.21H402l.26-1.12h-9.85l-.13-1.09h10.71l1-4.12.28-1.12 1-4.12zm-9.29 1.11h3.34l.09 3h-3.08zm.85 7.14l-.36-3h3l.09 3zm6.41 0h-2.71v-3h3l-.29 3zm.38-4.13h-3.08v-3h3.34l-.26 3zm3.32 4.13h-2.7l.38-3h3zm.89-4.13H400l.38-3h3.34l-.62 3zm-10.86 8.49a1.33 1.33 0 1 0 1.33 1.33 1.33 1.33 0 0 0-1.33-1.33z"/><circle cx="401.66" cy="260.38" r="1.32"/></g><path d="M273.51 157.62h-31.16a10.51 10.51 0 0 0-10.27 9.44l-1.61 18.45a8.51 8.51 0 0 0 8.61 9.44H248l-.63 7.18a1.89 1.89 0 0 0 3.29 1.41L260 195h10.24a10.52 10.52 0 0 0 10.27-9.44l1.61-18.45a8.51 8.51 0 0 0-8.61-9.49z" class="B"/><path d="M264.19 166.44h-14.95l-.1-3.1h-8.23l.28 1.77h5.94c0 .53.05.8.08 1.33l.43 6.55c0 .7.07 1.06.11 1.77l.42 6.54.23 3.5h16.42l.57-1.77h-15.63v-1.73h17l2.19-6.54.59-1.77 2.19-6.55zm-14.9 1.77h5.3l-.27 4.78h-4.88zm.36 11.32l-.15-4.77h4.72l-.28 4.77zm10.17 0h-4.29l.43-4.77h4.72l-.86 4.77zM261 173h-4.88l.43-4.78h5.31L261 173zm4.7 6.54h-4.29l1-4.77h4.71l-1.42 4.76zm2-6.54h-4.9l1-4.78h5.3l-1.42 4.78zm-18.42 13.46a2.34 2.34 0 0 0-2.29 2.1 1.9 1.9 0 0 0 1.92 2.1 2.34 2.34 0 0 0 2.29-2.1 1.9 1.9 0 0 0-1.92-2.1zm14.93 0a2.33 2.33 0 0 0-2.28 2.1 1.9 1.9 0 0 0 1.92 2.1 2.33 2.33 0 0 0 2.28-2.1 1.9 1.9 0 0 0-1.92-2.1z" class="C"/><g class="B"><path d="M260.27 288.18h35.63v35.63h-35.63z"/><path d="M295.89 288.18h21.88v35.63h-21.88z"/><path d="M289.09 279.24h-35.63l6.81 8.94h35.62l-6.8-8.94z"/></g><g class="C"><path d="M295.89 288.18h21.88v35.63h-21.88z" class="G"/><path d="M289.09 279.24h-35.63l6.81 8.94h35.62l-6.8-8.94z" opacity=".4"/></g><path d="M302.34 279.24h21.88l-6.44 8.94h-21.89l6.45-8.94z" class="B"/><g class="C"><path d="M260.27 288.18h35.63v35.63h-35.63z" opacity=".6"/><path d="M302.34 279.24h21.88l-6.44 8.94h-21.89l6.45-8.94z" class="D"/></g><path d="M306.35 322.93h89.8v89.8h-89.8z" class="B"/><path d="M306.35 322.93h89.8v89.8h-89.8z" opacity=".4" class="C"/><path d="M251.17 322.93h55.16v89.8h-55.16z" class="B"/><g class="C"><path d="M251.17 322.93h55.16v89.8h-55.16z" opacity=".6"/><path d="M268.21 322.93v24.12l2.19 1.15 1.89-1.57 2.99 1.57 2.84-1.57 2.2 1.57 2.52-1.57 1.43 1.29v-24.99h-16.06zm16.06 89.8v-24.12l-2.19-1.16-1.89 1.58-2.99-1.58-2.84 1.58-2.2-1.58-2.52 1.58-1.43-1.29v24.99h16.06z" opacity=".5"/><path d="M343 359.55l1.27 5.13.34 1.39 1.27 5.13h13.32l-.16 1.35h-12.27l.32 1.39H360l.42-2.74.78-5.13.21-1.39.78-5.13.16-1.05H367l.34-1.38h-6.45l-.29 2.43H343zm17 5.13h-3.82l.11-3.75h4.15l-.44 3.75zm-4 5.13l.11-3.74h3.7l-.45 3.74zm-5-3.74h3.69v3.74h-3.37l-.32-3.74zm-.47-5.14h4.15v3.75h-3.78l-.34-3.75zm-4.6 5.14h3.7l.47 3.74h-3.37zm-1.1-5.14H349l.46 3.75h-3.82z"/><circle cx="359.16" cy="376.89" r="1.65"/><circle cx="347.45" cy="376.89" r="1.65"/></g><g opacity=".5" class="C"><path d="M266.59 359.55l1.27 5.13.34 1.39 1.27 5.13h13.32l-.16 1.35h-12.25l.32 1.39h12.87l.42-2.74.78-5.13.21-1.39.78-5.13.16-1.05h4.66l.34-1.38h-6.45l-.29 2.43h-17.59zm17 5.13h-3.82l.11-3.75H284l-.43 3.75zm-4 5.13l.11-3.74h3.7l-.45 3.74zm-4.95-3.74h3.69v3.74H275l-.36-3.74zm-.48-5.14h4.16v3.75h-3.82zm-4.59 5.14h3.7l.46 3.74h-3.36zm-1.1-5.14h4.16l.46 3.75h-3.82z"/><circle cx="282.77" cy="376.89" r="1.65"/><circle cx="271.06" cy="376.89" r="1.65"/></g><path d="M363.36,251.47s3.12,22.39,5.92,26.25,15.38,14.54,15.38,14.54l7.95-1.16,5.33,5-3.86,2.67-4.25-1.9a41.57,41.57,0,0,1-7.22.17c-4.06-.25-19.92-11-22.84-16.61s-6.22-26.38-6.22-26.38Z" class="F"/><path d="M366,257.94l-.8.14c-.55-5.26-2.75-21.24-8.78-17.14-5.79,3.95-4.16,15.16-3.32,19.35l-1,.17.88,2.76,13.33-2.55Z" class="B"/><path d="M361 247.37l-1.47-3.16-4.61 4.64-2.65 4a43.9 43.9 0 0 0 .86 7.45l-1 .17.88 2.76 7.52-1.44a51.09 51.09 0 0 0 .47-14.42z" class="D"/><path d="M361.46,207.19s15.9,3.44,7.45,11l-7-6.11Z" class="E"/><path d="M383.53 375.08l-10.12 24.79-7.02-2.73 5.66-24.64 11.48 2.58z" class="F"/><path d="M372.55 370.75l-3.99 17.37 8.65 1.93 6.82-16.73-11.48-2.57z" class="D"/><path d="M375 399.29c1.29 2.93 2.16 5.34 7.44 8.47 1.15.66-.8 3.7-3.67 2.41-4.74-2.14-3.5-2.18-7.56-3.94-3.41-1.51-5.95-2.42-8.73-3.58a.82.82 0 0 1-.2-.12h0a1.12 1.12 0 0 1-.23-1.56l4.1-5.61a.67.67 0 0 1 .82-.22l6.64 2.86a2.69 2.69 0 0 1 1.39 1.29zm31.18-82.47c-1.29 16-24.27 68.89-24.27 68.89l-13.64-3.8s10.42-50.81 17.22-59.22l-5.79.07c-12.43.11-41.24.09-49.55-2.12-5.93-1.58-18.32-4.75-15-24.59l15.36-.53 17.89-.62s59.6.1 57.78 21.92z" class="E"/><path d="M379.7 322.76c-12.43.11-41.24.09-49.55-2.12-5.93-1.58-18.32-4.75-15-24.59l15.36-.53c12.09 1.43 27.89 3.82 38.66 8.45 5.24 2.25 8.88 6.31 9.95 11.09a56.66 56.66 0 0 1 .58 7.7z" class="D"/><path d="M359.81 374.2l-5.06 25.27-7.61-.35.9-25.27 11.77.35z" class="F"/><path d="M359.81 374.2l-11.77-.35-.52 15.11 9.27.33 3.02-15.09z" class="D"/><path d="M355.91 400.07c1.24 3 2 5.52 7.33 8.86 1.14.74-.94 3.79-3.81 2.37-4.76-2.33-3.49-2.32-7.58-4.25-3.45-1.63-6-2.64-8.79-3.91l-.21-.1h0a1.13 1.13 0 0 1-.19-1.6l4.35-5.61a.67.67 0 0 1 .83-.2l6.66 3.11a2.69 2.69 0 0 1 1.41 1.33zM306.17 296s-4.35 15.63 2.84 21.8c10.05 8.63 46.36 6 46.36 6-6.27 20.07-9.07 59.94-9.07 59.94h13.61s18.54-54.54 15.8-68.64-51.38-19.09-51.38-19.09z" class="E"/><path d="M367.06 383.49l15.44 3.89 3.15-6.61-16.96-4.81-1.63 7.53zm-22.11 2.19l15.75.81 1.63-6.93-17.38-.81v6.93zm7.22-111.29c4-11.79 9-20.76 9.58-30.81-13.69-19.76-40.46-8.08-40.46-8.08-16.2 30.4-15.12 60.5-15.12 60.5 36.81 0 38.92-.63 38.92-.63s.13-5.17 7.08-20.98z" class="B"/><path d="M339.81 234.92c.59 3.48 1.82 9.76 3.28 10.67 2 1.22 5-.49 5-.49s2.43 3.29 5 1.1a13.81 13.81 0 0 0 3.3-4.92 14.2 14.2 0 0 1-2.83 3.44c-2.6 2.18-5-1.1-5-1.1s-3 1.7-5 .49c-1.32-.79-2.86-5.76-3.75-9.19z" class="D"/><path d="M343.11 230.12l3.65 1.25-2.86 2.51-.79-3.76z" class="B"/><path d="M343.11 230.12l3.65 1.25-2.86 2.51-.79-3.76z" class="D"/><path d="M354.71,233.88l1,3s-5.22,5.46-6.72,5.52-5.9-10.27-5.9-10.27c5.81-2.63,5.27-5.52,5.27-5.52Z" class="F"/><path d="M352.81 239.67l2.92-2.84-1-3-5.65-6.53c-.74 2.89-1.46 8.83 3.73 12.37z" class="D"/><path d="M357.69,239a17.15,17.15,0,0,1-4.08,5.81c-2.61,2.18-5-1.09-5-1.09s-3,1.69-5,.48S339,231.89,339,231.89l4.11-1.77,5.66,12,7.63-6.31Z" class="B"/><path d="M348.16,216.47a10.12,10.12,0,0,1,15.13-8.84c7.26,3.91,7.46,15.33,5.3,22A10,10,0,0,1,351.18,233c-3.56-4.38-3.1-8.87-3-16.58Z" class="F"/><path d="M361.68 221.25c.42 0 .68.61.57 1.22s-.48 1-.89 1-.67-.61-.57-1.22.47-1.03.89-1zm6.93 1.3c.43 0 .69.59.59 1.21s-.49 1-.91 1-.66-.6-.57-1.22.47-1.04.89-.99zm-8.79-2.76a2.84 2.84 0 0 1 2.56-.47h0a.36.36 0 0 0 .45-.22h0a.39.39 0 0 0-.22-.47 3.59 3.59 0 0 0-3.28.64h0a.32.32 0 0 0 .11.58.32.32 0 0 0 .38-.06zm10.54 1.95h0a.37.37 0 0 0 .12-.5 3.73 3.73 0 0 0-2.79-1.89h0a.35.35 0 0 0-.33.27h0a.36.36 0 0 0 .27.44 3.08 3.08 0 0 1 2.24 1.57.35.35 0 0 0 .28.19.4.4 0 0 0 .21-.08z" class="E"/><path d="M364.5,229.37a3.62,3.62,0,0,0,3,0,24.07,24.07,0,0,1-2-5.88Z" fill="#ba4d3c"/><path d="M347.68,221.46c-3-10.9,1.85-13.74,7.09-15.7s8.15-.08,9.82,1.76c.52.58,1.56,2.32-1.8,2.55a26.33,26.33,0,0,1-6.07-.47,2.21,2.21,0,0,0-2.14.84c-1.16,1.52-3,4.36-3,6.84a6.48,6.48,0,0,1-1.94,5.12Z" class="E"/><path d="M343.9 276.24h0a1.32 1.32 0 1 1-1.33 1.31 1.31 1.31 0 0 1 1.34-1.31zM341 290.2h0a1.32 1.32 0 1 1 0 2.64 1.33 1.33 0 0 1-1.32-1.33 1.31 1.31 0 0 1 1.32-1.31z" class="B"/><path d="M347.76 219c2.12.38 3.14 3.37 3.16 5.33s-1.5 3.69-3.37 2.44a6.88 6.88 0 0 1-2.8-4.14c-.41-2.11.9-4.05 3.01-3.63z" class="F"/><path d="M357.44 229.26a37.38 37.38 0 0 1 6.66 2.59 4.19 4.19 0 0 1-5.24.72 2.45 2.45 0 0 1-1.42-3.31z" class="E"/><path d="M360.51 232a4.91 4.91 0 0 0-3-.53 2.92 2.92 0 0 0 1.33 1.14 4.88 4.88 0 0 0 3 .53 2.77 2.77 0 0 0-1.33-1.14z" fill="#a02724"/><path d="M357.68 229.32a1.07 1.07 0 0 0 .42 1.05 27.2 27.2 0 0 0 4.39 1.59 1.47 1.47 0 0 0 1.4-.2 42.91 42.91 0 0 0-6.21-2.44z" class="C"/><g class="E"><path d="M383.438 302.778l-18.1-.098.016-2.91 18.1.098z"/><use xlink:href="#F"/></g><use xlink:href="#F" class="C G"/><path d="M363.182 301.735l-2.91-.016.006-1.03 2.91.016zm-4.54-.005l-2.91-.016.006-1.03 2.91.016zm11.638-1.91l-1.93-.01 7.7-26.22 1.93.01-7.7 26.22z" class="E"/><path d="M370.28 299.82l-1.93-.01 7.7-26.22 1.93.01-7.7 26.22z" class="C G"/><path d="M369.57 299.82l33.97.18 7.7-26.23-33.97-.18-7.7 26.23z" class="E"/><path d="M369.57 299.82l33.97.18 7.7-26.23-33.97-.18-7.7 26.23z" opacity=".6" class="C"/><use xlink:href="#G" class="E"/><use xlink:href="#G" opacity=".5" class="C"/><use xlink:href="#H" class="E"/><use xlink:href="#H" class="C G"/><path d="M333.43 275.53c-1.63-2.24-3.36-10.54-4.57-17.4l1.57-.3-.37-2.84-.82.15c-.57-5.36-2.79-21.48-8.8-18a114.62 114.62 0 0 0-4.63 10.2 42.07 42.07 0 0 0 .86 10.07l-1 .18.92 2.87 2.13-.4c1.27 6.62 3.12 15 4.84 18.32 2.26 4.36 12 11.64 18.52 15.18 7.33-1.3 9-2.22 9-2.22a3.86 3.86 0 0 1-.51-.9l-1.18.17s-13.05-11.07-15.96-15.08z" class="D"/><path d="M331.64 248.38s2.14 23.37 4.86 27.51 15.25 15.84 15.25 15.84l8.3-.82 5.28 5.49-4.13 2.6-4.32-2.19a42.44 42.44 0 0 1-7.5-.17c-4.19-.46-20.12-12.34-22.88-18.34s-5.17-27.67-5.17-27.67z" class="F"/><path d="M333.5,253.42l-.83.15c-.57-5.46-2.86-22.06-9.11-17.8-6,4.1-4.33,15.74-3.45,20.09l-1,.18.92,2.87,13.84-2.65Z" class="B"/><path d="M131.22,333.56l-2.39-.13.56-10.84a14.28,14.28,0,0,1,14.08-13.37,12.7,12.7,0,0,1,12.8,13.5l-.57,10.84-2.39-.13.57-10.84a10.31,10.31,0,0,0-10.41-11,11.85,11.85,0,0,0-11.68,11.11Z" class="E"/><path d="M182.49 328.74h-70.67l-2.4 83.85 10.48-2.4 10.48 2.4h54.51l-2.4-83.85z" class="B"/><path d="M182.49 328.74h-70.67l-2.4 83.85 10.48-2.4 10.48 2.4h54.51l-2.4-83.85z" opacity=".6" class="C"/><path d="M130.38 412.59l-10.48-2.4-10.48 2.4 2.4-83.85h16.17l2.39 83.85z" class="B"/><path d="M130.38 412.59l-10.48-2.4-10.48 2.4 2.4-83.85h16.17l2.39 83.85z" class="C G"/><use xlink:href="#I" class="E"/><g class="D C"><use xlink:href="#I"/></g><rect x="138.74" y="359.36" width="35.54" height="7.99" rx="1.34" class="C"/><path d="M98.74,359.61l-1.61-.09.38-7.26a9.57,9.57,0,0,1,9.44-9,8.51,8.51,0,0,1,8.58,9l-.38,7.27-1.6-.09.38-7.26a6.92,6.92,0,0,0-7-7.36,7.94,7.94,0,0,0-7.83,7.44Z" class="E"/><g class="B"><path d="M133.11 356.38H85.73l-1.6 56.21 7.02-1.61 7.03 1.61h36.54l-1.61-56.21z"/><path d="M98.18 412.59l-7.03-1.61-7.02 1.61 1.6-56.21h10.84l1.61 56.21z"/></g><path d="M98.18 412.59l-7.03-1.61-7.02 1.61 1.6-56.21h10.84l1.61 56.21z" class="D"/><use xlink:href="#J" class="E"/><g class="D C"><use xlink:href="#J"/></g><rect x="103.78" y="376.91" width="23.82" height="5.35" rx="1.34" class="C"/><defs ><path id="B" d="M218.51 138.86h93.16a21.14 21.14 0 0 1 21.39 23.45l-19.88 227.17a26.09 26.09 0 0 1-25.49 23.44h-93.16a21.14 21.14 0 0 1-21.39-23.44L193 162.31a26.09 26.09 0 0 1 25.51-23.45z"/><path id="C" d="M206.15 149h12.61a1.46 1.46 0 0 1 1.47 1.61l-.33 3.74a1.79 1.79 0 0 1-1.75 1.61h-12.61a1.45 1.45 0 0 1-1.46-1.61l.32-3.74a1.79 1.79 0 0 1 1.75-1.61z"/><path id="D" d="M314.28 150.16h1.49a.47.47 0 0 1 .47.52l-.31 3.54a.57.57 0 0 1-.56.52h-1.49a.47.47 0 0 1-.47-.52l.31-3.54a.57.57 0 0 1 .56-.52z"/><path id="E" d="M327.83 212.94l-2 23.23a4.64 4.64 0 0 0 3.74-4.08l1.28-15.09a3.72 3.72 0 0 0-3.02-4.06z"/><path id="F" d="M366.827 302.692l-23-.124a1.36 1.36 0 0 1-1.353-1.367l.008-1.54h0l24.36.132h0l-.016 2.91v-.01z"/><path id="G" d="M367.91 299.81l35.36.19c.59 0 1.07.66 1.07 1.46s-.49 1.45-1.09 1.45l-35.36-.19c-.59 0-1.07-.66-1.07-1.46s.49-1.45 1.09-1.45z"/><path id="H" d="M366.82 301.26c0 .8.48 1.45 1.07 1.46s1.08-.65 1.09-1.45-.48-1.46-1.07-1.46-1.08.65-1.09 1.45z"/><path id="I" d="M167.53,333.56,167,322.72a11.85,11.85,0,0,0-11.69-11.11,10.31,10.31,0,0,0-10.4,11l.57,10.84-2.39.13-.57-10.84a12.69,12.69,0,0,1,12.79-13.5,14.27,14.27,0,0,1,14.08,13.37l.57,10.84Z"/><path id="J" d="M123.08,359.61l-.38-7.27a8,8,0,0,0-7.84-7.44,6.9,6.9,0,0,0-7,7.36l.38,7.26-1.6.09-.39-7.27a8.52,8.52,0,0,1,8.58-9,9.57,9.57,0,0,1,9.44,9l.38,7.26Z"/></defs></svg>