<svg xmlns="http://www.w3.org/2000/svg" xmlns:xlink="http://www.w3.org/1999/xlink" viewBox="0 0 500 500" xmlns:v="https://vecta.io/nano"><style><![CDATA[.B{fill:#263238}.C{fill:#ff725e}.D{opacity:.2}.E{fill:#ffc3bd}.F{fill:#f0f0f0}.G{fill:#f5f5f5}.H{fill:#e6e6e6}.I{fill:#fafafa}]]></style><g fill="#ebebeb"><path d="M0 382.4h500v.25H0zm416.78 16.09h18.89v.25h-18.89zm-123.73-1.74h29.47v.25h-29.47zm75.62-7.54h47.11v.25h-47.11zm-316.21 1.68h10.97v.25H52.46zm19.87 0h38.56v.25H72.33zm98.67 4.22h54.15v.25H171zm66-57.31H43.91a5.71 5.71 0 0 1-5.7-5.71V60.66a5.71 5.71 0 0 1 5.7-5.66H237a5.71 5.71 0 0 1 5.71 5.71v271.38a5.71 5.71 0 0 1-5.71 5.71zM43.91 55.2a5.46 5.46 0 0 0-5.45 5.46v271.43a5.46 5.46 0 0 0 5.45 5.46H237a5.47 5.47 0 0 0 5.46-5.46V60.66A5.47 5.47 0 0 0 237 55.2zm409.4 282.6h-193.1a5.72 5.72 0 0 1-5.71-5.71V60.66a5.72 5.72 0 0 1 5.71-5.66h193.1a5.71 5.71 0 0 1 5.69 5.66v271.43a5.71 5.71 0 0 1-5.69 5.71zM260.21 55.2a5.47 5.47 0 0 0-5.46 5.46v271.43a5.47 5.47 0 0 0 5.46 5.46h193.1a5.47 5.47 0 0 0 5.46-5.46V60.66a5.47 5.47 0 0 0-5.46-5.46z"/><path d="M416.78 398.49h18.89v.25h-18.89zm-123.73-1.74h29.47v.25h-29.47zm75.62-7.54h47.11v.25h-47.11zm-316.21 1.68h10.97v.25H52.46zm19.87 0h38.56v.25H72.33zm98.67 4.22h54.15v.25H171z"/></g><path d="M404.89 166.99h-23.03v-4.78h23.03z" class="H"/><path d="M381.87 166.99H132.15v-4.78h249.72z" class="F"/><path d="M273.79 82.71h61.04l-9.62 79.51h-61.04l9.62-79.51z" class="G"/><path d="M284.9 93.13h36.3l-7.09 58.66H277.8l7.1-58.66z" class="I"/><path d="M185.31 86.34h74.05l-9.18 75.88h-74.04l9.17-75.88z" class="G"/><path d="M195.91 96.28h50.44l-6.77 55.99h-50.44l6.77-55.99z" class="I"/><path d="M313.63 109.93h51.02l-6.32 52.29H307.3l6.33-52.29z" class="F"/><path d="M320.93 116.78h34.76l-4.67 38.58h-34.76l4.67-38.58z" class="I"/><path d="M435.35 230.72h-31.54a25.08 25.08 0 0 0-24 19.14l-8.33 34.8-17.12-.06h-.06a17 17 0 0 0-16.7 13.82l-2.28 11.91a8.81 8.81 0 0 0-7.23 6.61h12.09L326 382.4h3.62l14.22-65.46h9.94l-14.27 65.46h3.62l14.22-65.46H397l14.22 65.46h3.62l-14.22-65.46h9.94l14.22 65.46h3.62l-14.22-65.46h-1.49a25 25 0 0 0 24-19.12l12-50a13.61 13.61 0 0 0-13.34-17.1zm-67 66.86a16.57 16.57 0 0 1-15.87 12.66h-12.64l2.12-11a12.58 12.58 0 0 1 12.33-10.2h0l16.06.05z" class="H"/><g class="F"><path d="M228.21 374.28h-34.43V222.11h34.43z"/><path d="M221.61 382.4H70.05v-8.12h151.56z"/></g><path d="M63.43 222.11h130.36v152.17H63.43z" class="G"/><path d="M76.97 237.88h103.29v66.09H76.97zm0 78.62h103.29v42.01H76.97z" class="F"/><g class="G"><rect x="99.22" y="234.75" width="58.78" height="5.76" rx="2.58" transform="matrix(-1 0 0 -1 257.22 475.25)"/><rect x="99.22" y="313.62" width="58.78" height="5.76" rx="2.58" transform="matrix(-1 0 0 -1 257.22 633.01)"/></g><path d="M329.26 230.72h-31.54a25.08 25.08 0 0 0-24 19.14l-8.33 34.8-17.12-.06h0a17 17 0 0 0-16.71 13.82l-2.28 11.91a8.82 8.82 0 0 0-7.23 6.61h12.1l-14.28 65.46h3.61l14.22-65.46h10l-14.27 65.46H237l14.22-65.46h39.66l14.22 65.46h3.61l-14.22-65.46h10l14.21 65.46h3.61l-14.22-65.46h-1.49a25 25 0 0 0 24-19.12l12-50a13.62 13.62 0 0 0-13.34-17.1zm-67 66.86a16.59 16.59 0 0 1-15.88 12.66h-12.62l2.12-11a12.57 12.57 0 0 1 12.33-10.2h0l16.07.05z" class="H"/><ellipse cx="250" cy="416.24" rx="193.89" ry="11.32" class="G"/><path d="M150.93 108c.69-12.09 26.25-10.89 31.27.39s.9 21.65 14.83 28.46c24.63 12 27.31 27.94 18 43.63s-45.67 26.68-65.45 1c-19.51-25.35 10.15-31-5.2-42.93-13.38-10.46-12.24-29.09 6.55-30.55z" class="B"/><path d="M140 166.21l-.74.86-.67.72-1.35 1.31-2.78 2.39a57.18 57.18 0 0 1-5.93 4.07 66 66 0 0 1-6.27 3.31l-3.24 1.4-1.64.63-.82.31a10 10 0 0 1-1.47.43 6.88 6.88 0 0 1-6.79-2.36 11.48 11.48 0 0 1-2.2-4.39 30.89 30.89 0 0 1-1-7.44 70.28 70.28 0 0 1 1.17-13.8l4.48.37a125.2 125.2 0 0 0 1.1 12.86 27.6 27.6 0 0 0 1.38 5.66 3.72 3.72 0 0 0 .88 1.49c.07 0 0-.09-.26-.22a2 2 0 0 0-.54-.12l.12-.07.71-.35 1.43-.68 2.8-1.44 5.36-3.2 5-3.61 2.28-2 1.05-1 .49-.48.36-.39z" class="E"/><use xlink:href="#B" class="C"/><use xlink:href="#B" class="D"/><path d="M137.77 156.39l.9 14.13-5.81 3.66-1.18-2.26z" class="D"/><g class="E"><path d="M110.08,157l4.13-9.2-8.78,2.09s-1.52,5.5,1.16,8Z"/><path d="M113.7 141.22l-7.54.63-.73 8.05 8.78-2.09-.51-6.59zm34.63 261.36l-8.85.35-1.57-20.56 8.85-.34 1.57 20.55zm78.81-75.59l-5.77 6.74-17.48-11.18 5.77-6.75 17.48 11.19z"/></g><path d="M219.43 333.35l5.29-8.46a.7.7 0 0 1 .89-.28l7.29 3.22a1.43 1.43 0 0 1 .59 2l-5.28 7.95c-1.43 2.29-3.75 7-5.73 10.13s-5.2 1.37-4.66-.12c2.42-6.69 1.72-9.9 1.29-12.93a2.31 2.31 0 0 1 .32-1.51zm-80.24 69.06l9.6-2.69a.7.7 0 0 1 .85.39l3.22 7.29a1.43 1.43 0 0 1-1 1.9l-9.25 2.32c-2.6.73-10.19 4.15-13.91 4.45s-4.2-3.37-2.68-3.82a21.13 21.13 0 0 0 11.84-8.92 2.32 2.32 0 0 1 1.33-.92z" class="B"/><g class="D"><path d="M137.91 382.38l.81 10.6 8.85-.35-.81-10.6-8.85.35zm71.75-66.58l-5.77 6.75 9.02 5.76 5.77-6.75-9.02-5.76z"/></g><use xlink:href="#C" class="C"/><use xlink:href="#C" class="D"/><path d="M137.57,203.12s-11.2,67.82-12.29,94.87c-1.13,28.14,11.53,92.14,11.53,92.14h12s-4.38-61.1-1.61-88.63c3-30,16.73-96.76,16.73-96.76Z" class="B"/><path d="M149.85 390.56h-14.08l-1.04-4.49 15.77-.55-.65 5.04z" class="C"/><path d="M152.05 221.06c-9.94 17.23-4.88 50.1-2.5 62.36 2.72-18 6.79-40 9.91-56.15-.78-9.27-2.83-14.16-7.41-6.21z" class="D"/><path d="M147.08 203.7s5 81.24 11.2 92.48C168.15 314 210 328.61 210 328.61l7.86-9.2-40-34.14c-3.29-22.47 8.34-57.93-4.23-79.93z" class="B"/><path d="M174.23 203.26l.72 3.28c.11.26-.2.49-.62.47l-37-2.29c-.33 0-.59-.2-.59-.4l-.13-3.24c0-.23.28-.4.64-.38l36.41 2.3a.67.67 0 0 1 .57.26z" class="C"/><path d="M169.08 207l1 .06c.19 0 .35-.08.34-.2l-.2-4.21c0-.13-.17-.24-.36-.25l-1-.06c-.19 0-.35.08-.34.2l.2 4.22c0 .15.17.24.36.24zM140 205.24l1 .06c.2 0 .35-.08.35-.2l-.2-4.22c0-.12-.17-.23-.37-.24l-1-.06c-.2 0-.35.08-.34.2l.19 4.21c.03.13.19.24.37.25zm14.55.9l1 .06c.19 0 .35-.08.34-.21l-.2-4.21c0-.12-.17-.23-.36-.25l-1-.06c-.19 0-.35.08-.34.21l.2 4.21c0 .11.17.23.36.25z" class="B"/><g class="C"><path d="M218.81 318.37l-9.76 11.42-4.62-1.85 10.87-13.95 3.51 4.38z"/><use xlink:href="#D"/></g><g fill="#fff"><use xlink:href="#D" opacity=".7"/><rect x="137.04" y="185.41" width="55.27" height="35.41" rx="1.86" transform="matrix(.977046 -.21303 .21303 .977046 -39.5 39.76)"/></g><path d="M182 156.57c1.75 4.4 3.27 8.77 4.66 13.25s2.66 9 3.68 13.62l.37 1.75.17.87.09.44.07.42a4.34 4.34 0 0 1 .07.55 5.81 5.81 0 0 1-.51 2.87 5.62 5.62 0 0 1-2.05 2.32 6.44 6.44 0 0 1-1.94.81 9.16 9.16 0 0 1-1.48.22 17.49 17.49 0 0 1-4.36-.34 37.66 37.66 0 0 1-3.66-.9 77.89 77.89 0 0 1-13.23-5.45l1.6-4.2c4.39 1 8.88 2.07 13.16 2.74a36.01 36.01 0 0 0 3.12.36 10 10 0 0 0 2.52-.05c.25 0 .38-.21-.14.06a2.46 2.46 0 0 0-.93 1.05 2.69 2.69 0 0 0-.26 1.18v.12c0 .04 0 .11 0 0l-.11-.4-.22-.81c-.15-.53-.28-1.07-.45-1.6-1.23-4.29-2.63-8.58-4.09-12.87l-4.56-12.77z" class="E"/><use xlink:href="#E" class="C"/><use xlink:href="#E" class="D"/><g class="C"><path d="M218 337.9h-.1a1.23 1.23 0 0 1-1.13-.3.69.69 0 0 1-.28-.67c.15-1.12 3.05-2.49 3.38-2.64a.2.2 0 0 1 .23 0 .2.2 0 0 1 .06.22c-.42 1.16-1.16 3-2.16 3.39zm1.59-3c-1.15.57-2.61 1.5-2.69 2.09a.31.31 0 0 0 .14.29.79.79 0 0 0 .74.21c.54-.12 1.22-1.08 1.76-2.55z"/><path d="M219.71 334.84c-1 .39-3.11.61-3.78 0a.74.74 0 0 1-.12-.91 1.07 1.07 0 0 1 .71-.6c1.24-.37 3.41 1 3.5 1a.21.21 0 0 1 .1.19.21.21 0 0 1-.11.18zm-3.13-1.11a.69.69 0 0 0-.39.36c-.11.25 0 .36 0 .43.45.42 2.21.33 3.23 0-.75-.41-2.07-1-2.81-.79zM136.4 404.8a3.33 3.33 0 0 1-2.22.05 1.18 1.18 0 0 1-.65-.88.71.71 0 0 1 .2-.64c.88-.86 4.78-.08 5.22 0a.19.19 0 0 1 .16.17.2.2 0 0 1-.11.22 15.24 15.24 0 0 1-2.6 1.08zm-2-1.34a.76.76 0 0 0-.36.18.24.24 0 0 0-.07.25.79.79 0 0 0 .41.59c.65.32 2.08 0 3.89-.84a11.45 11.45 0 0 0-3.89-.18z"/><path d="M139 403.75h-.08c-1.15-.18-3.69-1.45-3.8-2.47 0-.24.06-.57.6-.78a1.52 1.52 0 0 1 1.22 0c1.33.6 2.17 2.84 2.2 2.94a.18.18 0 0 1 0 .2.19.19 0 0 1-.14.11zm-3-2.89h-.12c-.36.14-.35.3-.34.35.07.6 1.84 1.67 3.06 2a4.9 4.9 0 0 0-1.83-2.33 1.09 1.09 0 0 0-.77-.02zm32.21-253.41a121.12 121.12 0 0 0-16.56 1.5l-6 1.25h0c-1.49 1.59-4.08 9.63-1.17 15.07 1.92-3.22 5.15-6 7.3-6.32 2.36.64 4.69 4.21 5.26 7.36 3.86-.7 12.21-9.73 17-17l1.22-1.88c-2.26-.07-4.62-.08-7.05.02z"/></g><g class="E"><path d="M167.7,129.63c-1.37,5.33-3,15,.5,18.18,0,0-3.3,5.37-11.68,6.34-9.22,1.08-4.87-4.84-4.87-4.84,6-1.93,6.14-6.25,5.36-10.23Z"/><path d="M151.65,149.31s-3.69,3.89-.18,11c7.42-3.45,14.53-7.54,16.73-12.48Z"/></g><path d="M163.34 133.48l-6.33 5.6a15.27 15.27 0 0 1 .33 2.84c2.29-.53 6.07-2.81 6.46-5.16a8.3 8.3 0 0 0-.46-3.28z" class="D"/><path d="M174.72 123.19c-3.14 8.23-4.3 11.78-9.88 14.76-8.41 4.49-17.83-1.17-17.21-10.17.56-8.11 5.6-20.21 14.86-21a12 12 0 0 1 12.23 16.41z" class="E"/><g class="B"><path d="M156 106.76c3.76-.87 5 3.42-1.58 4.93s-1.48-4.21 1.58-4.93z"/><path d="M159.93 104.49c-5.37 2-3 8.17 3.09 9.93s4.06 12.09 9.52 14.36 8.35-15.1 3.64-20-12.64-5.65-16.25-4.29z"/></g><path d="M154.91,120.79a19.13,19.13,0,0,1-3.8,3.6,3.1,3.1,0,0,0,2.29,1.22Z" fill="#ed847e"/><path d="M156.29 129.45a7.22 7.22 0 0 1-1-.24.21.21 0 0 1-.14-.26.23.23 0 0 1 .27-.14 5.67 5.67 0 0 0 5.07-.73.21.21 0 0 1 .3 0 .22.22 0 0 1 0 .3 5.88 5.88 0 0 1-4.5 1.07z" class="B"/><path d="M174.92 130.69a6.48 6.48 0 0 1-4.28 2.43c-2.24.26-3-1.83-2.1-3.76.83-1.74 3-4 5.1-3.34a2.89 2.89 0 0 1 1.28 4.67z" class="E"/><g class="B"><path d="M165.36 121a.43.43 0 0 1-.31-.38c-.12-1.95-2.25-3.28-2.27-3.29a.42.42 0 1 1 .44-.71c.11.06 2.52 1.57 2.66 3.94a.41.41 0 0 1-.39.45zm-4.6 1c-.23.62-.75 1-1.16.86s-.56-.78-.33-1.41.75-1 1.16-.86.57.77.33 1.41zm-7.76-2.74c-.23.62-.75 1-1.16.86s-.56-.78-.32-1.41.75-1 1.16-.86.56.78.32 1.41z"/><path d="M152.85 118l-1.34-1s.34 1.42 1.34 1zm7.75 2.68l-1.34-1s.34 1.47 1.34 1zm-9.37-6.68a.41.41 0 0 1-.36-.21.42.42 0 0 1 .16-.57 4.16 4.16 0 0 1 3.83-.26.42.42 0 0 1-.38.75h0a3.31 3.31 0 0 0-3 .24.34.34 0 0 1-.25.05z"/></g><g class="E"><path d="M166.65,183.22l-6.05-7.45-1.69,8.87s4.39,3.63,7.8,2.24Z"/><path d="M155.23 174.54l-2.92 7.06 6.6 3.04 1.69-8.87-5.37-1.23z"/></g><path d="M409.001 239.443l.946-.091 1.23 12.801-.946.091zm1.678 17.256l.946-.091.497 5.166-.946.091zm6.1 88.348l-233.424 22.435-13.356-138.96 233.424-22.435z" class="C"/><path d="M416.779 345.047l-233.424 22.435-13.356-138.96 233.424-22.435z" opacity=".1"/><path d="M294 293.1l-124-64.58 233.42-22.44L294 293.1z" opacity=".1" class="B"/><path d="M265.75 152.38L170 228.52l233.42-22.44-108.5-56.5a26.9 26.9 0 0 0-29.17 2.8z" class="C"/><path d="M394.75,206.92,291.66,153.23a20.28,20.28,0,0,0-22,2.11l-91,72.34Z" class="B D"/><path d="M351.64 205.21l31.59 8.44.76 7.88L294 293.1l-101.98-53.11-1.52-15.76 161.14-19.02z" fill="#fff"/><path d="M351.64 205.21l5.97 16.54 25.62-8.1" fill="#e0e0e0"/><path d="M351.64 205.21l3.07 13.64 28.52-5.2" class="F"/><path d="M312.65 278.24l104.13 66.81-233.42 22.43 89.49-85.42a32.35 32.35 0 0 1 39.8-3.82z" class="C"/><defs ><path id="B" d="M140.2 152.21c-3.67-.9-13 11.18-13 11.18l5.67 10.79s15.67-8.85 15.08-13.72c-.62-5.08-2.4-6.94-7.75-8.25z"/><path id="C" d="M135.57 155.9c-.86 5-1.68 17.7 2 47.22l36 2.22c.28-13.8 1-24.92 8.47-51.59a4.58 4.58 0 0 0-4.12-5.82c-2.74-.16-6.19-.27-9.71-.12a121.26 121.26 0 0 0-16.55 1.5c-4.67.84-9.78 2.14-12.75 2.93a4.57 4.57 0 0 0-3.34 3.66z"/><path id="D" d="M140.05 183.05a5.09 5.09 0 0 0-4 4.84 3.86 3.86 0 0 0-.39-.65 4.23 4.23 0 0 0-.64-.76 5.2 5.2 0 0 0-.79-.63 4.64 4.64 0 0 0-.89-.45 4.57 4.57 0 0 0-1-.27 4.8 4.8 0 0 0-1-.09 6.51 6.51 0 0 0-1 .12 5 5 0 0 0-1.83.8 4.68 4.68 0 0 0-.76.64 5.82 5.82 0 0 0-.62.79 4.77 4.77 0 0 0-.46.9 6.2 6.2 0 0 0-.27 1 5.43 5.43 0 0 0-.07 1 4.69 4.69 0 0 0 .42 1.95 5.45 5.45 0 0 0 .49.88 4.61 4.61 0 0 0 .64.75 4.75 4.75 0 0 0 .79.63 4.64 4.64 0 0 0 .89.45 5.26 5.26 0 0 0 1 .27 6.34 6.34 0 0 0 .75.07 5.09 5.09 0 0 0 2 9.65 5.11 5.11 0 0 0 2.09 9.66 5.09 5.09 0 0 0 2.19 9.62 5.1 5.1 0 0 0-2.72 3.66 4.73 4.73 0 0 0-.08 1 4.81 4.81 0 0 0 .42 2 5 5 0 0 0 .49.87 4.74 4.74 0 0 0 .65.76 5.31 5.31 0 0 0 .78.64 5.15 5.15 0 0 0 3.85.68 4.79 4.79 0 0 0 1-.31 5.66 5.66 0 0 0 .87-.48 5.31 5.31 0 0 0 .76-.65 4.58 4.58 0 0 0 .62-.79 4.77 4.77 0 0 0 .46-.9 5.16 5.16 0 0 0 .27-1 4.9 4.9 0 0 0 .08-.76 5.1 5.1 0 0 0 9.67-2.07 5.1 5.1 0 0 0 9.66-2.11 5.11 5.11 0 0 0 9.67-2.11 5.11 5.11 0 0 0 9.67-2.11 5.09 5.09 0 0 0 9.65-2.14 3.86 3.86 0 0 0 .39.65 4.23 4.23 0 0 0 .64.76 5.39 5.39 0 0 0 .79.64 5 5 0 0 0 .89.45 5.26 5.26 0 0 0 1 .27 4.82 4.82 0 0 0 1 .08 4.69 4.69 0 0 0 1-.11 5.75 5.75 0 0 0 1.83-.8 5.92 5.92 0 0 0 .76-.65 5.82 5.82 0 0 0 .62-.79 4.21 4.21 0 0 0 .45-.9 5.18 5.18 0 0 0 .28-.95 5.62 5.62 0 0 0 .08-1 5.5 5.5 0 0 0-.42-2 5.43 5.43 0 0 0-.5-.87 4.68 4.68 0 0 0-.64-.76 6.06 6.06 0 0 0-.79-.63 5 5 0 0 0-.89-.45 5.26 5.26 0 0 0-1-.27 6.17 6.17 0 0 0-.74-.07 5.09 5.09 0 0 0-2-9.65 5.11 5.11 0 0 0-2.1-9.65 5.1 5.1 0 0 0-2.18-9.63 6 6 0 0 0 .65-.37 5.45 5.45 0 0 0 1.39-1.43 5 5 0 0 0 .45-.89 4.74 4.74 0 0 0 .27-1 5.72 5.72 0 0 0 .09-1 5.58 5.58 0 0 0-.12-1 5.12 5.12 0 0 0-6.08-3.9 5.55 5.55 0 0 0-.95.31 5.06 5.06 0 0 0-.88.49 5.15 5.15 0 0 0-.76.64 6.73 6.73 0 0 0-.62.79 4.73 4.73 0 0 0-.45.9 4.57 4.57 0 0 0-.27 1 4.66 4.66 0 0 0-.08.76 5.1 5.1 0 0 0-9.68 2 5.11 5.11 0 0 0-9.66 2.11 5.11 5.11 0 0 0-9.67 2.11 5.11 5.11 0 0 0-9.66 2.11 5.11 5.11 0 0 0-5.75-2.65z"/><path id="E" d="M180.77 148.35c3.53 1.32 7.1 14 7.1 14l-14.61 9.13s-4.64-12.24-2.84-16.8c1.88-4.76 6.31-7.84 10.35-6.33z"/></defs></svg>