<svg xmlns="http://www.w3.org/2000/svg" xmlns:xlink="http://www.w3.org/1999/xlink" viewBox="0 0 750 500" xmlns:v="https://vecta.io/nano"><style><![CDATA[.B{fill:#ff725e}.C{opacity:.2}.D{fill:#455a64}.E{fill:#263238}]]></style><path d="M421.32 96.12a60.61 60.61 0 0 0-53.94 2.3c-17.26 9.71-29 27.57-46.75 36.35-20.14 10-43.92 6.5-66.39 6.9s-48.38 7.74-56.65 28.63c-7 17.65 1.54 38.33-4.43 56.35-5 14.93-18.67 24.84-29.26 36.48-17.56 19.32-27.36 46.31-23.19 72.08s23.46 49.27 48.79 55.61c27.53 6.88 57.88-5.94 84.43 4.07 17.87 6.75 30.54 22.62 46.69 32.81 27.18 17.14 64.69 16.08 90.86-2.57 13.38-9.53 23.72-23 37.64-31.72 36-22.62 86.19-8.44 122.77-30.16C601 346 613.9 306 600.45 274.94c-9.86-22.72-31.18-39.16-40-62.29-7.45-19.42-5.18-41-7.48-61.69s-11.89-43.4-31.74-49.59c-13.1-4.08-27.11.15-40.71 1.93-21.33 2.79-39.71 2-59.16-7.18M108.48 39.81c-16.87 5.53-34.86 19-38.74 36.36s.76 36.05 11 50.54c7.84 11.07 20.42 20.32 33.89 18.78 10-1.16 18.48-8 28.17-10.83 8.93-2.62 18.59-1.76 27.52-4.37 18.71-5.46 30.43-26.56 27.87-45.89s-17.43-35.73-35.49-43.06-38.72-6.43-57.32-.62" fill="#e0e0e0"/><path d="M622.33 383.13c-13.93-2.76-29.07 3.13-37.92 14.24s-11.28 26.83-6.75 40.29 15.7 24.37 29.06 29.16c9.77 3.5 21.23 3.69 30-1.82 7.56-4.73 12.26-13 14.82-21.59 3.93-13.09 3.34-27.84-3.26-39.81s-17.13-21.43-30.8-21.15m46.45-104.84l.48.87a5.73 5.73 0 0 0 2.33 2.3l.87.48-.87.47a5.7 5.7 0 0 0-2.33 2.31l-.48.86-.48-.86a5.82 5.82 0 0 0-2.33-2.31l-.87-.47.87-.48a5.86 5.86 0 0 0 2.33-2.3zm-555.24 42.45l.47.86a5.82 5.82 0 0 0 2.33 2.31l.88.47-.88.48a5.86 5.86 0 0 0-2.33 2.3l-.47.87-.48-.87a5.86 5.86 0 0 0-2.33-2.3l-.88-.48.88-.47a5.82 5.82 0 0 0 2.33-2.31zM683 375.46l.81 1.5a10 10 0 0 0 4 4l1.5.82-1.5.81a10 10 0 0 0-4 4l-.81 1.5-.82-1.5a10 10 0 0 0-4-4l-1.5-.81 1.5-.82a10 10 0 0 0 4-4zM88.05 416.14l.82 1.5a10 10 0 0 0 4 4l1.5.82-1.5.82a10 10 0 0 0-4 4l-.82 1.49-.81-1.49a10 10 0 0 0-4-4l-1.5-.82 1.5-.82a10 10 0 0 0 4-4zM316.89 74.72l.82 1.5a10 10 0 0 0 4 4l1.5.82-1.5.82a10 10 0 0 0-4 4l-.82 1.49-.82-1.49a10 10 0 0 0-4-4L310.6 81l1.49-.82a10 10 0 0 0 4-4z" fill="#ebebeb"/><path d="M531.07,208.8l.81,1.5a10,10,0,0,0,4,4l1.5.82-1.5.81a10,10,0,0,0-4,4l-.81,1.5-.82-1.5a10,10,0,0,0-4-4l-1.5-.81,1.5-.82a10,10,0,0,0,4-4Z" fill="#fafafa"/><path d="M232.25,290.45c-.93,3.74,47.06,43.41,160.78,35.25,97.72-7,145.58-51.75,145.58-51.75Z" class="B"/><path d="M232.25,290.45c-.93,3.74,47.06,43.41,160.78,35.25,97.72-7,145.58-51.75,145.58-51.75Z" class="C"/><ellipse cx="384.57" cy="281.02" rx="153.85" ry="20.48" transform="matrix(.998865 -.047629 .047629 .998865 -12.95 18.63)" class="B"/><path d="M314.2 275.78s-4.48-69.51 64.44-78.32 75.06 64.22 75.06 64.22-44.61 34-139.5 14.1z" fill="#f5f5f5"/><path d="M349.75 214c.23.33-2.16 2.18-5.65 5.5l-2.77 2.78-3 3.34a74 74 0 0 0-11 17.32l-1.73 4.15-1.34 3.7c-1.52 4.56-2.17 7.51-2.57 7.45s-.3-3.11.8-8l1.07-3.91 1.57-4.39a59.8 59.8 0 0 1 11.39-18l3.3-3.29a39.86 39.86 0 0 1 3.08-2.63c3.9-3.02 6.69-4.31 6.85-4.02zm176.9 58.59a2.81 2.81 0 0 1-.42.52 12.18 12.18 0 0 1-1.43 1.28 25.29 25.29 0 0 1-6.24 3.25A161.14 161.14 0 0 1 473.48 288l-7 .38h-1.91a4.92 4.92 0 0 1-.67 0 2.75 2.75 0 0 1 .67-.08l1.9-.13 7-.55a175.93 175.93 0 0 0 45-10.36 27.07 27.07 0 0 0 6.26-3.07 24.19 24.19 0 0 0 1.92-1.6z" fill="#fff"/><path d="M366.37 327a4.7 4.7 0 0 1-.94-.58 21.87 21.87 0 0 1-2.37-1.87 28.72 28.72 0 0 1-3.12-3.23 32.52 32.52 0 0 1-3.13-4.52 33.65 33.65 0 0 1-2.29-5 30.5 30.5 0 0 1-1.18-4.33 23.51 23.51 0 0 1-.4-3 5 5 0 0 1 0-1.11c.1 0 .21 1.56.77 4a34.27 34.27 0 0 0 1.27 4.24 38.64 38.64 0 0 0 2.29 4.91 37.07 37.07 0 0 0 3.05 4.47 33.34 33.34 0 0 0 3 3.26l3.05 2.76zm-4.72-15.88c0 .07-.25.19-.33.56a.64.64 0 0 0 .09.57.6.6 0 0 0 1-.28.67.67 0 0 0-.21-.54c-.27-.28-.56-.23-.58-.31s.32-.29.81 0a1 1 0 0 1 .46.85 1 1 0 0 1-.77.93 1 1 0 0 1-1.18-1.37c.29-.53.73-.48.71-.41zm4.48 8.01c0 .07-.24.18-.33.56a.68.68 0 0 0 .09.57.54.54 0 0 0 .6.16.54.54 0 0 0 .43-.45.67.67 0 0 0-.21-.53c-.27-.28-.56-.24-.58-.31s.32-.29.81 0a1 1 0 0 1 .46.85 1 1 0 1 1-1.95-.44c.26-.54.7-.48.68-.41zm-134.88-31.46a4.46 4.46 0 0 1 .81-.27l2.36-.67 8.73-2.23c7.39-1.78 17.7-3.9 29.2-5.55s22-2.46 29.6-2.82c3.8-.18 6.88-.27 9-.28h2.45a4.78 4.78 0 0 1 .86 0 5.67 5.67 0 0 1-.85.08l-2.45.11-9 .45a359.54 359.54 0 0 0-29.55 3c-11.49 1.66-21.78 3.7-29.19 5.39l-8.76 2.07-2.38.58a5.31 5.31 0 0 1-.83.14zm223.52 7.83a8.57 8.57 0 0 1-1.28-.78l-3.41-2.26a302.39 302.39 0 0 0-11.41-7.2c-4.52-2.71-8.69-5-11.73-6.66l-3.6-1.94a9.3 9.3 0 0 1-1.3-.76 8.91 8.91 0 0 1 1.39.58c.88.4 2.14 1 3.68 1.79a194.7 194.7 0 0 1 11.83 6.54c4.53 2.71 8.52 5.36 11.35 7.34l3.32 2.4a8.56 8.56 0 0 1 1.16.95zm-28.02-13.12c.06.06-.24.31-.22.83a1.06 1.06 0 0 0 .32.74.94.94 0 0 0 1.45-.64 1 1 0 0 0-.33-.74c-.37-.36-.75-.31-.76-.39s.41-.29 1 .1a1.36 1.36 0 0 1 .58 1 1.31 1.31 0 0 1-.82 1.21 1.29 1.29 0 0 1-1.43-.21 1.32 1.32 0 0 1-.37-1.11c.09-.68.57-.85.58-.79zm-129.4-3.87c0 .06-.24.31-.22.82a1 1 0 0 0 .32.74.93.93 0 0 0 1.45-.64 1 1 0 0 0-.33-.73c-.37-.37-.75-.31-.76-.39s.41-.29 1 .1a1.34 1.34 0 0 1 .58 1 1.29 1.29 0 0 1-.82 1.2 1.3 1.3 0 0 1-1.44-.21 1.34 1.34 0 0 1-.36-1.11c.09-.67.57-.85.58-.78zm-23.87 3.01c0 .06-.24.3-.23.82a1.05 1.05 0 0 0 .33.74.86.86 0 0 0 .9.09.85.85 0 0 0 .54-.73 1 1 0 0 0-.32-.74c-.37-.36-.75-.31-.76-.39s.41-.28 1 .11a1.31 1.31 0 0 1 .57 1 1.26 1.26 0 0 1-.81 1.2 1.3 1.3 0 0 1-1.44-.21 1.34 1.34 0 0 1-.36-1.11c.1-.67.57-.85.58-.78zm-27.22 4.2c.05.06-.25.31-.23.83a1 1 0 0 0 .33.74.84.84 0 0 0 .9.08.83.83 0 0 0 .54-.72 1.06 1.06 0 0 0-.32-.74c-.37-.36-.76-.31-.76-.39s.41-.29 1 .11a1.32 1.32 0 0 1 .57 1 1.29 1.29 0 0 1-.81 1.2 1.3 1.3 0 0 1-1.44-.21 1.39 1.39 0 0 1-.37-1.11c.1-.68.58-.85.59-.79zm191.39 4.02c.06.06-.24.31-.22.82a1 1 0 0 0 .32.74.84.84 0 0 0 .9.09.86.86 0 0 0 .55-.73 1 1 0 0 0-.33-.73c-.37-.37-.75-.31-.76-.39s.41-.29 1 .1a1.34 1.34 0 0 1 .58 1 1.32 1.32 0 1 1-2.62-.12c.09-.67.57-.85.58-.78z" class="E"/><path d="M389.32 205.29a21 21 0 0 0-27.33 16l-.09.55a18 18 0 0 0 0 6.09 29.74 29.74 0 0 0 4 10.58c5.73 9.29 8.8 9.59 9.36 14.89s1.36 6.43-1.35 8.69c0 0-3.72.23-5.75 1.47s-3.73 2.14-3.95 8.35l-.49 10a167.31 167.31 0 0 0 32.44-1.25L394.8 265a4.25 4.25 0 0 0-3.16-2.93c-2.48-.45-6.31-.34-6.54-1.69s.34-1.81.34-1.81 4.51 1.81 7.44.45 6.21-3.15 6.77-5.41 2.33-9.93 2-10.27 4.41-4.17 4.61-13-5.66-20.54-13.45-23.81q-1.81-.68-3.49-1.24z" class="D"/><path d="M374.91 225.24s16.76-5.09 14.26 14.29c0 0-17.92 2.25-14.26-14.29zm21.48 13.87s-7.06-16.84 5.32-15.16c0 .05 6.72 12.19-5.32 15.16z" class="E"/><g class="D"><path d="M419.05 260.24s-3 1-3.74 1.82-1.86 3.8-3.09 4.16a6.29 6.29 0 0 1-3.11-.29s-.65-3.62-2-5.23-1.69-1.23-1.69-1.23-3.39-.08-3.21-2c0 0 1.41-1.65 3.8.65a2 2 0 0 0 2.61.16c1.34-1.09 1.54-3.77 1.4-5.56 0 0-1.35-3.13.76-3.76 0 0 1.77.13.8 3.79 0 0-1.55 3.89.59 5.43 0 0 1.74.76 3.7-2.62l.65-1.24s.11-2.68 2.44-2.75a.57.57 0 0 1 .58.46 2.62 2.62 0 0 1-1.81 3s-2.67 2-2.32 4.31c0 0 .81.87 2.82-.05l.77-.29s2.53-2.16 2.9-1.17c.38 1.22-1.06 2.5-2.85 2.41z"/><path d="M409.1 265.41l-3.27 13.92 2.83-.45 2.92-.58 1.69-12.93-4.17.04z"/></g><g class="C"><path d="M372.84,210.34a2.69,2.69,0,0,0-2.63,2.11,2.81,2.81,0,0,0,1.72,3,2.78,2.78,0,0,0,3.26-1.18,2.73,2.73,0,0,0-.67-3.39,2.68,2.68,0,0,0-2.22-.48" fill="#fff"/></g><path d="M377.54 229.13a1.12 1.12 0 0 0-1.17.77 1.12 1.12 0 0 0 2 .95 1.13 1.13 0 0 0-.15-1.43 1.1 1.1 0 0 0-.9-.28m.68 4.11a.56.56 0 0 0-.59.39.58.58 0 0 0 .31.66.56.56 0 0 0 .7-.18.55.55 0 0 0-.53-.87" class="D"/><g class="C"><path d="M368.84,216.56a1.06,1.06,0,1,0,.74,0" fill="#fff"/></g><g class="E"><path d="M384.16 241.37a2 2 0 0 1-.79 0 9.51 9.51 0 0 1-2.14-.32 11.62 11.62 0 0 1-8.73-10.31 10.46 10.46 0 0 1 0-2.17 2 2 0 0 1 .18-.77c.1 0-.09 1.12.15 2.89a12 12 0 0 0 8.46 10c1.71.58 2.88.59 2.87.68zm5.04-12.45a16.92 16.92 0 0 0-4.51-4.08 17.22 17.22 0 0 0-5.81-1.78 4.35 4.35 0 0 1 1.84-.06 11.26 11.26 0 0 1 7.59 4.31 4.14 4.14 0 0 1 .89 1.61zm5.12 2.08a4.41 4.41 0 0 1-.28-1.53 9.42 9.42 0 0 1 .33-3.76 4.91 4.91 0 0 1 2.44-2.89 2 2 0 0 1 1.55-.25 13 13 0 0 0-1.38.57 5.14 5.14 0 0 0-2.12 2.74 11.46 11.46 0 0 0-.45 3.58 4.71 4.71 0 0 1-.09 1.54zm8.01 6.27a4 4 0 0 1-2.29 2.34 4 4 0 0 1-3.25.38 15 15 0 0 0 3-.84 14.85 14.85 0 0 0 2.54-1.88zm-9.68 9.73c0 .06-.2.27-.68.39a2.47 2.47 0 0 1-3-1.85c-.1-.49 0-.78.06-.78s.12.28.29.66a2.75 2.75 0 0 0 1 1.22 2.82 2.82 0 0 0 1.54.39c.49-.03.76-.11.79-.03zm-2.92 12.21a4.18 4.18 0 0 1-1.8.06 10.61 10.61 0 0 1-7.33-4.36 3.89 3.89 0 0 1-.8-1.61 13.88 13.88 0 0 1 1.1 1.39 12.18 12.18 0 0 0 7.1 4.21 13 13 0 0 1 1.73.31zm-19.12 22.85a44.34 44.34 0 0 1 0-9.59 44.35 44.35 0 0 1 0 9.59zm10.29-3.71a9.52 9.52 0 0 1-4.45.57 4.85 4.85 0 0 1-3.1-.93c-.66-.61-.65-1.23-.59-1.22s.21.49.82.93a5.25 5.25 0 0 0 2.89.7c2.43.13 4.4-.2 4.43-.05zm9.79 2.91a16.61 16.61 0 0 1-.61-4 16.1 16.1 0 0 1-.1-4.06 31 31 0 0 1 .71 8.07z"/><path d="M390.2 274.8a3.92 3.92 0 0 1-4.47 2.63 16.39 16.39 0 0 0 2.47-.92c1.25-.72 1.86-1.79 2-1.71z"/></g><g class="D"><path d="M400.08 204.24a16 16 0 0 0-3.16 1.88 15.65 15.65 0 0 0-2.25 2.91c-.06 0 0-.46.28-1.1a6.61 6.61 0 0 1 4-3.55c.68-.2 1.12-.2 1.13-.14z"/><path d="M401.3 203.17a1.37 1.37 0 0 0-1.79.53 1.21 1.21 0 0 0 1.47 1.71 1.35 1.35 0 0 0 .62-2.06.78.78 0 0 0-.73-.33m-5.38-.6a15.36 15.36 0 0 0-3.16 1.87 15.65 15.65 0 0 0-2.25 2.91c-.06 0 0-.45.27-1.1a6.66 6.66 0 0 1 1.64-2.2 6.58 6.58 0 0 1 2.38-1.35c.63-.2 1.11-.19 1.12-.13z"/><path d="M396.71,201.34a1.37,1.37,0,0,0-1.79.54,1.2,1.2,0,0,0,1.47,1.7,1.34,1.34,0,0,0,.62-2.05.75.75,0,0,0-.73-.33"/></g><path d="M266.89,217.1l.48.87a6,6,0,0,0,2.33,2.31l.87.47-.87.48a5.86,5.86,0,0,0-2.33,2.3l-.48.87-.48-.87a5.77,5.77,0,0,0-2.32-2.3l-.88-.48.88-.47a5.86,5.86,0,0,0,2.32-2.31Z" fill="#fafafa"/><path d="M342 356.57l.48.87a5.77 5.77 0 0 0 2.32 2.3l.88.48-.88.47a5.73 5.73 0 0 0-2.3 2.31l-.48.86-.48-.86a5.82 5.82 0 0 0-2.33-2.31l-.87-.47.87-.48a5.86 5.86 0 0 0 2.33-2.3zm-149.12 87.27l.48.87a5.86 5.86 0 0 0 2.33 2.3l.88.48-.88.47a5.82 5.82 0 0 0-2.33 2.31l-.48.86-.48-.86a5.73 5.73 0 0 0-2.32-2.31l-.88-.47.88-.48a5.77 5.77 0 0 0 2.32-2.3z" fill="#ebebeb"/><path d="M514.75 57.11l.48.87a5.87 5.87 0 0 0 2.3 2.31l.87.47-.87.47a5.87 5.87 0 0 0-2.3 2.31l-.48.87-.47-.87a5.83 5.83 0 0 0-2.28-2.31l-.86-.47.86-.47a5.83 5.83 0 0 0 2.28-2.29zM382.24 395.08l.48.87a5.78 5.78 0 0 0 2.3 2.3l.87.48-.87.47a5.75 5.75 0 0 0-2.3 2.31l-.48.86-.47-.86a5.71 5.71 0 0 0-2.31-2.31l-.87-.47.87-.48a5.75 5.75 0 0 0 2.31-2.3zM105.45 112.39l.48.87a5.83 5.83 0 0 0 2.31 2.31l.86.47-.86.47a5.83 5.83 0 0 0-2.31 2.31l-.48.87-.47-.87a5.83 5.83 0 0 0-2.31-2.31l-.86-.47.86-.47a5.83 5.83 0 0 0 2.31-2.31zm454.84 309.84l.48.87a5.87 5.87 0 0 0 2.3 2.31l.87.47-.87.48a5.78 5.78 0 0 0-2.3 2.3l-.48.87-.47-.87a5.75 5.75 0 0 0-2.31-2.3l-.86-.48.86-.47a5.83 5.83 0 0 0 2.31-2.31zM510 329.91l.47.87a5.87 5.87 0 0 0 2.31 2.3l.87.48-.87.47a5.83 5.83 0 0 0-2.31 2.31l-.47.87-.48-.87a5.75 5.75 0 0 0-2.3-2.31l-.87-.47.87-.48a5.78 5.78 0 0 0 2.3-2.3zm-320.8-55.27l.48.87a5.87 5.87 0 0 0 2.3 2.31l.87.47-.87.47a5.87 5.87 0 0 0-2.3 2.31l-.48.87-.47-.87a6 6 0 0 0-2.31-2.31l-.87-.47.87-.47a6 6 0 0 0 2.31-2.31zm426.15-23.16l.24.43a2.89 2.89 0 0 0 1.15 1.15l.44.24-.44.24a2.89 2.89 0 0 0-1.15 1.15l-.24.44-.23-.44a2.85 2.85 0 0 0-1.16-1.15l-.43-.24.43-.24a2.85 2.85 0 0 0 1.16-1.15zM276.71 354.75l.22.44a2.83 2.83 0 0 0 1.11 1.19l.42.26-.44.22a2.89 2.89 0 0 0-1.19 1.11l-.26.42-.22-.44a2.85 2.85 0 0 0-1.11-1.2l-.42-.25.44-.22a2.92 2.92 0 0 0 1.2-1.11zM578.3 142.11l.24.43a2.77 2.77 0 0 0 1.15 1.15l.43.24-.43.24a2.77 2.77 0 0 0-1.15 1.15l-.24.43-.24-.43a2.77 2.77 0 0 0-1.15-1.15l-.43-.24.43-.24a2.77 2.77 0 0 0 1.15-1.15zM285 154.31l.24.44a3 3 0 0 0 1.15 1.15l.44.24-.44.23a3 3 0 0 0-1.15 1.16l-.24.47-.23-.43a2.94 2.94 0 0 0-1.16-1.16l-.43-.23.43-.24a3 3 0 0 0 1.16-1.15zM156.87 74.17l.23.44a3 3 0 0 0 1.16 1.15l.43.24-.43.23a2.94 2.94 0 0 0-1.16 1.16l-.23.43-.24-.43a3 3 0 0 0-1.15-1.16L155 76l.44-.24a3 3 0 0 0 1.15-1.15zm247.77 31.93l.81 1.49a10 10 0 0 0 4 4l1.5.82-1.5.82a10 10 0 0 0-4 4l-.81 1.5-.82-1.5a10 10 0 0 0-4-4l-1.5-.82 1.5-.82a10 10 0 0 0 4-4zM654 339.85l.82 1.5a10 10 0 0 0 4 4l1.49.82-1.49.82a10 10 0 0 0-4 4l-.82 1.49-.8-1.48a10 10 0 0 0-4-4l-1.5-.82 1.5-.82a10 10 0 0 0 4-4zm-506.65 56.23l.81 1.5a10 10 0 0 0 4 4l1.5.81-1.5.82a10 10 0 0 0-4 4l-.81 1.5-.82-1.5a10 10 0 0 0-4-4l-1.5-.82 1.5-.81a10 10 0 0 0 4-4z" class="D"/><use xlink:href="#B" class="B"/><g class="C"><use xlink:href="#B" fill="#fff"/></g><circle cx="653.42" cy="145.32" r="47.45" transform="matrix(.999372 -.035423 .035423 .999372 -4.74 23.25)" class="B"/><path d="M639.43 153.17a7.74 7.74 0 1 1-1.32-10.86 7.74 7.74 0 0 1 1.32 10.86zm5.14-24.35a4.5 4.5 0 1 1-.77-6.32 4.5 4.5 0 0 1 .77 6.32z" opacity=".4"/><circle cx="266.99" cy="447.49" r="21.5" transform="matrix(.999071 -.043096 .043096 .999071 -19.07 11.95)" class="B"/><path d="M257.89 441.64a3.51 3.51 0 1 1 3.1-3.87 3.51 3.51 0 0 1-3.1 3.87zm7.18-8.04a2 2 0 1 1 1.81-2.25 2 2 0 0 1-1.81 2.25zm6.58 1.88a.75.75 0 1 1 .83.66.74.74 0 0 1-.83-.66z" class="C"/><circle cx="99.37" cy="226.96" r="41.67" class="B"/><g fill="#fff"><path d="M85.18 241.56a6.8 6.8 0 1 1-6.79-6.8 6.79 6.79 0 0 1 6.79 6.8zm-9.64-19.62a4 4 0 1 1-4-3.95 4 4 0 0 1 4 3.95z" class="C"/></g><use xlink:href="#C" class="B"/><use xlink:href="#C" opacity=".4"/><circle cx="495.71" cy="185.29" r="14.36" transform="matrix(.691135 -.722726 .722726 .691135 19.19 415.48)" class="D"/><path d="M500.39 179.79a2.34 2.34 0 1 1 2.29 2.4 2.34 2.34 0 0 1-2.29-2.4zm4.68 5.47a1.37 1.37 0 1 1 1.33 1.39 1.37 1.37 0 0 1-1.33-1.39zm-1.82 4.18a.51.51 0 0 1 0 1 .51.51 0 0 1-.49-.52.52.52 0 0 1 .49-.48z" class="E"/><defs ><path id="B" d="M644.28,92.83c-5.58-3.24-12.79-.37-17.81,3.7s-9.24,9.38-15.2,11.87c-3.8,1.59-8.14,2-11.5,4.33-5.48,3.86-6.44,11.64-5.49,18.27s3.27,13.22,2.46,19.87c-.61,4.87-2.89,9.75-1.65,14.51,1.73,6.66,9.39,9.83,13.12,15.62,2.68,4.15,3.41,9.75,7.41,12.66,4.63,3.38,11.07,1.41,16.78,1.93,7,.63,13.05,5.14,19.74,7.41a32.4,32.4,0,0,0,31.55-6.58c4.25-3.87,7.37-8.81,11.55-12.75,3.57-3.37,7.9-6,10.83-9.95s4.1-8.55,5.31-13.15c1.77-6.72,3.55-13.71,2.26-20.54-2.07-10.9-11.36-18.83-16.2-28.81-1.89-3.89-3.27-8.34-6.77-10.88-3.71-2.7-8.73-2.47-13.07-3.94-6.23-2.1-10.94-7.66-17.31-9.29a15.57,15.57,0,0,0-16,5.73"/><path id="C" d="M59 237.1c.18.72-35.67 35.12-26.43 42.44s48.12-11.47 81.26-38.23 63.36-59.31 55.07-67.87-49.69 16.87-49.69 16.87l5 3.15s25-16.06 33-9.83-14.65 30.59-46.52 53.85-62.75 39.59-67.53 33.22 17.77-27.63 17.77-27.63z"/></defs></svg>