<svg xmlns="http://www.w3.org/2000/svg" xmlns:xlink="http://www.w3.org/1999/xlink" viewBox="0 0 500 500" xmlns:v="https://vecta.io/nano"><style><![CDATA[.B{fill:#407bff}.C{fill:#ffc3bd}.D{fill:#263238}]]></style><use xlink:href="#B" class="B"/><use xlink:href="#B" fill="#fff" opacity=".9"/><ellipse cx="250" cy="416.24" rx="193.89" ry="11.32" fill="#f5f5f5"/><path d="M253.91 405.42l-8.35.94-3.08-18.94 8.35-.94 3.08 18.94zm37.38 1.82h-8.34l-2.07-19.31h8.34l2.07 19.31z" class="C"/><path d="M282.27 406.27h10.16a.73.73 0 0 1 .71.57l1.65 7.41a1.22 1.22 0 0 1-1.22 1.48l-9.78-.24c-2.53 0-10.17.26-13.67.26s-4-3.46-2.52-3.77c6.42-1.41 11.26-3.35 13.32-5.2a2 2 0 0 1 1.35-.51zm-36.84-1.34l9-1a.72.72 0 0 1 .77.49l2.47 7.17a1.21 1.21 0 0 1-1 1.61l-12.11 1.13c-4.8.54-5.6 1.83-11.25 1.69-3.43-.08-4.3-3.56-2.86-3.84 6.56-1.27 7.82-2.26 13-6.35a3.82 3.82 0 0 1 1.98-.9z" class="D"/><path d="M252.79 162.25c-2.8 2.31-5.56 4.32-8.41 6.38a134.47 134.47 0 0 1-8.76 5.83c-3 1.83-6.07 3.62-9.3 5.23a67.3 67.3 0 0 1-10.26 4.31 42.59 42.59 0 0 1-2.89.79 27.87 27.87 0 0 1-3.11.5c-1.88.21-3.64.29-5.4.38-3.51.16-7 .15-10.4.13a276.83 276.83 0 0 1-20.56-1l-.1-6.26 20.18-2.36 9.93-1.2c1.63-.22 3.24-.48 4.72-.76a19.16 19.16 0 0 0 1.9-.44c.58-.2 1.3-.43 2-.7a68.21 68.21 0 0 0 8.31-4.06c2.77-1.59 5.53-3.3 8.25-5.11s5.43-3.69 8.12-5.6 5.36-3.94 7.88-5.86z" class="C"/><path d="M260.94 155.13c-1.2 7.88-17.79 19.93-17.79 19.93l-11.91-14.77a197.7 197.7 0 0 1 16.57-15.76c5.35-4.38 14.43 2.02 13.13 10.6z" class="B"/><g class="C"><path d="M175.9,179.18l-4.73-3.37-.52,10.65s2.62,0,3.63-1.92Z"/><path d="M166.89 172.71l-.97 10.43 4.73 3.32.52-10.65-4.28-3.1z"/></g><path d="M242.49 387.43l1.58 9.76 8.35-.94-1.58-9.76-8.35.94zm46.73.5h-8.34l1.07 9.96h8.34l-1.07-9.96z" opacity=".2"/><path d="M289.34 144.78a4.76 4.76 0 0 1 3.58 5.81 195.86 195.86 0 0 0-4.08 22.79c-.79 6.46-1.26 12.63-1.55 18.22-.7 13.1-.41 23.09-.8 26.48L242 215c-4.52-35.4.77-58 3.75-67.17a7.94 7.94 0 0 1 6.5-5.44 88.25 88.25 0 0 1 5.91-.57c.75 0 1.52-.07 2.29-.09a165.41 165.41 0 0 1 18.93 1.27c1.19.14 2.39.32 3.56.5a147.33 147.33 0 0 1 6.4 1.28z" class="D"/><path d="M279,121.61c-1.62,6-3.59,17.06.38,21.42-10.31,6.94-16.89,16.7-18.79,14.58-1-1.11-1.42-14-.12-15.9,6.9-1.15,7.08-6.19,6.23-11Z" class="C"/><g class="B"><path d="M278.58,140.54s-16.81,7.44-19,24.06c4.62-5.36,14.85-11.19,14.85-11.19l-4.51-1.29a46.07,46.07,0,0,1,8.86-2.39c-.5-2.3,2.17-6.88,2.17-6.88Z"/><path d="M263.42,140.27s2.23,9.5-3.87,24.33c-.95-5.66-4.94-15.13-4.94-15.13l4.12,1.11s-.21-1.91-3.54-4.46c1.24-2.38,5.12-5.19,5.12-5.19Z"/></g><path d="M274 125.32l-7.28 5.38a19 19 0 0 1 .35 3.4c2.62-.19 6.38-2.79 6.84-5.49a9.08 9.08 0 0 0 .09-3.29z" opacity=".2"/><path d="M257.64 104.23c-4.07.17-6.31 7.18-2.19 13s7.66-13.23 2.19-13z" class="D"/><path d="M277.69 110.4c.48 8.26 1.18 13.07-2.45 17.77-5.47 7.08-16.05 4.55-19-3.4-2.64-7.16-3-19.47 4.65-23.69a11.29 11.29 0 0 1 16.8 9.32z" class="C"/><g class="D"><path d="M278.9 116.74c-6.26-4-8.47-9.27-8.95-11.92-2.43.57-14.49 6.12-18.2 0s1-9.72 7.9-5.95c-3.07-5.42-.28-8.07 9.37-8.31s8.35 5.36 8.35 5.36 7.3-3.18 9.89 2.42c2.99 6.44-2.53 17.43-8.36 18.4z"/><path d="M275.72 94.44c.09 0 3.65.86 7.76-3.27-.73 3.52-7.11 5.87-7.11 5.87zm4.79 12.09c-3.84-1.33-8.5 4.37-6.78 11.25s11.97-9.46 6.78-11.25z"/></g><path d="M282.69 117.27a7.82 7.82 0 0 1-3.2 5.08c-2.26 1.58-4.3-.22-4.43-2.83-.12-2.35.92-6 3.55-6.54s4.49 1.77 4.08 4.29z" class="C"/><use xlink:href="#C" class="B"/><use xlink:href="#C" fill="#fff" opacity=".5"/><path d="M260.23,239.88c-5.9,7.54-6,34-3.72,53.58,2.17-14.12,5.59-32,8.6-47Z" opacity=".2"/><use xlink:href="#D" class="B"/><use xlink:href="#D" fill="#fff" opacity=".5"/><path d="M276.27 396.29h17.98v-5.37l-20.1-.35 2.12 5.72zm-37.29-2.07l16.72-1.9-.61-5.4-18.72 1.83 2.61 5.47z" class="B"/><path d="M265.53 114.18c.08.67-.21 1.26-.65 1.31s-.85-.45-.94-1.12.21-1.25.65-1.3.86.45.94 1.11zm-7.53.91c.08.67-.21 1.25-.65 1.31s-.85-.45-.93-1.12.21-1.25.64-1.3.84.44.94 1.11z" class="D"/><path d="M260.42,115.14a24.11,24.11,0,0,1-2.51,6.09,3.89,3.89,0,0,0,3.27.21Z" fill="#ed847e"/><path d="M267.58 111.46a.39.39 0 0 1-.4-.1 3.16 3.16 0 0 0-2.67-1 .4.4 0 0 1-.51-.36.38.38 0 0 1 .32-.46 3.89 3.89 0 0 1 3.38 1.23.39.39 0 0 1 0 .56.46.46 0 0 1-.12.13zm-2.9 12.65h0a6.06 6.06 0 0 0 4.32-3.55.21.21 0 0 0-.12-.27.22.22 0 0 0-.28.13 5.73 5.73 0 0 1-4 3.27.23.23 0 0 0-.16.26.23.23 0 0 0 .24.16zm-10.25-11.23a.33.33 0 0 1-.24 0 .4.4 0 0 1-.25-.5 3.94 3.94 0 0 1 2.55-2.55.39.39 0 0 1 .48.29.38.38 0 0 1-.28.47h0a3.14 3.14 0 0 0-2 2 .36.36 0 0 1-.26.29z" class="D"/><g class="B"><path d="M279.51 407.73a2.51 2.51 0 0 1-1.6-.43 1.18 1.18 0 0 1-.41-1 .61.61 0 0 1 .34-.56c.92-.48 3.61 1.18 3.91 1.37a.18.18 0 0 1 .09.2.19.19 0 0 1-.15.16 9.72 9.72 0 0 1-2.18.26zm-1.24-1.73a.58.58 0 0 0-.25.05.24.24 0 0 0-.13.23.81.81 0 0 0 .27.72c.46.38 1.55.44 3 .15a8.07 8.07 0 0 0-2.89-1.15z"/><path d="M281.65 407.43a.18.18 0 0 1-.1 0c-.86-.47-2.53-2.3-2.35-3.22a.65.65 0 0 1 .63-.52 1.06 1.06 0 0 1 .84.25c1 .79 1.17 3.2 1.17 3.3a.17.17 0 0 1-.09.18.17.17 0 0 1-.1.01zm-1.65-3.38h-.08c-.26 0-.28.15-.29.2-.11.55 1 1.93 1.81 2.58a4.68 4.68 0 0 0-1-2.61.69.69 0 0 0-.44-.17zm-35.25 2.11h0c-1.3.42-3.64 1-4.64.31a1.08 1.08 0 0 1-.47-.91.63.63 0 0 1 .26-.56c.94-.66 4.47.64 4.86.79a.21.21 0 0 1 .13.19.19.19 0 0 1-.14.18zm-4.61-.86h0a.26.26 0 0 0-.1.23.71.71 0 0 0 .31.6c.56.4 1.93.32 3.73-.19-1.45-.45-3.36-.94-3.94-.64z"/><path d="M244.75 406.16a.22.22 0 0 1-.16 0c-1.05-.33-3.23-1.9-3.18-2.85 0-.23.13-.52.66-.63a1.42 1.42 0 0 1 1.13.21c1.15.75 1.63 3 1.65 3a.22.22 0 0 1-.06.19zm-2.81-3c-.13.07-.14.15-.14.19 0 .57 1.48 1.82 2.57 2.32a4.62 4.62 0 0 0-1.39-2.43 1 1 0 0 0-.82-.16.68.68 0 0 0-.22.07z"/></g><path d="M296.36 156.8l-1 9.42-1.52 9.3a109.59 109.59 0 0 1-5.13 18.58l-1 2.33-.25.58-.06.15-.1.22-.3.62a10.09 10.09 0 0 1-1.38 2 12.19 12.19 0 0 1-3 2.48 17.87 17.87 0 0 1-2.87 1.39 37.53 37.53 0 0 1-10.26 2.15 86 86 0 0 1-19.08-.71l.23-6.26 4.41-.5 4.41-.6 8.57-1.55a32.65 32.65 0 0 0 7.37-2.44 4.08 4.08 0 0 0 1.61-1.23c0-.15-.29.48.08-.52l.66-1.93a126 126 0 0 0 3.7-16.86l1.28-8.77 1-8.74z" class="C"/><path d="M297.1 150.76c4.08 6.84.6 28.36.6 28.36l-21.4-4s-1.16-12.32 2.92-21.78c4.43-10.26 12.94-10.88 17.88-2.58z" class="B"/><use xlink:href="#E" class="D"/><g class="B"><use xlink:href="#E" opacity=".7"/><path d="M161.842 233.329l1.115-12.39 1 .09-1.115 12.39zm-1.608 11.176l.479-5.188.996.092-.479 5.188zm19.686-87.175h43.48a9.13 9.13 0 0 0-8.91 8.17l-11.28 122.68a9.14 9.14 0 0 1-8.92 8.17h-27.14a7.34 7.34 0 0 1-7.43-8.17L171 165.5a9.14 9.14 0 0 1 8.92-8.17z"/></g><path d="M186.86,288.18a7.34,7.34,0,0,0,7.43,8.17H150.8a7.33,7.33,0,0,1-7.42-8.17Z" class="D"/><path d="M186.86,288.18a7.34,7.34,0,0,0,7.43,8.17H150.8a7.33,7.33,0,0,1-7.42-8.17Z" opacity=".7" class="B"/><g opacity=".5" fill="#fff"><path d="M207 171.08h-29.48a1.6 1.6 0 0 1-1.61-1.78h0a2 2 0 0 1 1.94-1.78h29.43a1.6 1.6 0 0 1 1.61 1.78h0a2 2 0 0 1-1.89 1.78zm-.92 9.62h-29.43a1.6 1.6 0 0 1-1.62-1.78h0a2 2 0 0 1 1.94-1.78h29.43a1.6 1.6 0 0 1 1.62 1.78h0a2 2 0 0 1-1.94 1.78zm-8.08 9.63h-22.23a1.6 1.6 0 0 1-1.61-1.78h0a2 2 0 0 1 1.94-1.78h22.21a1.6 1.6 0 0 1 1.62 1.78h0a2 2 0 0 1-1.93 1.78zM182.43 200h-7.53a1.6 1.6 0 0 1-1.62-1.77h0a2 2 0 0 1 1.94-1.78h7.54a1.6 1.6 0 0 1 1.61 1.78h0a2 2 0 0 1-1.94 1.77zm21.02 9.58H174a1.6 1.6 0 0 1-1.61-1.78h0a2 2 0 0 1 1.94-1.78h29.42a1.6 1.6 0 0 1 1.62 1.78h0a2 2 0 0 1-1.92 1.78zM191 219.21h-17.85a1.6 1.6 0 0 1-1.62-1.78h0a2 2 0 0 1 1.94-1.78h17.84a1.61 1.61 0 0 1 1.62 1.78h0a2 2 0 0 1-1.93 1.78zm10.7 9.62h-29.43a1.6 1.6 0 0 1-1.61-1.78h0a2 2 0 0 1 1.94-1.78H202a1.61 1.61 0 0 1 1.62 1.78h0a2 2 0 0 1-1.92 1.78zm-8.09 9.63H171.4a1.6 1.6 0 0 1-1.62-1.78h0a2 2 0 0 1 1.94-1.78h22.21a1.6 1.6 0 0 1 1.62 1.78h0a2 2 0 0 1-1.94 1.78zm-15.55 9.63h-7.54a1.61 1.61 0 0 1-1.62-1.78h0a2 2 0 0 1 1.95-1.78h7.53a1.6 1.6 0 0 1 1.62 1.78h0a2 2 0 0 1-1.94 1.78zm21.01 9.62h-29.42a1.6 1.6 0 0 1-1.62-1.78h0a2 2 0 0 1 1.94-1.78h29.43a1.6 1.6 0 0 1 1.61 1.78h0a2 2 0 0 1-1.94 1.78zm-12.46 9.63h-17.84a1.6 1.6 0 0 1-1.62-1.78h0a2 2 0 0 1 1.94-1.78h17.84a1.6 1.6 0 0 1 1.62 1.78h0a2 2 0 0 1-1.94 1.78zm10.71 9.66H167.9a1.6 1.6 0 0 1-1.62-1.78h0a2 2 0 0 1 1.94-1.77h29.43a1.6 1.6 0 0 1 1.61 1.77h0a2 2 0 0 1-1.94 1.78z"/></g><g class="C"><path d="M253.23,199.62l-6.39-5.55-3,10.22s6.49,3.52,8.73.29Z"/><path d="M239.89 193.67l-2.08 8.57 6.04 2.05 2.99-10.22-6.95-.4z"/></g><defs ><path id="B" d="M95.7 300.53c2 71.24 133.21 63.41 195.05 33.27C369 295.67 401 236.21 377.82 167.66c-23-67.92-112.43-82.56-161.27-35.31-24.07 23.3-36.82 55.7-60.63 79.55-28.27 28.32-61.49 44.1-60.22 88.63z"/><path id="C" d="M254.55 308.91c2-24.38 16.7-91.89 16.7-91.89L242 215s-11.28 67-12.14 92.44c-.9 26.45 9.74 85.22 9.74 85.22l14-1.6s-1.07-57.66.95-82.15z"/><path id="D" d="M257.78 216.08s3.16 71.38 6.68 95.55L278.1 396h15.27l-4.53-80.5c-2.29-29.62-2.35-97.38-2.35-97.38z"/><path id="E" d="M244.68 218.3l-11.35-52.8a10.68 10.68 0 0 0-9.93-8.17h-43.48a10.7 10.7 0 0 1 9.93 8.17l11.34 52.8a10.7 10.7 0 0 0 9.93 8.17h43.49a10.69 10.69 0 0 1-9.93-8.17z"/></defs></svg>