<svg xmlns="http://www.w3.org/2000/svg" viewBox="0 0 500 500" xmlns:v="https://vecta.io/nano"><style><![CDATA[.B{fill:#263238}.C{fill:#455a64}.D{fill:#92e3a9}.E{opacity:.3}.F{fill:#ffbe9d}.G{fill:#eb996e}]]></style><g class="B"><path d="M449.88 447.1c0 .14-89.5.26-199.87.26s-199.89-.12-199.89-.26 89.48-.26 199.89-.26l199.87.26z"/><path d="M110.77 340.35h8.53v106.74h-8.53zm267.07 0h8.53V447.1h-8.53z"/></g><rect x="101.71" y="327.93" width="297.94" height="13.51" rx="5.94" class="C"/><path d="M316.65 101.5L282.8 89.35l-33.51 12c-4.28 2-8 3.23-8 7.21v19.84a75 75 0 0 0 11 39.5 68.78 68.78 0 0 0 30.84 27.24c13.7-4.45 23.93-16.32 30.18-26.46a75 75 0 0 0 11.05-39.5v-17.85c0-5.69-3.02-8.46-7.71-9.83z" class="D"/><g class="E"><path d="M283.13,183.62a54.71,54.71,0,0,1-24.4-21.72A59.43,59.43,0,0,1,250,130.64V116.72c0-3.15,1.9-6.11,5.68-7.87l27.13-10.14V89.35l-33.51,12c-3.52,1.53-8,3.23-8,7.21V128.4a75,75,0,0,0,11,39.5,68.78,68.78,0,0,0,30.84,27.24Z"/></g><g opacity=".4"><path d="M283.13 195.14a41 41 0 0 0 6.65-2.85 59.58 59.58 0 0 0 14.07-11.07 75.46 75.46 0 0 0 9.79-13.15 72.22 72.22 0 0 0 10.72-39.88V111.8c0-8.16-4.21-8.76-7.73-10.3L282.8 89.35v9.36L310.26 109c3.78 1.77 5.68 4.72 5.68 7.88v13.92a59.34 59.34 0 0 1-8.74 31.25 53.32 53.32 0 0 1-24.07 21.56z"/></g><g fill="#fff"><path d="M291.78 129.75v-2.68a8.79 8.79 0 0 0-17.57 0v2.73a4.92 4.92 0 0 0-4.2 4.86v15.8a4.92 4.92 0 0 0 4.92 4.91h16.4a4.91 4.91 0 0 0 4.92-4.91v-15.8a4.92 4.92 0 0 0-4.47-4.91zm-6.4 16.76h-4.29l.67-3.09a2.61 2.61 0 1 1 2.83 0zm4.51-16.78H276.1v-2.66a6.9 6.9 0 0 1 13.79 0z" opacity=".5"/><path d="M255.48 129.56a10.75 10.75 0 0 1-.5-2.75 45.78 45.78 0 0 1-.28-6.74c0-1.32.13-2.57.25-3.71a7.73 7.73 0 0 1 .75-3 3.43 3.43 0 0 1 1.48-1.49c.46-.22.75-.21.75-.17a3.8 3.8 0 0 0-1.85 1.85 8.05 8.05 0 0 0-.59 2.85l-.2 3.68.1 6.68a16.43 16.43 0 0 1 .09 2.8zm.52 8.64c-.16 0-.31-.81-.33-1.82s.1-1.83.26-1.84.31.82.33 1.83-.12 1.83-.26 1.83z"/></g><path d="M328.14 91.46a17.8 17.8 0 0 1 2.68.87 14.22 14.22 0 0 1 3 1.64 10.28 10.28 0 0 1 3.18 3.48 12.57 12.57 0 0 1 1.46 5.73v7.09 17.4a92.35 92.35 0 0 1-2.74 21.15 90.11 90.11 0 0 1-9.31 23 99.28 99.28 0 0 1-17.09 21.89c-7 6.69-15.64 12.61-25.73 15.75h-.09-.09a105.16 105.16 0 0 1-10.33-5.1 95.53 95.53 0 0 1-9.87-6.57 89.33 89.33 0 0 1-17.2-17.37 90.57 90.57 0 0 1-18.19-48.32c-.32-4.15-.23-8.25-.24-12.28v-11.93-5.79a21.65 21.65 0 0 1 .1-2.89 5.63 5.63 0 0 1 1.16-2.67 12.69 12.69 0 0 1 4.57-3.28c1.67-.79 3.35-1.48 5-2.21h0l44.59-15h.05.06l33.08 11.31 8.83 3 2.27.79.77.29s-.27-.07-.78-.24l-2.29-.75-8.86-3-33.05-11.11h.11l-44.55 15.13h0l-5 2.21a12.28 12.28 0 0 0-4.41 3.16 5.13 5.13 0 0 0-1.06 2.46 21.58 21.58 0 0 0-.09 2.81v5.79 11.88c0 4.02-.07 8.12.25 12.24a90.1 90.1 0 0 0 18.1 48.05 88.91 88.91 0 0 0 17.11 17.27 93.85 93.85 0 0 0 9.81 6.53 104.14 104.14 0 0 0 10.32 5.13h-.17c10-3.1 18.55-9 25.55-15.62a99.1 99.1 0 0 0 17.05-21.76 90.64 90.64 0 0 0 9.31-22.83 92.24 92.24 0 0 0 2.79-21.06l.06-17.4v-7.08a12.29 12.29 0 0 0-1.39-5.66 10.34 10.34 0 0 0-3.09-3.46 15.18 15.18 0 0 0-3-1.66 20.62 20.62 0 0 0-2-.72z" class="D"/><path d="M222.8,249.41l2.49,47,62.56,1.43-4.63-36.52L288,224c-3.14-17.48-27.65-18.69-27.65-18.69L241.12,205a33.85,33.85,0,0,0-18.93,4.2s-19.52,10.63-19.35,37.64" class="C"/><path d="M260.54 204.77a19.83 19.83 0 0 1-1.69 3.8 10.14 10.14 0 0 1-8.43 4.43 10 10 0 0 1-8.46-4.37 10.21 10.21 0 0 1-1.2-2.78 5.41 5.41 0 0 0-.33-1.08 3.52 3.52 0 0 0 .1 1.14 9 9 0 0 0 1.08 2.93 8.94 8.94 0 0 0 3.31 3.27 10.7 10.7 0 0 0 5.5 1.49 10.46 10.46 0 0 0 5.48-1.53 9.75 9.75 0 0 0 3.31-3.27 10.11 10.11 0 0 0 1.17-2.9 3.12 3.12 0 0 0 .16-1.13z" class="B"/><path d="M275.24,220.5a26.62,26.62,0,0,0-10,19.71c-.48,11.94-1.22,28.52-1.66,29.35-1.37,2.56-37.56.38-41.37.11l-4.6-1.42s-8.46-7.32-10-5.12,4.44,3.61,5.6,7.93-10.86.94-11.64.41l-3.1-.88s1.84,5.9,3.41,7.77c5,6,16.49,9,16.49,9s46.87,15.23,65.8,2.66c6.19-4.11,7.24-44.4,4.9-60a12.46,12.46,0,0,0-12.48-10.6Z" class="F"/><path d="M205.71 277.24a22 22 0 0 0-2.85-1.49 23.48 23.48 0 0 0-2.88-1.42 10.35 10.35 0 0 0 2.72 1.74 10.6 10.6 0 0 0 3.01 1.17z" class="G"/><path d="M283 214.87c5.77 5.52 11.36 16.6 9.29 38.77l-30.75-1.27.79-30.34a10.26 10.26 0 0 1 4-7.83h0a12.84 12.84 0 0 1 16.67.67z" class="C"/><path d="M221.72 441l-.82-11.63 21.77-1.69 1.39 17-1.34.19c-6 .8-30.48 3.65-34.59 2.74-4.58-1.01 13.59-6.61 13.59-6.61z" class="D"/><g class="E"><path d="M236.15,445.12a7.6,7.6,0,0,1,2.42-4.86,7.37,7.37,0,0,1,5-2l.48,6.08Z" fill="#fff"/></g><g class="E"><path d="M212.87 444.06s-6.34 2.37-5.45 3.38 25.75-.94 36.64-2.76l-.07-.48-29 2.51s-.85-2.71-2.12-2.65z" fill="#fff"/></g><g class="B"><path d="M244.33 444.16l-.37.07-1.07.15-3.95.48c-3.33.38-7.94.84-13 1.25s-9.74.66-13.09.81l-4 .14h-1.08a1.38 1.38 0 0 1-.38 0h.38l1.08-.07 4-.23 13.08-.89 13-1.17 4-.4 1.07-.1a1.56 1.56 0 0 1 .33-.04z"/><path d="M215 447.05a5.71 5.71 0 0 0-2.35-3.24 2.93 2.93 0 0 1 1.68 1.25 2.9 2.9 0 0 1 .67 1.99zm6.21-3.76c-.06 0-.39-.31-.75-.78s-.6-.9-.54-.94.4.3.75.78.6.89.54.94zm1.69-1.07c0 .06-.4-.15-.8-.45s-.7-.61-.65-.67.41.15.81.46.74.6.64.66zm.96-2.14a2.78 2.78 0 0 1-1.13.23 2.57 2.57 0 0 1-1.15 0 2.6 2.6 0 0 1 1.13-.23 2.41 2.41 0 0 1 1.15 0zm.27-1.48a2.28 2.28 0 0 1-1.24.46 2.21 2.21 0 0 1-1.33-.07 7.85 7.85 0 0 1 1.29-.19 7.18 7.18 0 0 1 1.28-.2z"/><path d="M220.33 441.45a4.28 4.28 0 0 1-1.4.1 7.73 7.73 0 0 1-1.52-.22 3.71 3.71 0 0 1-.88-.28.77.77 0 0 1-.38-.41.55.55 0 0 1 .17-.57 2.57 2.57 0 0 1 3.23.5 2.51 2.51 0 0 1 .53.9 1 1 0 0 1 .07.37 4.08 4.08 0 0 0-.73-1.14 2.52 2.52 0 0 0-1.26-.68 2.15 2.15 0 0 0-1.66.24c-.21.18-.1.44.16.56a4.3 4.3 0 0 0 .81.28 9.55 9.55 0 0 0 1.47.26l1.39.09z"/><path d="M220 441.54a1.37 1.37 0 0 1-.24-1 2.41 2.41 0 0 1 .3-1.06 1.42 1.42 0 0 1 1.11-.8.54.54 0 0 1 .48.61 1.51 1.51 0 0 1-.18.64 4.13 4.13 0 0 1-.6.9c-.4.47-.74.66-.76.63s.26-.27.61-.74a4.86 4.86 0 0 0 .53-.89c.16-.31.25-.85-.1-.89s-.68.37-.88.67a2.34 2.34 0 0 0-.32.94 4.69 4.69 0 0 0 .05.99zm23.42-3.31s-.63 0-1.6.19a6.83 6.83 0 0 0-5.35 5c-.26 1-.24 1.59-.29 1.59a1.13 1.13 0 0 1 0-.44 5.77 5.77 0 0 1 .15-1.2 6.63 6.63 0 0 1 5.49-5.13 6 6 0 0 1 1.2-.06 1.72 1.72 0 0 1 .4.05zm-2.97-8.88a35.09 35.09 0 0 1 .54 4.46 38.19 38.19 0 0 1 .28 4.48 35.09 35.09 0 0 1-.54-4.46 38.19 38.19 0 0 1-.28-4.48zm-7.2 13.86a17.68 17.68 0 0 1-6.36.56c0-.08 1.43-.1 3.18-.26l3.18-.3zm4.26-.34c.06.05-.09.31-.21.65s-.17.64-.25.64-.14-.34 0-.73.41-.6.46-.56zm1.49-2.12c.05 0-.07.28-.28.53s-.42.4-.47.36.06-.29.27-.53.39-.41.48-.36zm2.2-1.1c0 .08-.3.1-.61.24s-.53.32-.59.28.09-.36.48-.53.73-.06.72.01zm1.6-.56c0 .07-.08.19-.26.27s-.34.1-.37 0 .08-.19.26-.27.34-.09.37 0z"/></g><path d="M154.8 441.55l.29-11.65 21.84.41-.25 17.05-1.36.07c-6 .22-30.68.69-34.69-.6-4.46-1.45 14.17-5.28 14.17-5.28z" class="D"/><g class="E"><path d="M168.76,447a7.64,7.64,0,0,1,2.88-4.6,7.35,7.35,0,0,1,5.13-1.49l-.11,6.1Z" fill="#fff"/></g><g class="E"><path d="M145.69 443.75s-6.54 1.75-5.75 2.84 25.72 1.54 36.74.77v-.48l-29.08-.29s-.6-2.77-1.91-2.84z" fill="#fff"/></g><g class="B"><path d="M177 446.87h-.38l-1.08.05-4 .1c-3.36.06-8 .08-13.11 0a353.56 353.56 0 0 1-13.1-.45l-4-.24-1.07-.08a1.65 1.65 0 0 1-.38 0 2.21 2.21 0 0 1 .38 0h1.08l4 .15 13.1.37 13.1.09h5.05a1.59 1.59 0 0 1 .41.01z"/><path d="M147.57 446.93a9 9 0 0 0-.71-1.9 8.57 8.57 0 0 0-1.33-1.55 3.52 3.52 0 0 1 2 3.45zm6.5-3.15c-.06 0-.36-.34-.67-.85s-.51-.95-.45-1 .36.35.67.85.51.96.45 1zm1.78-.9c0 .05-.39-.18-.76-.53s-.63-.67-.58-.72.39.18.76.53.63.67.58.72zm1.15-2.04a2.56 2.56 0 0 1-1.14.12 2.4 2.4 0 0 1-1.14-.14 5.06 5.06 0 0 1 2.28 0zm.42-1.45a2.19 2.19 0 0 1-1.28.35 2.25 2.25 0 0 1-1.31-.2 7.12 7.12 0 0 1 1.3-.07 8.14 8.14 0 0 1 1.29-.08z"/><path d="M153.36 441.86a4 4 0 0 1-1.4 0 8 8 0 0 1-1.49-.36 4.06 4.06 0 0 1-.85-.37.78.78 0 0 1-.34-.44.55.55 0 0 1 .23-.55 2.56 2.56 0 0 1 3.17.81 2.65 2.65 0 0 1 .44.94.92.92 0 0 1 0 .38 4.21 4.21 0 0 0-.62-1.21 2.53 2.53 0 0 0-1.19-.8 2.2 2.2 0 0 0-1.67.08c-.23.17-.14.43.1.58a4.54 4.54 0 0 0 .78.35 9.7 9.7 0 0 0 1.44.4l1.4.19z"/><path d="M153 441.93a1.43 1.43 0 0 1-.15-1 2.33 2.33 0 0 1 .41-1 1.39 1.39 0 0 1 1.18-.69.56.56 0 0 1 .42.65 1.63 1.63 0 0 1-.25.63 4.65 4.65 0 0 1-.68.83 2.3 2.3 0 0 1-.81.56s.28-.25.68-.69a5 5 0 0 0 .6-.83c.2-.29.34-.82 0-.89s-.72.3-.94.58a2.39 2.39 0 0 0-.41.9 5.23 5.23 0 0 0-.05.95zm23.66-1.04c0 .05-.63-.07-1.61 0a6.86 6.86 0 0 0-5.81 4.46c-.35.93-.39 1.56-.44 1.55a1.15 1.15 0 0 1 0-.44 5.64 5.64 0 0 1 .26-1.17 6.62 6.62 0 0 1 6-4.58 5.28 5.28 0 0 1 1.2 0 1 1 0 0 1 .4.18zm-2.1-9.13a39.64 39.64 0 0 1 .11 4.49 37.41 37.41 0 0 1-.16 4.48 39.64 39.64 0 0 1-.11-4.49 40.27 40.27 0 0 1 .16-4.48zm-8.5 13.1a18.05 18.05 0 0 1-6.39-.05c0-.08 1.44 0 3.19.05h3.2zm4.28.08c0 .05-.13.3-.28.62s-.23.61-.31.61-.11-.35.07-.72.47-.57.52-.51zM172 443c.06.05-.09.28-.32.5s-.46.37-.51.31.1-.27.33-.5.43-.4.5-.31zm2.31-.92c0 .08-.31.07-.63.18s-.56.27-.61.22.13-.35.53-.48.73 0 .71.08zm1.69-.4c0 .07-.1.18-.28.25s-.36.06-.38 0 .1-.17.28-.24.31-.08.38-.01z"/><path d="M174 295.07l74.89-.94-15.65 35.21-47.9.19-4.61 107.87h-29.26l2.79-120.32a22.73 22.73 0 0 1 19.75-22z"/></g><path d="M181.7 429.09c0-.16-6.79-.29-15.17-.29s-15.16.13-15.16.29 6.79.3 15.16.3 15.17-.14 15.17-.3z" class="C"/><path d="M245.18,332.21l2.11,103.59-33.85,1.66s-5.39-101.49-2.7-130.29c1.84-19.71,77.06-11.24,77.06-11.24,1.09,39.25-42.62,36.28-42.62,36.28" class="B"/><path d="M247.29 427.63a5.29 5.29 0 0 0-1.3-.05l-3.55.08-11.69.51-11.69.67-3.53.28a5.21 5.21 0 0 0-1.3.18 6.22 6.22 0 0 0 1.31.05l3.55-.09 11.69-.5 11.69-.68 3.53-.27a5.56 5.56 0 0 0 1.29-.18zm-1.68-104.12a22.1 22.1 0 0 0-.58 5 21.61 21.61 0 0 0 0 5 22 22 0 0 0 .58-5 21.64 21.64 0 0 0 0-5zm1.31-29.18a2.63 2.63 0 0 0-.64 0h-1.83l-6.74.29c-2.84.16-6.23.41-10 1a29.38 29.38 0 0 0-11.55 4.15 13.07 13.07 0 0 0-2.47 2.15 8.22 8.22 0 0 0-1.62 2.78 28 28 0 0 0-1.19 5.83 97.49 97.49 0 0 0-.42 10v6.74 1.83a2.63 2.63 0 0 0 0 .64 2.76 2.76 0 0 0 .09-.64c0-.41.09-1 .13-1.83.09-1.59.14-3.89.19-6.73s.11-6.23.54-9.95a28.53 28.53 0 0 1 1.2-5.71 9.51 9.51 0 0 1 3.88-4.62 29.2 29.2 0 0 1 11.29-4.1c3.7-.58 7.08-.87 9.91-1.09l6.72-.47 1.82-.15a2.76 2.76 0 0 0 .69-.12z" class="C"/><path d="M250.13 213.56h0A10.18 10.18 0 0 1 240 203.27l.1-6.59s-8.17-.76-8.77-8.85-.34-26.76-.34-26.76h0a28.19 28.19 0 0 1 28.48 1.81l1.26.85-.39 39.76a10.16 10.16 0 0 1-10.21 10.07z" class="F"/><path d="M239.86 182.85a5.25 5.25 0 0 1-1.86.15 1.48 1.48 0 0 1-.5 0 .78.78 0 0 1-.53-.43 1.83 1.83 0 0 1 .09-1.22l.69-2.34c1-3.3 2-5.93 2.14-5.88s-.52 2.77-1.54 6.07l-.74 2.32a1.59 1.59 0 0 0-.16.85c0 .16.27.21.56.22a5.54 5.54 0 0 1 1.85.26z" class="B"/><path d="M240,196.57a18.88,18.88,0,0,0,10.37-3.65s-2.14,6-10.26,5.74Z" class="G"/><path d="M258.6 172.68c.15-.06 5.12-.71 4.65 5.16s-6.25 3.46-6.25 3.29 1.6-8.45 1.6-8.45z" class="F"/><path d="M259 179.21s.09.08.26.17a1 1 0 0 0 .76.08 2.53 2.53 0 0 0 1.35-2.17 3.28 3.28 0 0 0-.17-1.49 1.16 1.16 0 0 0-.7-.85.52.52 0 0 0-.63.23c-.09.16-.06.28-.09.29s-.12-.11-.06-.35a.71.71 0 0 1 .27-.35.78.78 0 0 1 .57-.1 1.46 1.46 0 0 1 1 1 3.52 3.52 0 0 1 .22 1.67 2.64 2.64 0 0 1-1.69 2.41 1.08 1.08 0 0 1-.93-.23c-.16-.17-.16-.3-.16-.31z" class="G"/><path d="M231.58,161.56a4.66,4.66,0,0,1-3.33-4.63,5.71,5.71,0,0,1,3.36-4.81,7.38,7.38,0,0,1,6,.1,6.47,6.47,0,0,1,12.77.35c.2-1.56,2-2.43,3.54-2.53a5.19,5.19,0,0,1,4.27,1.57,3.18,3.18,0,0,1,0,4.26,7.21,7.21,0,0,1,5,1.2,5.31,5.31,0,0,1,2.24,4.55,4.22,4.22,0,0,1-3.17,3.77c-.59.13-.74-.27-1.06.24a5.33,5.33,0,0,0-.23,1.7,22.91,22.91,0,0,1-.33,5.54,2.25,2.25,0,0,0-2.82,1.26,6.58,6.58,0,0,0-.32,3.39,1.49,1.49,0,0,1-2.3-.19,4.33,4.33,0,0,1-.59-2.59l-.12-9.36a3.11,3.11,0,0,1-4.61-2.56,6.18,6.18,0,0,1-9.51-1.16,15.17,15.17,0,0,1-3.07,2,5,5,0,0,1-3.6.31,3,3,0,0,1-2.11-2.75l.41-.35" class="B"/><path d="M260.54 295.55H180.6l-13.18-51.05h66.7l10.56 47.72 15.86.38v2.95z" class="D"/><g class="B"><path d="M236.54 173.36c.08.11-.66.69-1.76.71s-1.87-.51-1.79-.62.82.13 1.78.1 1.7-.32 1.77-.19z"/><path d="M233.66 173.9a1.035 1.035 0 1 0 2.07 0m12.06-.47c.09.11-.65.69-1.76.71s-1.87-.51-1.79-.62.83.13 1.78.1 1.7-.32 1.77-.19zm-2.87.57a1.03 1.03 0 1 0 2.06 0m1.54-3.2c-.08.43-1.24.59-2.61.61s-2.54-.12-2.62-.55 1.07-1 2.6-1 2.7.52 2.63.94z"/><path d="M236.91 171.45c-.07.43-1.23.6-2.6.62s-2.54-.13-2.63-.56 1.08-1 2.61-1 2.71.49 2.62.94z"/></g><g class="C"><path d="M266.13 175.71a5.51 5.51 0 0 1-5.51 5.51c-3 0-4.1-2.46-4.1-5.51s1.06-5.5 4.1-5.5a5.51 5.51 0 0 1 5.51 5.5z"/><path d="M260.15,171.51s4.26-20.44-9.74-19.64l-.67-1.28s8.48-2,11.58,4.6c2.42,5.14.85,16.1.85,16.1Z"/></g><g class="B"><path d="M261.32 181.22a2.59 2.59 0 0 1-1.84-.67 6.25 6.25 0 0 1-2.38-4.08 7.32 7.32 0 0 1 1-4.63c.71-1.07 1.6-1.21 1.59-1.14a4.08 4.08 0 0 0-1.28 1.33 7.83 7.83 0 0 0-.77 4.37 6.4 6.4 0 0 0 2.09 3.86 8.22 8.22 0 0 0 1.59.96zM240.21 185c.08.12-.07.37-.39.46s-.59 0-.57-.19.21-.25.43-.31.45-.12.53.04z"/><circle cx="218.57" cy="186.01" r="2.37"/><path d="M220.6 185.22a17.56 17.56 0 0 1-3.08-4.57 38.73 38.73 0 0 1-2.42-4.94 23.81 23.81 0 0 1 2.9 4.69l2.6 4.82z"/><path d="M219.46 173.1c.13.05-.38 1.28-1.71 2.13a3.32 3.32 0 0 1-2.64.68c0-.15 1.17-.33 2.36-1.11s1.86-1.8 1.99-1.7zm1.03 2.23c.13 0-.32 1.28-1.67 2a2.8 2.8 0 0 1-2.6.33 14.34 14.34 0 0 0 2.34-.78c1.2-.63 1.79-1.62 1.93-1.55zm-14.21 9.3a1.5 1.5 0 1 1-.27-2.1 1.5 1.5 0 0 1 .27 2.1z"/><path d="M206.41 184.1a8.61 8.61 0 0 1 .13-3.5 14.9 14.9 0 0 1 .79-3.4 10.22 10.22 0 0 1-.27 3.48 20.31 20.31 0 0 1-.65 3.42z"/><path d="M211.88 178.91a4.13 4.13 0 0 1-4.28-.88c-.34-.37-.4-.71-.34-.73s.23.21.59.46a4.81 4.81 0 0 0 1.54.73c1.32.37 2.47.26 2.49.42zm-1.05 7.44a1.5 1.5 0 1 1-.28-2.11 1.5 1.5 0 0 1 .28 2.11z"/><path d="M211 185.82a8.41 8.41 0 0 1 .13-3.5 14.47 14.47 0 0 1 .79-3.41 10.14 10.14 0 0 1-.28 3.49 19.76 19.76 0 0 1-.64 3.42z"/><path d="M211.75 179.93a3 3 0 0 1-2.45.22c-1.39-.33-2.2-1.21-2.1-1.3s1 .5 2.22.79 2.3.14 2.33.29zm80.5 73.71a3.14 3.14 0 0 1-.54 0h-1.53l-5.65-.21-18.62-.89-3.73-.19h-.25v-.24l.08-16.12.08-4.78v-1.29a2.39 2.39 0 0 1 .05-.45 1.27 1.27 0 0 1 .05.45l.05 1.29.07 4.78.09 16.12-.24-.26 3.72.19 18.62 1 5.64.38 1.53.13a1.74 1.74 0 0 1 .58.09zM278 210a19.28 19.28 0 0 0-3.59-.11 12.71 12.71 0 0 0-7.6 3.64 15.13 15.13 0 0 0-3.91 7.56c-.44 2.18-.35 3.59-.45 3.58a3.38 3.38 0 0 1-.11-1 15 15 0 0 1 4.1-10.53 12.46 12.46 0 0 1 7.94-3.65 10.1 10.1 0 0 1 2.68.18 2.9 2.9 0 0 1 .94.33zm-55.22 15.52a15.73 15.73 0 0 1 .18 2.91v7.1l-.16 6.94v2.7-3.06l-.15-7v-6.79a15.35 15.35 0 0 1 .13-2.8z"/></g><path d="M207.37 270a4.53 4.53 0 1 1-4.53-4.52 4.53 4.53 0 0 1 4.53 4.52z" fill="#f5f5f5"/></svg>