<svg xmlns="http://www.w3.org/2000/svg" xmlns:xlink="http://www.w3.org/1999/xlink" viewBox="0 0 500 500" xmlns:v="https://vecta.io/nano"><style><![CDATA[.B{fill:#ff725e}.C{fill:#263238}.D{fill:#fff}.E{fill:#ffc3bd}]]></style><g class="B"><path d="M158.88 408.54a3.24 3.24 0 0 0 2.44.18.73.73 0 0 0 .24-.8 1 1 0 0 0-.43-.62c-1.16-.77-4.33-.15-4.46-.12a.19.19 0 0 0-.15.16.2.2 0 0 0 .09.19 13.85 13.85 0 0 0 2.27 1.01zm1.7-1.08a1.53 1.53 0 0 1 .34.16.58.58 0 0 1 .27.37c.05.27 0 .37-.1.42-.52.37-2.45-.27-3.8-1a8.67 8.67 0 0 1 3.29.05z"/><path d="M156.65 407.55h.08c1.05-.11 3.42-1.15 3.57-2.06 0-.21 0-.51-.51-.73a1.4 1.4 0 0 0-1.1 0c-1.24.48-2.12 2.47-2.16 2.55a.21.21 0 0 0 0 .19.23.23 0 0 0 .12.05zm2.88-2.47h.11c.31.14.29.28.28.32-.09.55-1.75 1.43-2.88 1.68a4.45 4.45 0 0 1 1.78-2 1 1 0 0 1 .71 0z"/></g><path d="M155.79 407.08H147a.6.6 0 0 0-.62.55l-.7 7.16a1.35 1.35 0 0 0 1.34 1.43l11.71-.24c4.66 0 5 .26 10.47.26 3.3 0 3.8-3.34 2.38-3.65-6.47-1.38-7.91-1.52-13.77-4.88a4.23 4.23 0 0 0-2.02-.63z" class="C"/><g class="B"><path d="M115.9 409a3.59 3.59 0 0 0 2.45-.61.74.74 0 0 0 .11-.83.8.8 0 0 0-.54-.45c-1.29-.36-4.33 1.24-4.46 1.31a.23.23 0 0 0-.13.19.17.17 0 0 0 .13.16 13.79 13.79 0 0 0 2.44.23zm1.5-1.56a1.4 1.4 0 0 1 .37 0 .44.44 0 0 1 .33.27c.1.23 0 .35 0 .42-.45.52-2.49.53-4 .32a9.92 9.92 0 0 1 3.3-.99z"/><path d="M113.5 408.79h.08c1-.44 3.22-2.18 3.2-3.09 0-.21-.11-.48-.63-.53a1.58 1.58 0 0 0-1.1.32 6.38 6.38 0 0 0-1.71 3.11.16.16 0 0 0 0 .17.2.2 0 0 0 .16.02zm2.44-3.26h.12c.33 0 .34.17.34.21 0 .55-1.5 1.92-2.58 2.51a5.26 5.26 0 0 1 1.42-2.48 1.15 1.15 0 0 1 .7-.24z"/></g><path d="M110.89 407.08h-8.79a.73.73 0 0 0-.7.55l-1.8 7.16a1.13 1.13 0 0 0 1.12 1.43l11.75-.24c4.66 0 2.82.26 8.29.26 3.3 0 4.32-3.34 2.94-3.65-6.26-1.38-5.54-1.52-10.88-4.88a3.72 3.72 0 0 0-1.93-.63z" class="C"/><path d="M149.84 203.2l-13 84.81c-3.35 21.26-17.07 90.73-21.54 112.2-.3 1.47-.38 2.83-1.17 4 1.06 1.36.22 4.22.22 4.22l-14 1.42a5 5 0 0 1-1-4c.14-1 1.46-2.89 1.73-6.17 1.79-21.66 9.75-81 11.77-109.81 1.9-27.05 9.22-86.66 9.22-86.66z" class="B"/><path d="M141.88 234c-9.33 6.67-6.87 34.93-5.3 55.89l.3-1.89 8.59-56c-.47-.18-3.11 1.66-3.59 2z" opacity=".3"/><path d="M165.12 203.2l-1.29 84.76c-.62 21.71-.68 92.62-5.11 112.81-.45 2.06.6 2.47.4 3.29a8.44 8.44 0 0 0-.16.86 2.7 2.7 0 0 1-2.11 2.27l-10.26 2.32a1.74 1.74 0 0 1-2.06-1.23 14.84 14.84 0 0 1-.38-4.09c0-1.12.53-3.47.46-4.82l-5.35-109.47-2.45-86.7z" class="B"/><g class="E"><path d="M126.47 145.44l-4.42 8.36-4.25 8.5-2 4.27-1.88 4.27a89.18 89.18 0 0 0-3.07 8.5l-4.64-6.76a20.6 20.6 0 0 0 2.68.47 15 15 0 0 0 2.77 0 14.64 14.64 0 0 0 2.87-.46l1.45-.42.7-.25.35-.12.15-.06h.1a3 3 0 0 1 4.36 4.19l-.43.58-.38.49-.79.89a17.77 17.77 0 0 1-5.81 4 19.38 19.38 0 0 1-4.63 1.34 21.72 21.72 0 0 1-4.83.25 5.11 5.11 0 0 1-4.87-5.34 5.27 5.27 0 0 1 .11-.81l.13-.6a81.25 81.25 0 0 1 2.91-10.07c1.12-3.23 2.4-6.34 3.74-9.42s2.78-6.08 4.27-9 3-5.87 4.79-8.84a6.1 6.1 0 0 1 10.64 6z"/><path d="M116.08,172.52l4.72-3.65,4,8.38s-3.89,2.39-7.52,1Z"/><path d="M127.71 164.2l2.02 7.99-4.96 5.06-3.97-8.38 6.91-4.67z"/></g><path d="M156.79 106.1c0 .65.25 1.21.67 1.25s.81-.46.86-1.11-.24-1.2-.67-1.24-.81.46-.86 1.1z" class="C"/><path d="M157,107.3a23.3,23.3,0,0,0,2.63,5.81,3.72,3.72,0,0,1-3.14.3Z" fill="#ed847e"/><g class="E"><path d="M198,143.79l-.38-9.12L188,137.4a10.62,10.62,0,0,0,4.77,7.69Z"/><path d="M194.34 128.06l-8.22 4.56 1.91 4.78 9.6-2.73-3.29-6.61z"/></g><g class="B"><path d="M194.19 123.34h-8.81a.9.9 0 0 0-.88.81l-1.63 16.94a.73.73 0 0 0 .73.81h8.8a.92.92 0 0 0 .89-.81l1.62-16.94a.71.71 0 0 0-.72-.81z"/><path d="M193.58 123.34h-8.8a.9.9 0 0 0-.88.81l-1.63 16.94a.73.73 0 0 0 .73.81h8.8a.91.91 0 0 0 .88-.81l1.63-16.94a.72.72 0 0 0-.73-.81z"/></g><path d="M183,141.55a.36.36,0,0,1-.28-.12.38.38,0,0,1-.09-.3l1.63-16.94a.56.56,0,0,1,.54-.5h8.8a.39.39,0,0,1,.28.11.4.4,0,0,1,.09.3l-1.63,17a.56.56,0,0,1-.54.5Z" class="D"/><path d="M191.31 132.55a3.58 3.58 0 0 1-3.32 3.24 2.7 2.7 0 0 1-2.72-3.1 3.58 3.58 0 0 1 3.32-3.24 2.69 2.69 0 0 1 2.72 3.1z" class="B"/><path d="M196.14 137.21a37.17 37.17 0 0 1-4.53-6.85 2.31 2.31 0 0 0-1.24 2.81c.37 1.11 1.78 4 1.78 4s-.68 3.47.6 5.89 3.39-5.85 3.39-5.85z" class="E"/><path d="M154.72 102.3a.41.41 0 0 1-.22-.17.37.37 0 0 1 .13-.52 3.74 3.74 0 0 1 3.47-.28.37.37 0 0 1 .17.51.38.38 0 0 1-.5.17h0a3 3 0 0 0-2.75.25.35.35 0 0 1-.3.04z" class="C"/><path d="M135.56,113.38c1.2,5.89,1.95,14.05-2.14,18,0,0,1.66,6,12.6,6,12,0,5.75-5.24,5.75-5.24-5-1.56-5-7.26-3.9-11.83Z" class="E"/><path d="M131.2,135.3c-1.09-1.51-1.08-6.31.06-7.16,1.84-1.36,9.74-1.68,20.4.77C150.55,133.56,153,136,153,136Z" class="B"/><use xlink:href="#B" class="C"/><use xlink:href="#B" opacity=".1" class="D"/><path d="M163.43 139c4.14 4.61 8.08 9.28 12 13.82l6 6.63a56.18 56.18 0 0 0 5.95 5.67 13.66 13.66 0 0 0 1.26.9c.33.22.63.3.31.26a3 3 0 0 0-1.13.12 3.54 3.54 0 0 0-.89.41 2.64 2.64 0 0 0-.54.43c-.09.16.13 0 .33-.38a14 14 0 0 0 1.31-3.13c.38-1.26.73-2.61 1-4 1.19-5.6 2-11.67 2.7-17.61l6.05-.14a91.91 91.91 0 0 1 .8 19.1 45.94 45.94 0 0 1-.63 5 24.7 24.7 0 0 1-1.64 5.56 12 12 0 0 1-2.27 3.39 6.94 6.94 0 0 1-1.43 1.15 7.43 7.43 0 0 1-1.94.86 8.21 8.21 0 0 1-3.41.2 12.77 12.77 0 0 1-4-1.32 25.32 25.32 0 0 1-2.61-1.57 64.14 64.14 0 0 1-7.73-6.6c-2.3-2.25-4.46-4.54-6.58-6.83-4.21-4.61-8.21-9.29-12.15-13.91z" class="E"/><path d="M125.59,147.35c-4.07,4.06-5.35,11.45-5.62,17.87l.67.51a32.75,32.75,0,0,0,7.93-14.88c.15-.6.28-1.21.39-1.8Z" opacity=".4" class="C"/><path d="M105.87 154l-.29.77A1.1 1.1 0 0 0 106 156l13.6 10.29a1.09 1.09 0 0 0 1.5-.18v-.07a1.08 1.08 0 0 0-.16-1.52l-13.36-11a1.08 1.08 0 0 0-1.71.48z" class="B"/><use xlink:href="#C" class="C"/><use xlink:href="#C" opacity=".1" class="D"/><path d="M168 153l-7.06 1.69c-.42 5.32 3.94 11.49 7.5 15.57.03-6.63-.14-12.48-.44-17.26z" opacity=".4" class="C"/><path d="M135.32 102.79c-.17 8-.68 12.65 3 17.09 5.53 6.68 15.64 3.92 18.19-3.84 2.3-7 2.2-18.87-5.32-22.73a10.82 10.82 0 0 0-15.87 9.48z" class="E"/><path d="M152.58 108.76s3.17 2.55 3.23-1.46a22.52 22.52 0 0 0-.43-5.74s2.05-.13 1.87-3.54-5.39-8.54-13.52-7.28-7.58 5.32-7.58 5.32-7.53.48-3.29 12.7l3.55 10.51s7.51 1.59 9.18-.14 3.82-11.48 6.99-10.37z" class="C"/><path d="M133.83,101c-7.81,4-14.19,10.29,1.88,10.27s20.16-12,20.16-12Z" class="B"/><path d="M133.83,101c-7.81,4-14.19,10.29,1.88,10.27s20.16-12,20.16-12Z" opacity=".2" class="D"/><path d="M157.56 97.79c-1 1.87-5.23 5.38-8.06 7s-8.63 2.18-10.84 2.1-6.88-.6-7.47-2.1-.53-6-.34-8.9 8.15-8 11.32-8.67 10 1.32 12 3.11 3.39 7.46 3.39 7.46z" class="B"/><path d="M148.14 107a9.09 9.09 0 0 0 1.83 5.51c1.6 2.07 3.53 1 4-1.28.45-2.09.16-5.68-1.9-6.93s-3.89.32-3.93 2.7z" class="E"/><use xlink:href="#D" class="C"/><use xlink:href="#D" opacity=".1" class="D"/><path d="M178.79 152.78l.51.67a1.1 1.1 0 0 1 0 1.3l-9.07 12.31a1.08 1.08 0 0 1-1.39.31l-.14-.08a1.08 1.08 0 0 1-.39-1.56l8.7-12.9a1.09 1.09 0 0 1 1.78-.05z" class="B"/><path d="M381.7 113.75H241.23a13.78 13.78 0 0 0-13.55 12.86L213.12 397a12.1 12.1 0 0 0 12.17 12.86h140.47A13.77 13.77 0 0 0 379.31 397l14.56-270.37a12.1 12.1 0 0 0-12.17-12.88z" class="C"/><path d="M254.02 110.25h6.93v1h-6.93zm-29.32 9.14l-.87-.5a17.23 17.23 0 0 1 14.78-8.64h10.92v1h-10.92a16.22 16.22 0 0 0-13.91 8.14zm154.38-5.64H238.61a13.78 13.78 0 0 0-13.55 12.86L210.51 397a12.09 12.09 0 0 0 12.16 12.86h140.48A13.77 13.77 0 0 0 376.69 397l14.56-270.37a12.1 12.1 0 0 0-12.17-12.88z" class="B"/><path d="M222.79,407.7A10.06,10.06,0,0,1,212.65,397L227.2,126.61a11.46,11.46,0,0,1,11.29-10.71H379a10.06,10.06,0,0,1,10.14,10.71L374.55,397a11.46,11.46,0,0,1-11.29,10.72Z" class="D"/><g class="B"><path d="M228.76 221.5l4.29-79.6a6.12 6.12 0 0 1 6-5.74h137.1a5.38 5.38 0 0 1 5.43 5.74l-4.29 79.6a6.12 6.12 0 0 1-6 5.74h-137.1a5.38 5.38 0 0 1-5.43-5.74z" opacity=".2"/><path d="M312.42 125.84h-8a4.63 4.63 0 0 1-4.57-3.63l-1.64-7.35h21.07l-1.84 7a5.29 5.29 0 0 1-5.02 3.98z"/></g><path d="M311.11 120.35a2.8 2.8 0 0 1-2.76 2.62 2.46 2.46 0 0 1-2.48-2.62 2.8 2.8 0 0 1 2.76-2.62 2.45 2.45 0 0 1 2.48 2.62z" opacity=".5" class="D"/><g class="B"><path d="M332.16 318.11H264.4a.54.54 0 0 1-.54-.51l-2.16-47.85a.55.55 0 0 1 .54-.56h77.23a.53.53 0 0 1 .41.19.51.51 0 0 1 .12.43l-7.31 47.85a.54.54 0 0 1-.53.45zM264.91 317h66.79l7.15-46.78H262.8z"/><path d="M328.79 327.78h-59.17a.54.54 0 1 1 0-1.07h59.17a1.81 1.81 0 0 0 1.75-1.54l8.95-59.39a.55.55 0 0 1 .53-.46h3.85a.54.54 0 1 1 0 1.08h-3.39l-8.88 58.93a2.86 2.86 0 0 1-2.81 2.45z"/><path d="M274.12 337.86a5.27 5.27 0 0 1-5.31-5.61 5.93 5.93 0 0 1 5.85-5.54 5.26 5.26 0 0 1 5.3 5.6 5.93 5.93 0 0 1-5.84 5.55zm.54-10.08a4.85 4.85 0 0 0-4.78 4.53 4.18 4.18 0 0 0 4.24 4.47 4.84 4.84 0 0 0 4.77-4.53 4.18 4.18 0 0 0-4.23-4.47zm51.03 10.08a5.27 5.27 0 0 1-5.3-5.61 5.91 5.91 0 0 1 5.84-5.54 5.27 5.27 0 0 1 5.31 5.6h0a5.94 5.94 0 0 1-5.85 5.55zm.54-10.08a4.83 4.83 0 0 0-4.77 4.53 4.18 4.18 0 0 0 4.23 4.47 4.85 4.85 0 0 0 4.78-4.53h0a4.18 4.18 0 0 0-4.24-4.47z"/></g><path d="M313.58 187.05a26.52 26.52 0 0 1 2.31-9.84c3.85 3.28 7.52 7.16 7.52 7.16s22.56 1.71 26.43 3.2c-.82 2.76-1.41 5.44-1.41 5.44zM269 221.8a8 8 0 0 0-.64-1.42 4.91 4.91 0 0 1-.82-2.86 4.59 4.59 0 0 1 2-3.05 11.06 11.06 0 0 1 7.77-2.12 11.7 11.7 0 0 1 5.21 1.89 5.89 5.89 0 0 1 .64-3.27 5.65 5.65 0 0 1 5.57-3 4.39 4.39 0 0 1 2.13.94v-.48a5.21 5.21 0 0 1 1.92-4.1c1.45-1 3.38-.9 5.88.35l.49.25a15.8 15.8 0 0 1-.81-4.07 3.76 3.76 0 0 1 1.44-3.41c1.54-1.12 3.91-.94 5.79-.35a4.81 4.81 0 0 1 .64-2.58 6.07 6.07 0 0 1 6.63-2.62l-.27 1a5 5 0 0 0-5.43 2.13 3.73 3.73 0 0 0-.46 2.46 3.34 3.34 0 0 1 2.13 3.09l-.06.72-.67-.27a4 4 0 0 1-2.25-2.5l-.09-.28h0c-1.61-.59-4-.94-5.31 0a2.72 2.72 0 0 0-1 2.5 16.14 16.14 0 0 0 .85 4.09c.08.23.23.55.38.89l.4.88a2.49 2.49 0 0 1 .28 1.26h0-1.07a2 2 0 0 0-.19-.76 4.12 4.12 0 0 0-1.87-1.5c-2.13-1.06-3.69-1.2-4.8-.43a4.38 4.38 0 0 0-1.41 3.32 10.24 10.24 0 0 0 0 1.75 4.1 4.1 0 0 1 .56 2.41l-.17 2.45-.86-2.3a10.74 10.74 0 0 1-.56-2.18 3.51 3.51 0 0 0-2.4-1.59 4.61 4.61 0 0 0-4.47 2.43 5 5 0 0 0-.31 3.74l.56.51a1.2 1.2 0 0 1 .35 1.13.73.73 0 0 1-.57.53l-.34.07-.2-.28a5.88 5.88 0 0 1-.71-1.33 10.78 10.78 0 0 0-5.68-2.43 10.05 10.05 0 0 0-7 1.91 3.76 3.76 0 0 0-1.62 2.31 4.16 4.16 0 0 0 .71 2.25 8.57 8.57 0 0 1 .72 1.63z" class="C"/><path d="M254,220.58c9.35-3.57,41.35-10.28,46.69-16,4.07-4.35,8.86-13.11,10.9-17a3.05,3.05,0,0,1,3.2-1.6l32.51,5.31a3.06,3.06,0,0,1,2.56,3.18l-.17,3.08.05,32.41-83.52,2.27Z" class="B"/><g class="C"><path d="M250.22 230.87s2.37-8.72 3.8-10.29 37.5 3 40.53 11.18a297.63 297.63 0 0 1-44.33-.89z"/><path d="M286.83,232c-5.78-6.93-10.89-12.3-10.57-15.54s3.55-4.16,8.56-5.84,14.59-4.67,19.22-11.82,7.63-2.57,9,.67,3.12,11.65,30.2,3.8c-8.49,8.05-40.11,28.73-40.11,28.73Z"/></g><path d="M300.58 230.87s1-11.39 10.71-17.38 36.78-10.34 38.9-14.37a35.18 35.18 0 0 1 .35 7.94s-25 10.06-24.93 24.93c-13.41.01-25.03-1.12-25.03-1.12z" class="D"/><path d="M248.39 232.67a1.64 1.64 0 0 0 1.36 2 270.81 270.81 0 0 0 37.11 2.89h62.41a1.88 1.88 0 0 0 1.85-1.76l.34-6.4a1.64 1.64 0 0 0-1.79-1.75c-9.82.79-56.06 4.18-98.92 1.92a1.85 1.85 0 0 0-1.8 1.16 12.52 12.52 0 0 0-.56 1.94z" class="B"/><path d="M281.86 230.85c-10.22 0-20.78-.21-31.13-.76a.5.5 0 0 1-.48-.52.51.51 0 0 1 .53-.48c43 2.27 89.89-1.2 98.85-1.92a.5.5 0 1 1 .08 1c-6.82.55-35.55 2.68-67.85 2.68z" class="D"/><path d="M349.27 238.25h-62.41a274.92 274.92 0 0 1-37.21-2.89 2.33 2.33 0 0 1-1.56-1 2.41 2.41 0 0 1-.36-1.87l1.31.28a1.05 1.05 0 0 0 .15.82 1 1 0 0 0 .66.4 273.15 273.15 0 0 0 37 2.87h62.41a1.2 1.2 0 0 0 1.18-1.11l1.34.07a2.56 2.56 0 0 1-2.51 2.43zm-33.522-47.792l.573-1.211 19.617 9.277-.573 1.211z" class="C"/><g class="B"><path d="M290.46 249.11l11 9.41 12-9.41h-23z"/><ellipse cx="295.26" cy="373.58" rx="21.51" ry="20.38" transform="matrix(.716545 -.69754 .69754 .716545 -176.9 311.85)"/></g><path d="M280.79 372.56s8.54 4.94 12 11.31c2.92-5 7.29-11.88 17.77-19.65-12.72 5.12-17.43 13.28-17.43 13.28a22.9 22.9 0 0 0-12.34-4.94z" class="D"/><defs ><path id="B" d="M119 133.19c-7.54 1.73-12.6 21.86-12.6 21.86l14.22 10.68a32.67 32.67 0 0 0 7.93-14.88c2.54-10.1-1.83-19.43-9.55-17.66z"/><path id="C" d="M166.77 141.26c1.71 8.7 3.21 39.37-1.31 74.75h-45.84c-.34-6.61 6-51.67-.6-82.82a111.26 111.26 0 0 1 14.4-1.83 157.34 157.34 0 0 1 18.31 0c2 .18 4 .47 5.77.78a11.52 11.52 0 0 1 9.27 9.12z"/><path id="D" d="M149.91 143.9c-3.79 10.41 19.71 23 19.71 23l9-13s-6.62-13-14.73-18.9c-9.98-7.24-11.1 1-13.98 8.9z"/></defs></svg>