<svg xmlns="http://www.w3.org/2000/svg" xmlns:xlink="http://www.w3.org/1999/xlink" viewBox="0 0 500 500" xmlns:v="https://vecta.io/nano"><style><![CDATA[.B{fill:#ffc100}.C{fill:#263238}.D{fill:#ffc3bd}.E{opacity:.1}.F{opacity:.2}]]></style><ellipse cx="250" cy="416.24" rx="193.89" ry="11.32" fill="#f5f5f5"/><path d="M163.63 125.23c2.15 2.85 2.41 6.35.1 12-1 2.32-2.3 4.59-5.2.7s-5.39-11-1-11.63 6.1-1.07 6.1-1.07z" class="C"/><path d="M162.7 406.89h7.43l.32-17.21h-7.43l-.32 17.21zm-55.16-13.2l7.2 1.83 7.45-15.85-7.2-1.83-7.45 15.85z" class="D"/><path d="M115.7 394.76l-7.91-2.67a.63.63 0 0 0-.75.28l-3.35 5.83a1.12 1.12 0 0 0 .63 1.61l7.65 2.36c2.14.72 8.23 3.28 11.19 4.28s4.25-1.81 3.13-2.49c-5.05-3-8.34-6.21-9.59-8.37a1.86 1.86 0 0 0-1-.83zM170.06 406H162a.63.63 0 0 0-.62.5l-1.38 6.64a1.12 1.12 0 0 0 1.11 1.32c2.92 0 7.15-.22 10.82-.22 4.31 0 5.21.23 10.25.23 3.05 0 3.82-3.08 2.54-3.36-5.85-1.27-7.77-1.41-12.87-4.5a3.52 3.52 0 0 0-1.79-.61z" class="C"/><path d="M168.13 171.91l10.14-3.25s10.48 24.26 14 25.77c4.78 2 8.52 5.41 14.65 6 .83.95 2.19 4 2.06 5.14-8.23 3.1-20.91-.19-24.4-3.42-7.99-7.34-16.45-30.24-16.45-30.24z" class="D"/><use xlink:href="#B" class="B"/><use xlink:href="#B" opacity=".5"/><g class="D"><path d="M205.66,200.44l5.72-3,2.91,8.41s-1.87.83-7.21.17Z"/><path d="M217.08 195.33l1.83 7.19-4.62 3.36-2.91-8.41 5.7-2.14z"/></g><path d="M170.45 389.69l-.16 8.87h-7.44l.17-8.87h7.43zm-55.47-11.85l7.21 1.83-3.85 8.17-7.2-1.83 3.84-8.17z" class="F"/><use xlink:href="#C" class="B"/><use xlink:href="#C" opacity=".5"/><path d="M142.65 168.83c.77 4.73-.44 16-4.63 29.12a190.39 190.39 0 0 0-3.56-33.36v-.06c2.61-.26 7.44-.14 8.19 4.3z" class="F"/><path d="M148.92,144.25c1.2,5.44,1.89,12.17-1.82,15.8,0,0,2.32,5.51,12.42,5.51,9.23,0,4.47-5.51,4.47-5.51-6.09-1.45-6-8.94-5-13.16Z" class="D"/><g fill="#fff"><path d="M159.52 165.56a10.6 10.6 0 0 0-1.81 5.22s-12.76-4.46-12.33-11l2.89-1.94c0 .01.54 5.16 11.25 7.72z"/><path d="M159.52 165.56a20 20 0 0 1 2.6 4.83s5.64-3.88 3.76-10.34a21.86 21.86 0 0 0-3.27-1s.86 5.12-3.09 6.51z"/></g><path d="M159,146.89a16.29,16.29,0,0,0,.25,8.92,9.64,9.64,0,0,1-2.72-.83c-3.46-1.61-5.21-4.14-7.05-7.91-.16-1-.34-1.9-.55-2.82Z" class="F"/><use xlink:href="#D" class="D"/><use xlink:href="#D" class="F"/><path d="M145.54 136.45c1.36 7.31 1.79 11.66 5.92 15.05 6.22 5.11 14.77.8 15.59-6.74.74-6.78-1.6-17.6-9.07-19.79a9.84 9.84 0 0 0-12.44 11.48z" class="D"/><g class="C"><path d="M150.6 128.09c1.68 3.14.8 5.19-1.52 10.78-1 2.32-2.58 4.79-5.2.7-2.47-3.86-6.24-11-3-11.78 4.33-.98 9.72.3 9.72.3z"/><path d="M148.49 130.14c3 1 5.38-.51 5.95-1.95 2.4 1.06 5.55 1.2 6.57-.16 2 0 4.14.36 5.1-2.5s-.23-5.43-3.37-6.88c-.07.64-1.7 1.47-3.23.41a5.11 5.11 0 0 0-5.54.34c-3.27-.85-5.58-1.32-7.46.83-3.11-.65-6.9 2.17-6.38 4.62-2.44 3-.08 5.49 2.42 5.92.5 1.23 5.28.64 5.94-.63z"/></g><path d="M143.27 144.91a7.11 7.11 0 0 0 4.69 2.64c2.43.28 3.21-2 2.17-4.12-.94-1.91-3.34-4.34-5.6-3.65s-2.68 3.31-1.26 5.13z" class="D"/><path d="M151.37 229.42l1.79 22 3.4 47.17v.2l.41 7.53 3.45 90.52H173s6.33-68.75 6.6-92.31c.25-22.66-2.13-75.11-2.13-75.11z" class="C"/><path d="M159.5,393c-.05,0,.1,4.11.1,4.11h14.51l.5-4.62Z" class="B"/><path d="M153.16 251.42l3.4 47.17v.2c3.08-13.46 4.33-30.2 3.89-57.76z" class="F"/><path d="M163.39 229.42s-7 53.68-11.15 75c-4.5 23.29-30.16 82.65-30.16 82.65l-13.19-3.35s18.79-54.13 21.12-77.19l7.74-77.06z" class="C"/><path d="M109.68,380.21c-.05,0-1.5,3.54-1.5,3.54l14.49,3.69,2.26-3.93Z" class="B"/><path d="M156.81 137.35c.08.6.45 1.05.84 1s.64-.56.56-1.16-.45-1-.83-1-.64.56-.57 1.16zm6.69-.7c.07.6.44 1 .83 1s.64-.56.56-1.16-.44-1.05-.83-1-.64.56-.56 1.16z" class="C"/><path d="M161.41,137.17a22,22,0,0,0,3.46,4.83,3.35,3.35,0,0,1-2.76.83Z" fill="#ed847e"/><path d="M160.62 144.5a.19.19 0 0 0 .15-.2.18.18 0 0 0-.2-.15 4.76 4.76 0 0 1-4.09-1.34.19.19 0 0 0-.25 0 .18.18 0 0 0 0 .25 5.05 5.05 0 0 0 4.39 1.44zm-6.09-9.13a.37.37 0 0 0 .26-.16 2.7 2.7 0 0 1 2.08-1.41.35.35 0 0 0 .33-.37.36.36 0 0 0-.37-.34 3.36 3.36 0 0 0-2.65 1.75.36.36 0 0 0 .13.48.3.3 0 0 0 .22.05zm11.67-1.44a.35.35 0 0 0 .14-.06.34.34 0 0 0 .07-.49 3.54 3.54 0 0 0-2.83-1.55.34.34 0 0 0-.33.37.36.36 0 0 0 .37.34h0a2.81 2.81 0 0 1 2.23 1.25.37.37 0 0 0 .35.14z" class="C"/><path d="M130 172.83l9.57 5.13s-10.9 23.61-9.48 27.12c1.93 4.78 5 15.34 8.3 20.54-.26 1.2-1.88 4-2.88 4.61-7.63-4.7-16.41-20.73-16.57-25.4-.36-10.64 11.06-32 11.06-32z" class="D"/><use xlink:href="#E" class="B"/><use xlink:href="#E" opacity=".5"/><g class="B"><path d="M117.64 396.79a2.21 2.21 0 0 0 1.46.1 1.06 1.06 0 0 0 .63-.78.58.58 0 0 0-.14-.57c-.65-.66-3.36 0-3.67 0a.17.17 0 0 0-.13.14.19.19 0 0 0 .09.18 8.49 8.49 0 0 0 1.76.93zm1.5-1.11a.35.35 0 0 1 .2.11.22.22 0 0 1 0 .23.73.73 0 0 1-.42.54 3.58 3.58 0 0 1-2.54-.72 6.7 6.7 0 0 1 2.76-.16z"/><path d="M115.91 395.93h.09c.85-.16 2.74-1.23 2.84-2.08a.59.59 0 0 0-.39-.62 1 1 0 0 0-.78 0c-1 .4-1.83 2.39-1.87 2.47a.19.19 0 0 0 0 .18.16.16 0 0 0 .11.05zm2.32-2.4h.07c.21.1.2.21.19.26 0 .49-1.32 1.37-2.21 1.67.27-.57.86-1.68 1.52-1.94a.64.64 0 0 1 .43.01zm54.96 13.79a2.79 2.79 0 0 0 1.79-.45 1 1 0 0 0 .31-.86.59.59 0 0 0-.3-.47c-.92-.5-3.87 1-4.2 1.19a.17.17 0 0 0-.09.18.18.18 0 0 0 .14.15 13.39 13.39 0 0 0 2.35.26zm1.3-1.53a.75.75 0 0 1 .33.06.23.23 0 0 1 .12.19.65.65 0 0 1-.2.57c-.45.4-1.67.47-3.32.2a9.54 9.54 0 0 1 3.07-1.02z"/><path d="M170.88 407.06h.12c.89-.41 2.62-2 2.47-2.85 0-.2-.19-.45-.67-.49a1.21 1.21 0 0 0-1 .3c-.93.77-1.08 2.77-1.08 2.86a.17.17 0 0 0 .07.16.23.23 0 0 0 .09.02zm1.74-3h.1c.32 0 .34.15.35.19.09.51-1.08 1.77-2 2.32a4 4 0 0 1 .92-2.29.93.93 0 0 1 .63-.23z"/></g><path d="M137 224.66l7 .72-4.87 7.06s-6.14-.83-6.43-5.69zm11.04 3.45l-4.72 6.17-4.12-1.84 4.87-7.06 3.97 2.73z" class="D"/><use xlink:href="#F" class="B"/><use xlink:href="#F" class="E"/><path d="M417.364 272.198l1.092-.132.441 3.653-1.092.132zm-2.129-17.639l1.092-.132 1.645 13.611-1.092.132zm-8.155-44.789l10.06 83.16c.81 6.76-3.13 12.86-8.77 13.54l-157.79 19.09c-5.64.68-10.93-4.3-11.75-11.07l-10.06-83.15a14.34 14.34 0 0 1 .2-4.69c1-4.69 4.28-8.34 8.57-8.86l157.79-19.08c4.29-.52 8.37 2.23 10.44 6.55a14.31 14.31 0 0 1 1.31 4.51z" class="B"/><path d="M405.77 205.26l-71.57 48.19a26.44 26.44 0 0 1-24.2 2.93l-81-29.73c1-4.69 4.28-8.34 8.57-8.86l157.79-19.08c4.26-.52 8.34 2.23 10.41 6.55z" class="E"/><use xlink:href="#G" class="B"/><use xlink:href="#G" fill="#fafafa" opacity=".7"/><g opacity=".9" fill="#fff"><path d="M366.34 201.1l-100 4.06a2.14 2.14 0 0 1-2.22-2h0a2.14 2.14 0 0 1 2-2.21l100-4.06a2.14 2.14 0 0 1 2.22 2h0a2.13 2.13 0 0 1-2 2.21zm.53 13.29l-100 4.06a2.14 2.14 0 0 1-2.22-2h0a2.15 2.15 0 0 1 2-2.22l100-4.06a2.15 2.15 0 0 1 2.22 2h0a2.16 2.16 0 0 1-2 2.22zm.54 13.28l-100 4.06a2.14 2.14 0 0 1-2.22-2h0a2.13 2.13 0 0 1 2-2.21l100-4.06a2.13 2.13 0 0 1 2.21 2h0a2.13 2.13 0 0 1-1.99 2.21zm-8.9 9.4l-6.73 4.54-73.88 3-10.38-3.81a1.09 1.09 0 0 1 .26 0zm-27.37 16.55v.08a2.14 2.14 0 0 1-2 2.14l-18.51.75-.63-.21-9.86-3.62 28.83-1.18a2.14 2.14 0 0 1 2.17 2.04z"/></g><path d="M377.8 191.91l-23.92-1.03-10.51-25.06 34.43 26.09z" class="C E"/><path d="M377.8 191.91l-23.21-3.97-11.22-22.12 34.43 26.09zm46.01-96.98c0 20.34-22.29 40.33-25.63 40.33s-25.63-20-25.63-40.33c0-13.63 11.47-24.69 25.63-24.69s25.63 11.06 25.63 24.69z" class="B"/><g fill="#fff"><path d="M393.42 89.86c-4.64 5.09-10.94 6.91-14.07 4s-1.91-9.29 2.72-14.38 10.94-6.91 14.08-4.06 1.91 9.35-2.73 14.44zm-13.67 20.49c-.61-1.52-.45-3 .36-3.34s2 .64 2.57 2.16.45 3-.36 3.33-1.96-.64-2.57-2.15z" class="E"/></g><path d="M397.08 199.26a.42.42 0 0 1-.41-.41 6.26 6.26 0 0 1 1.16-3.77 5.93 5.93 0 0 0 0-6.68 6.71 6.71 0 0 1 0-7.54 5.91 5.91 0 0 0 0-6.67 6.69 6.69 0 0 1 0-7.53 5.91 5.91 0 0 0 0-6.67 6.69 6.69 0 0 1 0-7.53 5.91 5.91 0 0 0 0-6.67 6.69 6.69 0 0 1 0-7.53 5.5 5.5 0 0 0 1-3.33.42.42 0 0 1 .83 0 6.25 6.25 0 0 1-1.16 3.76 5.56 5.56 0 0 0-1 3.34 5.5 5.5 0 0 0 1 3.33 6.69 6.69 0 0 1 0 7.53 5.87 5.87 0 0 0 0 6.67 6.69 6.69 0 0 1 0 7.53 5.87 5.87 0 0 0 0 6.67 6.69 6.69 0 0 1 0 7.53 5.88 5.88 0 0 0 0 6.68 6.71 6.71 0 0 1 0 7.54 5.51 5.51 0 0 0-1 3.34.41.41 0 0 1-.42.41z" class="C"/><path d="M398.18 134.3c-.79 0-6 4.7-6 9.48h12.02c0-4.78-5.2-9.48-6.02-9.48z" class="B"/><g class="C"><rect x="396.65" y="134.46" width="3.06" height=".95" rx=".35"/><path d="M263,113.94c0,20.33-22.29,40.32-25.63,40.32s-25.63-20-25.63-40.32c0-13.64,11.47-24.7,25.63-24.7S263,100.3,263,113.94Z"/></g><g fill="#fff"><ellipse cx="227.54" cy="104.52" rx="12.47" ry="7.67" transform="matrix(.6734 -.739279 .739279 .6734 -2.95 202.36)" class="E"/><path d="M219.54 130.18c-.61-1.52-.45-3 .36-3.34s2 .64 2.57 2.16.45 3-.36 3.34-1.96-.64-2.57-2.16z" class="E"/></g><path d="M236.23 218.26a.41.41 0 0 1-.41-.41 6.26 6.26 0 0 1 1.16-3.77 5.93 5.93 0 0 0 0-6.68 6.71 6.71 0 0 1 0-7.54 5.5 5.5 0 0 0 1-3.33 5.56 5.56 0 0 0-1-3.34 6.69 6.69 0 0 1 0-7.53 5.5 5.5 0 0 0 1-3.33 5.56 5.56 0 0 0-1-3.34 6.69 6.69 0 0 1 0-7.53 5.9 5.9 0 0 0 0-6.66 6.69 6.69 0 0 1 0-7.53 5.56 5.56 0 0 0 1-3.34.42.42 0 0 1 .41-.41.41.41 0 0 1 .41.41 6.28 6.28 0 0 1-1.15 3.77 5.85 5.85 0 0 0 0 6.66 6.74 6.74 0 0 1 0 7.53 5.56 5.56 0 0 0-1 3.34 5.5 5.5 0 0 0 1 3.33 6.74 6.74 0 0 1 0 7.53 5.56 5.56 0 0 0-1 3.34 5.5 5.5 0 0 0 1 3.33 6.74 6.74 0 0 1 0 7.53 5.88 5.88 0 0 0 0 6.68 6.75 6.75 0 0 1 0 7.54 5.54 5.54 0 0 0-1 3.34.41.41 0 0 1-.42.41z" class="B"/><path d="M237.33 153.31c-.79 0-6 4.69-6 9.47h12c.02-4.78-5.22-9.47-6-9.47z" class="C"/><rect x="235.8" y="153.46" width="3.06" height=".95" rx=".35" class="B"/><circle cx="401.98" cy="206.84" r="14.89" transform="matrix(.736569 -.676362 .676362 .736569 -34 326.39)" fill="#de5753"/><path d="M404.94,199.67v15H400.8v-9.82a12.82,12.82,0,0,1-1.95,1.24,15.93,15.93,0,0,1-2.36.9v-3.35a9.93,9.93,0,0,0,3.25-1.62,6.7,6.7,0,0,0,1.81-2.33Z" fill="#fff"/><defs ><path id="B" d="M165.76 166.33c-2.85 6.5 8.6 27.14 8.6 27.14l15.15-7a93.76 93.76 0 0 0-7.51-18.16c-4.76-8.31-13.11-9.12-16.24-1.98z"/><path id="C" d="M175.47 162.11s9.32 25.53 2 67.31h-39.72c-.43-6.1 2.68-38.95-3.91-67.69a102.12 102.12 0 0 1 13.26-1.68 146.31 146.31 0 0 1 16.89 0 76.15 76.15 0 0 1 11.48 2.06z"/><path id="D" d="M168.27 142.28a6.76 6.76 0 0 1-3.92 3.55c-2.31.78-3.63-1.29-3.13-3.57.45-2 2.19-4.92 4.57-4.71a3.23 3.23 0 0 1 2.48 4.73z"/><path id="E" d="M133.84 161.73c-7 1-14.46 25.38-14.46 25.38l15 8.34s6.22-11.59 9.21-20.19c3.11-9.01-2.24-14.63-9.75-13.53z"/><path id="F" d="M400.19 224.27l7 81.08c.56 6.6-3.47 12.39-9 12.86l-153.86 13.2c-5.5.48-10.47-4.54-11-11.13l-7-81.09a13.62 13.62 0 0 1 .35-4.54c1.1-4.53 4.44-8 8.62-8.31l153.86-13.21c4.17-.36 8 2.45 9.91 6.71a13.88 13.88 0 0 1 1.12 4.43z"/><path id="G" d="M379.07 223.23l-20.56 13.84-6.73 4.54-17.58 11.84a26.34 26.34 0 0 1-23.61 3.14l-.63-.21-9.86-3.62-22.2-8.15-10.38-3.81-11.76-4.32-.85-20.79-1.91-46.2 90.33-3.67 34.43 26.09.36 8.87z"/></defs></svg>