<svg xmlns="http://www.w3.org/2000/svg" xmlns:xlink="http://www.w3.org/1999/xlink" viewBox="0 0 500 500" xmlns:v="https://vecta.io/nano"><style><![CDATA[.B{stroke:#263238}.C{fill:#fff}.D{stroke-miterlimit:10}.E{stroke-width:1.004}.F{fill:#92e3a9}.G{stroke-linejoin:round}.H{fill:#263238}.I{fill:none}.J{opacity:.5}.K{stroke-width:1.337}.L{stroke-linecap:round}]]></style><defs><clipPath id="A"><path d="M122.68 213.83l-32.93-10.75-2.93-7.74-6.69-.21-12.14-2.3 1.46 2.51 15.28 11.09 3.77 1.88 34.44 17.99-.26-12.47z" class="B C D E"/></clipPath><clipPath id="B"><path d="M86.82 195.34l-3.14-1.88-6.27 2.3 1.04 1.25 8.37-1.67z" class="B C E G"/></clipPath><clipPath id="C"><path d="M129.67 144.06s-.51 4.5.76 7.39 8.32 12.68 8.32 12.68l-13.16 10.55-6.5-12.78c-1.04-1.78-2.29-9.44 1.1-14.93s8.27-6.97 9.48-2.91z" class="B C D E"/></clipPath><clipPath id="D"><path d="M133.75 135.82c-.81-5-6.54-15.17-15.63-14.78-5.9.26-8.66 1.45-11.22 2.9a33 33 0 0 0-5.8 4.34c-4.44 5.33-6 6.79-5.14 10.87a12.24 12.24 0 0 0 .75 4.78c1.36 3.63 2.29 6 3.47 7.73-.36 1.69-1.3 6.15-1.35 7.17s3 .31 4.54-.08c2.86 6.4 8.1 10.84 9.73 11.35 2.84.89 7.33-3.78 9.71-7.4s.58-7.69.59-9.31 5.35-5.18 7.33-6.31 3.82-6.27 3.02-11.26z" class="B C D"/></clipPath><clipPath id="E"><path d="M144.65 171.54s7.09 4.83 7.25 16.24c.07 5-.45 9.67-1.6 17.86s-8.29 34.86-13.85 38.1-14.19-2.88-14.19-2.88l-41.74-27.71L70.43 205l-5-9.44 1.57-3L79.31 202l-6.63-6.13 1.3-1.65 2.4 1.67 7 2.62 1.53 10 2.16 1.48L127 224.58s-.5-21.49-.13-25.6.88-14.44 5.28-21.93" class="B C D E"/></clipPath><path id="F" d="M122.68 213.83l-32.93-10.75-2.93-7.74-6.69-.21-12.14-2.3 1.46 2.51 15.28 11.09 3.77 1.88 34.44 17.99-.26-12.47z"/><path id="G" d="M86.82 195.34l-3.14-1.88-6.27 2.3 1.04 1.25 8.37-1.67z"/><path id="H" d="M129.67 144.06s-.51 4.5.76 7.39 8.32 12.68 8.32 12.68l-13.16 10.55-6.5-12.78c-1.04-1.78-2.29-9.44 1.1-14.93s8.27-6.97 9.48-2.91z"/><path id="I" d="M133.75 135.82c-.81-5-6.54-15.17-15.63-14.78-5.9.26-8.66 1.45-11.22 2.9a33 33 0 0 0-5.8 4.34c-4.44 5.33-6 6.79-5.14 10.87a12.24 12.24 0 0 0 .75 4.78c1.36 3.63 2.29 6 3.47 7.73-.36 1.69-1.3 6.15-1.35 7.17s3 .31 4.54-.08c2.86 6.4 8.1 10.84 9.73 11.35 2.84.89 7.33-3.78 9.71-7.4s.58-7.69.59-9.31 5.35-5.18 7.33-6.31 3.82-6.27 3.02-11.26z"/><path id="J" d="M144.65 171.54s7.09 4.83 7.25 16.24c.07 5-.45 9.67-1.6 17.86s-8.29 34.86-13.85 38.1-14.19-2.88-14.19-2.88l-41.74-27.71L70.43 205l-5-9.44 1.57-3L79.31 202l-6.63-6.13 1.3-1.65 2.4 1.67 7 2.62 1.53 10 2.16 1.48L127 224.58s-.5-21.49-.13-25.6.88-14.44 5.28-21.93"/></defs><ellipse cx="219.81" cy="428.05" rx="154.58" ry="9.63" class="F"/><ellipse cx="219.81" cy="428.05" rx="154.58" ry="9.63" opacity=".8" class="C"/><rect x="161.11" y="61.86" width="194.29" height="367" rx="19.43" class="H"/><path d="M169.74 102.16h177.02v286.4H169.74z" class="B C D K"/><g class="F"><circle cx="258.26" cy="191" r="38.37" transform="matrix(.707107 -.707107 .707107 .707107 -59.42 238.56)"/><path d="M308.63 370.55H207.89a1.72 1.72 0 0 1-1.73-1.72h0a1.72 1.72 0 0 1 1.73-1.73h100.74a1.72 1.72 0 0 1 1.72 1.73h0a1.72 1.72 0 0 1-1.72 1.72z"/><rect x="200.59" y="250.94" width="115.33" height="20.67" rx="4.01"/><rect x="200.59" y="289.6" width="115.33" height="20.67" rx="4.01"/></g><path d="M277.36 210.14l-11.29-6.5v-5.37a17.66 17.66 0 0 0 3.47-6.77 3.64 3.64 0 0 0 1.21.21c1.4 0 2.29-4.34 2.44-7.44 1.63-3.45-.59-5.47-.59-5.47s.92-.92 1.53-4.61-2.15-2.15-4.3-5.53-3.69-7.06-10.75-7.06a9.7 9.7 0 0 0-9.22 5.84 23.36 23.36 0 0 0-5.22.61c-2.16.61-2.77 7.68-.93 10.45a10.53 10.53 0 0 1 1.28 4.93c-.49-.6-1-.76-1.28.6-.61 3.07 1.85 7.37 1.85 7.37l1.27-.36a18 18 0 0 0 3.61 7.23v5.37l-11.29 6.5a8.68 8.68 0 0 0-4.34 7.51v3.72a38.35 38.35 0 0 0 46.89 0v-3.72a8.66 8.66 0 0 0-4.34-7.51zm-62.16 94.99a1 1 0 0 1-.69-.29.93.93 0 0 1-.31-.7 1 1 0 0 1 .15-.51l1.8-2.88-3.51.11a.94.94 0 0 1-.72-.27 1 1 0 0 1 0-1.33.91.91 0 0 1 .72-.28l3.46.13-1.78-2.87a1 1 0 0 1-.15-.52.93.93 0 0 1 .31-.7 1 1 0 0 1 .69-.29.9.9 0 0 1 .81.52l1.71 3.09 1.69-3.07a1 1 0 0 1 .87-.56.91.91 0 0 1 .67.3 1 1 0 0 1 .28.71 1 1 0 0 1-.13.49l-1.81 2.9 3.51-.13a.91.91 0 0 1 .72.28.93.93 0 0 1 .26.66 1 1 0 0 1-.26.67.94.94 0 0 1-.72.27l-3.53-.11 1.76 2.85a1 1 0 0 1-.85 1.53.88.88 0 0 1-.8-.54l-1.67-3-1.66 3a.94.94 0 0 1-.82.54zm16.22 0a1 1 0 0 1-.69-.29.93.93 0 0 1-.31-.7 1 1 0 0 1 .15-.51l1.8-2.88-3.5.11a1 1 0 0 1-.73-.27.95.95 0 0 1 .73-1.61l3.45.13-1.78-2.87a1 1 0 0 1-.15-.52.93.93 0 0 1 .31-.7 1 1 0 0 1 .69-.29.9.9 0 0 1 .81.52l1.71 3.09 1.69-3.07a1 1 0 0 1 .87-.56.89.89 0 0 1 .67.3 1 1 0 0 1 .29.71 1 1 0 0 1-.14.49l-1.81 2.9L239 299a.89.89 0 0 1 .71.28.93.93 0 0 1 .26.66 1 1 0 0 1-.26.67.92.92 0 0 1-.71.27l-3.54-.11 1.76 2.85a1 1 0 0 1-.85 1.53.88.88 0 0 1-.8-.54l-1.67-3-1.66 3a.94.94 0 0 1-.82.52zm16.23 0a1 1 0 0 1-.7-.29.93.93 0 0 1-.31-.7 1 1 0 0 1 .15-.51l1.8-2.88-3.5.11a.95.95 0 0 1-.73-1.6.94.94 0 0 1 .73-.28l3.45.13-1.78-2.87a1 1 0 0 1-.15-.52 1 1 0 0 1 1.01-.99.9.9 0 0 1 .8.52l1.71 3.09 1.69-3.07a1 1 0 0 1 .87-.56.89.89 0 0 1 .67.3 1 1 0 0 1 .29.71 1 1 0 0 1-.14.49l-1.81 2.9 3.52-.13a.91.91 0 0 1 1 .94 1 1 0 0 1-.25.67.94.94 0 0 1-.72.27l-3.53-.11 1.75 2.85a1 1 0 0 1 .15.53 1 1 0 0 1-.31.7.94.94 0 0 1-.68.3.87.87 0 0 1-.79-.54l-1.68-3-1.66 3a.93.93 0 0 1-.85.54zm16.22 0a1 1 0 0 1-1-.99.94.94 0 0 1 .14-.51l1.8-2.88-3.5.11a1 1 0 0 1-.73-.27 1 1 0 0 1 0-1.33 1 1 0 0 1 .73-.28l3.46.13-1.77-2.87a1 1 0 0 1-.15-.52 1 1 0 0 1 1.01-.99.9.9 0 0 1 .81.52l1.7 3.09 1.69-3.07a1 1 0 0 1 .87-.56.89.89 0 0 1 .67.3 1 1 0 0 1 .29.71 1 1 0 0 1-.14.49l-1.81 2.9 3.52-.13a.91.91 0 0 1 1 .94 1 1 0 0 1-.25.67.94.94 0 0 1-.72.27l-3.53-.11 1.75 2.85a1 1 0 0 1 .15.53.93.93 0 0 1-.31.7.94.94 0 0 1-.68.3.87.87 0 0 1-.79-.54l-1.68-3-1.66 3a.93.93 0 0 1-.87.54zm16.22 0a1 1 0 0 1-.85-1.5l1.79-2.88-3.5.11a1 1 0 0 1-.73-.27 1 1 0 0 1 0-1.33 1 1 0 0 1 .73-.28l3.46.13-1.78-2.87a1 1 0 0 1-.15-.52 1 1 0 0 1 1-.99.9.9 0 0 1 .81.52l1.7 3.09 1.69-3.07a1 1 0 0 1 .87-.56.91.91 0 0 1 .68.3 1 1 0 0 1 .14 1.2l-1.81 2.9 3.52-.13a.91.91 0 0 1 1 .94 1 1 0 0 1-.25.67.94.94 0 0 1-.72.27l-3.53-.11 1.75 2.85a1 1 0 0 1 .15.53.93.93 0 0 1-.31.7.94.94 0 0 1-.68.3.87.87 0 0 1-.79-.54l-1.68-3-1.66 3a.93.93 0 0 1-.85.54zm16.22 0a1 1 0 0 1-.69-.29.93.93 0 0 1-.31-.7 1 1 0 0 1 .15-.51l1.79-2.88-3.5.11a.93.93 0 0 1-1-.94.93.93 0 0 1 .27-.66.91.91 0 0 1 .72-.28l3.46.13-1.78-2.87a1 1 0 0 1-.15-.52 1 1 0 0 1 1-.99.9.9 0 0 1 .81.52l1.7 3.09 1.7-3.07a1 1 0 0 1 .86-.56.91.91 0 0 1 .68.3 1 1 0 0 1 .28.71 1 1 0 0 1-.13.49l-1.81 2.9 3.51-.13a.91.91 0 0 1 .72.28.93.93 0 0 1 .26.66 1 1 0 0 1-.26.67.94.94 0 0 1-.72.27l-3.53-.11 1.75 2.85a1 1 0 0 1-.84 1.53.87.87 0 0 1-.79-.54l-1.68-3-1.66 3a.93.93 0 0 1-.81.54z" class="H"/><g class="F"><path style="mix-blend-mode:multiply" d="M169.74 102.54h177.02v11.09H169.74z"/><path d="M277.5 82.11H239a2.62 2.62 0 0 1-2.62-2.62h0a2.62 2.62 0 0 1 2.62-2.62h38.5a2.62 2.62 0 0 1 2.62 2.62h0a2.62 2.62 0 0 1-2.62 2.62z" class="B G K"/><path d="M268.75 404.74a10.5 10.5 0 1 0-10.49 10.49 10.5 10.5 0 0 0 10.49-10.49z"/><path d="M252.94 399.42h10.64v10.64h-10.64z" class="B G K"/></g><g class="C"><g class="E B"><use xlink:href="#F" class="D"/><use xlink:href="#G" class="G"/></g><use xlink:href="#F"/></g><g clip-path="url(#A)" class="B D E F"><use xlink:href="#F" class="J"/></g><use xlink:href="#F" class="B D E I"/><use xlink:href="#G" class="C"/><g clip-path="url(#B)" class="B E F G"><use xlink:href="#G" class="J"/></g><use xlink:href="#G" class="B E G I"/><use xlink:href="#H" class="C"/><g clip-path="url(#C)" class="F"><path style="mix-blend-mode:multiply" d="M122.91 158.52l5.71 11.84-3.04 4.33-5.74-10.25 3.07-5.92z" class="J"/></g><use xlink:href="#H" class="B D E I"/><use xlink:href="#I" class="C"/><g clip-path="url(#D)" class="F"><path d="M96 139.15a12.24 12.24 0 0 0 .75 4.78c1.36 3.63 2.29 6 3.47 7.73l-1.35 7.17c-.05 1.02 3 .31 4.54-.08 2.86 6.4 8.1 10.84 9.73 11.35 2.84.89 7.33-3.78 9.71-7.4a7.29 7.29 0 0 0 1.13-3l-.22-.76s-1.34 5.15-4 4.48-6.73-6-9-7.84-1.34-4.26-1.79-7-7.17-5.15-7.62-6.72 1.12-8.07 1.12-8.07 2.55-3.4 2-2a9.52 9.52 0 0 0 .67 7.39 5.1 5.1 0 0 0 4.71 2.91l2.44-12.09-5.15-4.26-6 2.5c-4.48 5.37-6.01 6.83-5.14 10.91z" style="mix-blend-mode:multiply" class="J"/></g><g class="B D I"><use xlink:href="#I"/><path d="M101.42 148.64l1 2.86s2.15.71 4.77-2.15m1.62 12.65s2.38-.24 3.34-3.58m-12.4-12.17s.71-2.15 5-2.15" class="L"/></g><path d="M121.74,117.06a71.06,71.06,0,0,0-9.41-.72s-9.42-5.43-18.47.36-4.7,15.93-4.7,18.46-2.9,2.54-1.09,5.8S96,142.42,96,142.42a8.7,8.7,0,0,1,3.27-6.35c3.26-2.53,5.86-3.08,6.94-2.35,0,0-.72,5.43.36,7.6,0,0,3.62,1.81,4.71,1.81s-.71,1.53,2.9,2.89a4.52,4.52,0,0,0,4-.47c.53-2.2,1.69-5.51,3.85-4.74,3.17,1.13,6.06,8.93,1.77,11.59,5.16.94,11.41-8.19,11.78-16.51S127.1,118,121.74,117.06Z" class="H"/><path d="M106.37 130.15s2.66-1.43 5.92 1.63 9.6 7.15 18 4.9M106 127.7s1.83-2.86 4.89-2.86 10.21 4.29 15.92 4.29m-22.89 4.08s-3.47-4.28-6.73-.81-1.19 6.75-1.19 6.75m-5.95-3.08a10.6 10.6 0 0 0 3.46-6.94c.41-4.49 6.54-8.37 10.41-4.69m-7.55-4.7s6.13-5.92 11.23 1.63" stroke="#fff" stroke-width=".5" class="G I L"/><g class="B D E"><path d="M146.26,410.81s3.77,5.86,3.35,9.63l-.41,3.77S135.37,428,132.44,428,114,426.53,114,426.53l-.67-2.66a.88.88,0,0,1,.48-1l13.83-6.45,4.36-4.77Z" class="C"/><path d="M134.54 425.05c3.75.29 10.87-2 15-3.46l-.29 2.62S135.37 428 132.44 428 114 426.53 114 426.53l-.48-1.9c2.48.01 16.06.04 21.02.42z" class="F"/><path d="M127.66 416.42l-20.13 8.76s-1.72 4.31 0 5.17 39.22 0 39.22 0 2.59-6.81-1.5-11.38-17.59-2.55-17.59-2.55z" class="C"/><g class="F"><path d="M146.75 430.35s-37.5.86-39.22 0c-.83-.42-.86-1.63-.67-2.78h40.55a15.25 15.25 0 0 1-.66 2.78zm-28.61-166.14s-5.26 23.31-7.25 37.89-3.16 43.79-2.74 47.14 21.36 59.48 21.36 59.48l2.09 5 14.66-2.93s-6.7-21.36-9.21-33.09-8-31-8-34.35 13-67.33 13.93-71.53 5.15-10.65 5.15-10.65l-28.07-.57z"/><path d="M118.14 264.21s-3.08 21.29-1.81 36.09l4 51c0 4.69 7.57 32.7 8 41.5.67 12.71-.27 19-.27 19l-.45 4.61s8.83 1.26 10.76 1.81a23.9 23.9 0 0 0 6.83.74s3.21-14.13 3.21-26.17-2.67-36.82-4-46.86 2.86-48.77 5.24-56 7.58-22.54 4.08-30.36-35.59 4.64-35.59 4.64z"/></g></g><path d="M157.62 255.65l-.32 9.52-13.38 2.46c-6.34 1.1-22.26-.29-27.62-.81a1.86 1.86 0 0 1-1.69-2l.52-8.6z" class="H"/><path d="M135.34 160.75s-9 9.73-12.39 15.78-4.73 15.32-6 22.62 2.17 24.44 1.2 32.31l-3.07 24.79s-.66 1.68 1.55 3.52 13 2.51 22.75 3c3.56.18 14.19-2.11 15.93-2.22 2.1-.13 2.17-2.8 2.26-4.9.42-9.87 2.2-36.18 3.37-47.64 2.41-23.37-10.78-45.93-25.6-47.26z" class="B C D E"/><path d="M159.84 221.3l1.15-13.29a60.45 60.45 0 0 0 .21-3l-23.91 4-20.54-7a113.78 113.78 0 0 0 .72 12.72l20.15 5.64zm-25.39-59.57a166.47 166.47 0 0 0-6.63 7.84L143 185l5-2z" style="mix-blend-mode:multiply" class="F"/><path d="M135.34 160.75s-9 9.73-12.39 15.78a30.69 30.69 0 0 0-2.43 5.78l18.1-20.91a17 17 0 0 0-3.28-.65z" class="H"/><path d="M117.65 195.21l19.64 6.46 23.85-2.74a55.93 55.93 0 0 0-3.91-17.31L138 189.33l-17.19-7.79a90.47 90.47 0 0 0-3.16 13.67zm33.81 50.57a60.81 60.81 0 0 1-29.74-2.43l-4.79-1.64-1.49 12 5.46 1.53a82.33 82.33 0 0 0 31.93 2.46l4.41-.53a4 4 0 0 0 .38-1.55l.6-11zm2.67-16.34a60.58 60.58 0 0 1-29.74-2.44l-6.1-2.09a39.4 39.4 0 0 1-.09 6.54l-.71 5.77 6.08 1.7a82.29 82.29 0 0 0 31.92 2.47l3-.36.85-12.47z" style="mix-blend-mode:multiply" class="F"/><path d="M79.647 202.698l-19.335-15.546.833-1.037 19.335 15.546z" class="H"/><use xlink:href="#J" class="C"/><g clip-path="url(#E)" class="F"><path d="M126.72 208.34c0 7.42.25 16.24.25 16.24l-39.89-14.53-2.16-1.48-1.53-10-7-2.62-2.39-1.7-1.3 1.65 6.61 6.1L67 192.56l-1.49 2.95 5 9.44 10.09 8.2 2.54 1.69 55.15 17.77z" style="mix-blend-mode:multiply" class="J"/></g><g class="B D E"><use xlink:href="#J" class="I"/><path d="M127 224.58l15.24 11 3.95-7s2.73-2.15 3.13-3.77-.11-4.25.3-5.87 2.45-3.14 2.64-7.06v-7.19s3.3-13.57 2.94-19.47-6.05-16.33-10.61-16.56-10.49.46-15.09 7.42-3.66 27.28-4.38 28.55.28 7.54.28 7.54a3.51 3.51 0 0 0-1.4 2.53c-.08 1.63 1.68 5.64 1.68 5.64z" class="C"/></g><path d="M125.52 199.41a28.22 28.22 0 0 1-.39 5.21c-.64 1.14.09 6.29.25 7.34a59.36 59.36 0 0 0 26.51 2 9.89 9.89 0 0 0 .34-2.13c.2-3.91 0-7.19 0-7.19l.69-3.05a96.52 96.52 0 0 1-27.4-2.18zm3.36-22.22c-1.43 2.87-2.23 7.18-2.69 11.55a59.57 59.57 0 0 0 28.51 3.47 38.14 38.14 0 0 0 .51-7 19.48 19.48 0 0 0-1.3-5.4 98.86 98.86 0 0 1-25.03-2.62z" style="mix-blend-mode:multiply" class="F"/><path d="M125.68 220.45l1.29 4.13 15.24 11 3.95-7s2.73-2.15 3.13-3.77a4.44 4.44 0 0 0 .13-.86 93.19 93.19 0 0 1-23.74-3.5z" class="H"/><path d="M136.71 418.09s.34-8.66 2-21.32-2.33-30.64-3-33.64.34-9.66-.33-12-3.91-12.32-2-23.9 3.46-42.19 3.46-42.19-4.81-3.91-6.22-9-.33-6.69-.33-6.69m8.65.47l-1.85 10.24" class="B D E I"/></svg>