<svg xmlns="http://www.w3.org/2000/svg" xmlns:xlink="http://www.w3.org/1999/xlink" viewBox="0 0 500 500" xmlns:v="https://vecta.io/nano"><style><![CDATA[.B{fill:#ebb72c}.C{fill:#263238}.D{opacity:.2}.E{fill:#ce7a63}.F{fill:#fff}.G{opacity:.3}]]></style><use xlink:href="#B" class="B"/><use xlink:href="#B" opacity=".9" class="F"/><ellipse cx="250" cy="416.24" rx="193.89" ry="11.32" fill="#f5f5f5"/><path d="M295.71 162.37l-.35 1.18-.32 1-.7 1.93-1.57 3.68a66.5 66.5 0 0 1-3.75 7l-2.16 3.31-2.36 3.17a68.69 68.69 0 0 1-5.23 5.95l-.39.4a6.08 6.08 0 0 1-1.88 1.31 14.85 14.85 0 0 1-6.62 1.23 16.75 16.75 0 0 1-5.74-1.35 20.51 20.51 0 0 1-4.29-2.46 31 31 0 0 1-3.37-2.85 42.51 42.51 0 0 1-5.16-6.26l-2.07-3.31-1.82-3.53a4 4 0 0 1 6.34-4.64l.26.24 2.44 2.24 2.53 2.19a44.71 44.71 0 0 0 5.1 3.74 14.25 14.25 0 0 0 4.58 2 2.34 2.34 0 0 0 1.27 0 .67.67 0 0 0 .32-.3l-2.3 1.74 3.63-5.26 3.22-5.53 2.8-5.73 1.23-2.9 1-2.62.28-.72a8 8 0 0 1 15.1 5.13z" class="C"/><path d="M250.76 172.82l-6.76-2.35-1.42-9.26s11.33 3 11.28 8.46z" class="E"/><g class="C"><path d="M290.58 124.58c-4.41-1.55-10.5-6.83-8.11-13.66 1.82-5.18 8.56-5.64 11.21-4.09s2.76-1.63 6.15-2.85 5.78 1.85 7.5 3.46 3.73.39 6.28.5 4.37 3.45 2.95 5.89c-2.5 4.28 1.63 7-1.5 10.34-4.61 4.85-1 9.61-7.5 14.44-3.95 2.96-15.17-2.47-16.98-14.03z"/><path d="M290.5 129.1a1.23 1.23 0 0 1-.54.17 1.26 1.26 0 0 1-1.36-1.14 12.48 12.48 0 0 1 4.12-10.71 1.24 1.24 0 0 1 1.76.22 1.25 1.25 0 0 1-.2 1.76h0a9.91 9.91 0 0 0-3.17 8.51 1.26 1.26 0 0 1-.61 1.19z"/></g><path d="M283.31 152.37s-8.87 22.7-.45 65h40.21c.28-6.17-3.6-36.28 2.35-65.36a105.49 105.49 0 0 0-13.46-1.7 147.53 147.53 0 0 0-17.09 0 74.79 74.79 0 0 0-11.56 2.06z" class="F"/><path d="M310.27 131c-1.08 5.5-2.15 15.58 1.69 19.25l-13.21 10.5a11.39 11.39 0 0 1-3.88-10.5c6.13-1.46 6-6 4.91-10.29z" class="E"/><path d="M306 134.69l-6.21 5.3a17.2 17.2 0 0 1 .53 3c2 1.9 5.56-2.91 5.81-5.36a8.31 8.31 0 0 0-.13-2.94z" class="D"/><path d="M310.2 121.75c.28 7.46.82 11.81-2.54 16-5.07 6.28-14.55 3.79-17.05-3.44-2.25-6.5-2.33-17.6 4.64-21.26a10.17 10.17 0 0 1 14.95 8.7z" class="E"/><g class="C"><path d="M310 128.65c-2.05 4-4.41-8.65-3.81-10.76-7.25 2-18.37 1.34-17.51-3.72 1-5.71 7.64-5.93 15-5.23 12.15 1.17 8.54 15.37 6.32 19.71z"/><path d="M306.41 129.36a1.19 1.19 0 0 1-.55-.1 1.26 1.26 0 0 1-.65-1.66 12.48 12.48 0 0 1 8.74-7.43 1.25 1.25 0 0 1 1.45 1 1.27 1.27 0 0 1-1 1.45h0a9.94 9.94 0 0 0-6.86 6 1.23 1.23 0 0 1-1.13.74z"/></g><path d="M313.92 127a7.53 7.53 0 0 1-2.92 4.47c-1.95 1.36-3.49-.31-3.44-2.66.05-2.11 1.13-5.35 3.31-5.77s3.54 1.75 3.05 3.96z" class="E"/><g class="C"><path d="M278.78 406.37c-.93.23-1.86.32-2.26 0a.67.67 0 0 1-.16-.76.86.86 0 0 1 .45-.53c1.13-.63 4 .19 4.13.23a.17.17 0 0 1 0 .33 13.24 13.24 0 0 1-2.16.73zm-1.48-1.13a1.33 1.33 0 0 0-.32.12.54.54 0 0 0-.28.32c-.08.25 0 .34.05.39.45.39 2.29-.05 3.6-.58a8 8 0 0 0-3.05-.25z"/><path d="M280.93 405.62h-.07c-1-.17-3.08-1.32-3.14-2.18 0-.2.07-.48.53-.64a1.32 1.32 0 0 1 1 .06c1.1.53 1.75 2.45 1.78 2.53a.17.17 0 0 1 0 .18.19.19 0 0 1-.1.05zm-2.46-2.52h-.1c-.31.1-.3.23-.29.27 0 .52 1.5 1.46 2.52 1.78a4.08 4.08 0 0 0-1.48-2 1 1 0 0 0-.65-.05z"/></g><path d="M291.86 408l-7.53 1.11.24-17.26 7.53-1.1-.24 17.25z" class="E"/><path d="M283.2 404.65h9.87a.59.59 0 0 1 .6.51l1 6.65a1.19 1.19 0 0 1-1.18 1.33l-10.9-.22c-4.33 0-8.22.23-13.3.23-3.07 0-3.64-2.91-2.37-3.38 5.68-2.13 8.72-2.49 14.47-4.54a5.76 5.76 0 0 1 1.81-.58z" class="C"/><path d="M284.57 391.86l-.13 8.89 7.54-1.11.13-8.89-7.54 1.11z" class="D"/><path d="M288,405.18c-.05-3.19.95-8.32-7-5.18-4.74,1.86,1.69,7.33,1.69,7.33Z" class="C"/><use xlink:href="#C" class="B"/><use xlink:href="#C" class="D F"/><g class="C"><path d="M333.06 405.38c-.87.39-1.77.65-2.23.38a.65.65 0 0 1-.29-.71.84.84 0 0 1 .35-.61c1-.82 4-.52 4.1-.51a.18.18 0 0 1 .16.13.19.19 0 0 1-.07.19 13 13 0 0 1-2.02 1.13zm-1.66-.85a1.6 1.6 0 0 0-.29.18.51.51 0 0 0-.22.37c0 .25.06.34.12.37.51.31 2.24-.46 3.44-1.2a8 8 0 0 0-3.05.28z"/><path d="M335 404.27h0c-1 0-3.26-.75-3.47-1.59-.05-.19 0-.48.41-.72a1.27 1.27 0 0 1 1-.12c1.18.33 2.17 2.09 2.21 2.17a.19.19 0 0 1 0 .18.22.22 0 0 1-.15.08zm-2.87-2h-.09c-.28.16-.25.28-.24.32.13.5 1.74 1.17 2.8 1.31a4.09 4.09 0 0 0-1.81-1.72.93.93 0 0 0-.62.05z"/></g><path d="M346.66 404.71l-7.1 2.41-4.71-16.69 7.09-2.41 4.72 16.69z" class="E"/><path d="M301.52,239c-2.07,8.29-1.52,42.74.62,62.16.51-11.37,1.95-28.9,3.41-45Z" class="D"/><path d="M336.83 403.07l9.72-1.75a.63.63 0 0 1 .71.39l2.55 6.3a1.1 1.1 0 0 1-.84 1.5l-10.78 1.72-9.29 1.92c-3 .55-4.29-2.18-3.16-2.87 5.08-3.08 4.25-3.29 9.41-6.31a5.47 5.47 0 0 1 1.68-.9z" class="C"/><path d="M334.85 390.44l2.43 8.6 7.1-2.41-2.43-8.6-7.1 2.41z" class="D"/><use xlink:href="#D" class="B"/><use xlink:href="#D" class="D F"/><path d="M299.17 124.93c.06.61-.21 1.13-.61 1.17s-.76-.42-.82-1 .21-1.12.61-1.16.76.39.82.99zm-6.82.68c.06.6-.21 1.12-.61 1.16s-.76-.42-.82-1 .21-1.13.61-1.17.76.4.82 1.01z" class="C"/><path d="M294.55,125.69a21.64,21.64,0,0,1-2.38,5.45,3.5,3.5,0,0,0,2.94.25Z" fill="#ba4d3c"/><g class="C"><path d="M297 132.89a.18.18 0 0 1-.19-.16.18.18 0 0 1 .16-.2 4.78 4.78 0 0 0 3.71-2.25.18.18 0 0 1 .24-.08.19.19 0 0 1 .08.24 5.1 5.1 0 0 1-4 2.45zm4-10.36a.38.38 0 0 1-.3-.11 2.83 2.83 0 0 0-2.39-1 .36.36 0 0 1-.41-.29.35.35 0 0 1 .29-.41 3.51 3.51 0 0 1 3 1.17.35.35 0 0 1 0 .51.4.4 0 0 1-.19.13zm-11.95.96a.41.41 0 0 1-.16 0 .36.36 0 0 1-.18-.47 3.54 3.54 0 0 1 2.48-2.09.36.36 0 1 1 .12.7h0a2.83 2.83 0 0 0-1.95 1.68.35.35 0 0 1-.31.18zM313 149c3.92 0 13.37.21 14.29 3.71s-.09 9.17-1.34 12.5c1.84 5.08 1.25 12.58-.5 14.92 1.92 5.66.67 9.83-.5 11.83.92 2.25 1.75 8.67.34 11.83 1.16 4.5 2.49 12 .41 13.51-2.83 2-10.36 3-15.68 1.74s-3.23-12-2.82-14.5c-2.33-3.08.17-12.33.17-12.33-1.17-2.58.58-12.25.58-12.25-1.41-2.33.42-15 .42-15-1.52-2.54-2.18-15.96 4.63-15.96zm-28.79 2.33c3.08-1.36 13.4-3.83 11.4-1.11-2.9 3.95-1.12 8.11-2.84 13 1.52 4.67 1 12.3-.41 15a18 18 0 0 1-.36 11.98c.75 2 1.44 8.27.27 11.75 1 4.24 1.76 12.79 0 14.72a8.86 8.86 0 0 1-10.27 2.09c-2.45-1-3.54-9.18-2.33-12-2.38-5.19-.44-12.88-.44-12.88-2.3-4-.52-12.39-.52-12.39-2.28-7.44.52-15.67.52-15.67-1.23-2.23.07-12.32 4.98-14.49z"/><path d="M291 152.25a3.29 3.29 0 0 1-1.33-2.62 2.59 2.59 0 0 1 2.55-2.65 8.44 8.44 0 0 1 3.34 1c1.57.77 2.15 1.48 2.22 2.64s-2.79 5.24-4.36 4.27-1.54-1.64-2.42-2.64z"/></g><path d="M321.34 166.55c.78-3.37 2.76-3.07 4.73-1.69l-.14.39c1.84 5.08 1.25 12.58-.5 14.92.11.32.21.64.3 1-2.45-2.4-5.85-8.26-4.39-14.62z" class="D"/><use xlink:href="#E" class="B"/><use xlink:href="#E" class="G"/><path d="M363.3 220.14l-6.66 3.04-21.46-1.2 8.98-6.06 19.14 4.22z" class="B"/><path d="M363.3 220.14l-6.66 3.04-21.46-1.2 8.98-6.06 19.14 4.22z" class="G"/><path d="M321.68 174.78l16.66 13.58 20.63-6.02-7.77 20.04 12.1 17.76-21.46-1.2-13.15 17-5.5-20.78-20.22-7.26 18.06-11.64.65-21.48z" class="B"/><g class="E"><path d="M332.15,217.48l-.15,6.79,8-.45s1.08-4.25-3.52-7.21Z"/><path d="M334.57 231.07l5.54-3.19-.1-4.06-8.01.45 2.57 6.8z"/></g><path d="M327.56 152.51l1.68 1.59 1.56 1.56 3 3.22a86.59 86.59 0 0 1 5.51 7 58.85 58.85 0 0 1 4.81 8 30 30 0 0 1 3.16 10.35 13.7 13.7 0 0 1 .09 1.61v.84.58l-.17 2.27-.61 4.41a85.32 85.32 0 0 1-1.82 8.47 99.07 99.07 0 0 1-5.7 16 4 4 0 0 1-7.64-2v-.16l1.29-15.88.34-7.74v-3.75l-.08-1.8v-.44-.19a3.23 3.23 0 0 0-.09-.42 20.51 20.51 0 0 0-2.24-5 59.07 59.07 0 0 0-4-5.75l-4.81-5.71-2.57-2.79-1.3-1.37-1.23-1.27-.2-.21a8 8 0 0 1 11.17-11.44zM316 151.37c1-.14 1.26-2.48.46-4-.65-1.25-3-1.08-5.1-.54a16 16 0 0 0-4.79 1.92c-2.12 1.17-1.35 2.58-.86 3.69s1.42 3.66 3.42 2.31 5.47-3.17 6.87-3.38zm25.22 251.26c-.15-3.19.69-8.34-7.16-5-4.69 2 1.9 7.28 1.9 7.28z" class="C"/><path d="M242.9 154h10.74a1.47 1.47 0 0 1 1.34 1l5.62 20a.77.77 0 0 1-.75 1H249.1a1.49 1.49 0 0 1-1.33-1l-5.62-20a.76.76 0 0 1 .75-1z" class="B"/><path d="M248.75 167.48l-2.25-7.83-3.92 1.56 1.42 9.26 4.75-2.99z" class="E"/><path d="M254.5 154.72h0a.51.51 0 0 1 .46.37l5.63 19.91a.26.26 0 0 1-.26.36h0a.5.5 0 0 1-.46-.36l-5.61-19.94a.27.27 0 0 1 .24-.34z" class="G"/><g class="B"><path d="M115 76.3h7.57v1H115zM87 87.64h-1A11.35 11.35 0 0 1 97.29 76.3h13.6v1h-13.6A10.35 10.35 0 0 0 87 87.64z"/><rect x="89.46" y="79.8" width="133.73" height="35.1" rx="7.83"/></g><g class="F"><use xlink:href="#F"/><use xlink:href="#F" x="15.62"/><use xlink:href="#G"/><use xlink:href="#G" x="15.62"/><path d="M202.83,94.32l.82,1.67a1,1,0,0,0,.76.54l1.84.27-1.33,1.3a1,1,0,0,0-.29.88l.31,1.84L203.3,100a1.12,1.12,0,0,0-.47-.11,1,1,0,0,0-.46.11l-1.65.87L201,99a1,1,0,0,0-.29-.88l-1.33-1.3,1.84-.27A1,1,0,0,0,202,96l.82-1.67m0-2.26-1.72,3.48-3.85.56,2.79,2.72-.66,3.83,3.44-1.81,3.44,1.81-.66-3.83,2.79-2.72-3.85-.56-1.72-3.48Z" class="G"/><circle cx="113.85" cy="97.35" r="12.01" class="D"/><path d="M123.77,97.35a9.91,9.91,0,0,1-18.63,4.72,9.76,9.76,0,0,1-1.2-4.72,9.92,9.92,0,0,1,19.83,0Z"/></g><path d="M122.57,102.07a9.9,9.9,0,0,1-17.43,0,15.7,15.7,0,0,1,17.43,0Z" class="C"/><path d="M118.27,94a4.42,4.42,0,1,1-4.42-4.42A4.42,4.42,0,0,1,118.27,94Z" fill="#ffc3bd"/><g class="B"><path d="M187.21 201.78h20.01v1h-20.01z"/><rect x="89.46" y="164.18" width="133.73" height="35.1" rx="7.83"/></g><g class="F"><use xlink:href="#H"/><use xlink:href="#H" x="15.62"/><use xlink:href="#I"/><use xlink:href="#I" x="15.62"/><use xlink:href="#I" x="31.24"/><circle cx="113.85" cy="181.73" r="12.01" transform="matrix(.707107 -.707107 .707107 .707107 -95.15 133.73)" class="D"/><path d="M123.77,181.72a9.91,9.91,0,0,1-18.63,4.73,9.8,9.8,0,0,1-1.2-4.73,9.92,9.92,0,0,1,19.83,0Z"/></g><path d="M122.57,186.45a9.91,9.91,0,0,1-17.43,0,15.7,15.7,0,0,1,17.43,0Z" opacity=".5" class="B"/><path d="M118.27 178.33a4.42 4.42 0 1 1-4.42-4.41 4.42 4.42 0 0 1 4.42 4.41z" fill="#ffb573"/><g class="B"><rect x="89.46" y="121.99" width="133.73" height="35.1" rx="7.83"/><path d="M219.56 142.54l-8.4 14.55h21l-12.6-14.55z"/></g><g class="F"><use xlink:href="#J"/><use xlink:href="#J" x="15.62"/><path d="M171.59 136.5l.82 1.67a1 1 0 0 0 .76.55l1.83.28-1.33 1.3a1 1 0 0 0-.29.88l.31 1.84-1.64-.87a1 1 0 0 0-.47-.12.93.93 0 0 0-.46.12l-1.65.87.31-1.84a1 1 0 0 0-.29-.88l-1.33-1.3 1.84-.27a1 1 0 0 0 .76-.55l.82-1.67m0-2.26l-1.72 3.49-3.85.56 2.79 2.71-.66 3.83 3.44-1.81 3.44 1.81-.66-3.83 2.79-2.71-3.85-.56-1.72-3.49zm15.63 2.25l.82 1.67a1 1 0 0 0 .76.55l1.84.27-1.33 1.3a1 1 0 0 0-.29.88l.31 1.84-1.64-.87a1 1 0 0 0-.47-.12.93.93 0 0 0-.46.12l-1.65.87.31-1.84a1 1 0 0 0-.29-.88l-1.33-1.3 1.84-.27a1 1 0 0 0 .76-.55l.82-1.67m0-2.26l-1.72 3.49-3.85.56 2.79 2.71-.66 3.83 3.44-1.81 3.44 1.81L190 141l2.79-2.71-3.85-.56-1.72-3.49zm15.62 2.26l.82 1.67a1 1 0 0 0 .76.55l1.84.27-1.33 1.3a1 1 0 0 0-.29.88l.31 1.84-1.64-.87a1 1 0 0 0-.47-.12.93.93 0 0 0-.46.12l-1.65.87.31-1.84a1 1 0 0 0-.29-.88l-1.33-1.3 1.84-.27a1 1 0 0 0 .76-.55l.82-1.67m0-2.26l-1.72 3.49-3.85.56 2.79 2.71-.66 3.83 3.44-1.81 3.44 1.81-.66-3.83 2.79-2.71-3.85-.56-1.72-3.49z" class="G"/><circle cx="113.85" cy="139.54" r="12.01" class="D"/><path d="M123.77,139.54a9.91,9.91,0,0,1-18.63,4.72,9.76,9.76,0,0,1-1.2-4.72,9.92,9.92,0,1,1,19.83,0Z"/></g><path d="M122.57,144.26a9.91,9.91,0,0,1-17.43,0,15.7,15.7,0,0,1,17.43,0Z" class="B"/><path d="M118.27 136.15a4.42 4.42 0 1 1-4.42-4.42 4.41 4.41 0 0 1 4.42 4.42z" fill="#b55b52"/><defs ><path id="B" d="M302.73 295.23C265.9 326.18 232 341 187.12 311.2c-36.59-24.31-19.92-51.36-38.65-82.52-23.28-38.7-68.9-38.56-76-85.62-6.92-45.42 38.53-82.94 83.86-79.78 48.44 3.38 74.56 51.4 115.63 70.3 48.16 22.16 97.47 3.36 140.8 41.36 29.08 25.51 30.87 65-4.58 87.59-32.69 20.86-71.68 4.31-105.45 32.7z"/><path id="C" d="M282.86,217.34s-4,60.57-2.87,82.11c1.1,20.41,1.72,78.31,1.86,93.5a3.26,3.26,0,0,0,3.7,3.19l5.32-.72a3.27,3.27,0,0,0,2.8-2.81c3.44-26.81,7.53-68.17,8.42-90.31,1-25.27,7.22-85,7.22-85Z"/><path id="D" d="M297.13,217.34s5.18,60.58,9.17,82.11c3.84,20.72,21.21,79.74,26.33,93.15a3.25,3.25,0,0,0,4.06,1.93l5.13-1.67a3.26,3.26,0,0,0,2.19-3.71c-5.1-26.33-13.22-64.81-15.24-86.85-2.31-25.27-5.7-85-5.7-85Z"/><path id="E" d="M321.68 174.78l-6.65 3.04-.65 21.48-18.07 11.64 20.23 7.26 5.49 20.77 6.66-3.03 3.72-33.88-10.73-27.28z"/><path id="F" d="M140.35 92.06l1.72 3.48 3.85.56-2.79 2.71.66 3.84-3.44-1.81-3.44 1.81.66-3.84-2.79-2.71 3.85-.56 1.72-3.48z"/><path id="G" d="M171.59 92.06l1.72 3.48 3.85.56-2.78 2.71.65 3.84-3.44-1.81-3.44 1.81.66-3.84-2.79-2.71 3.85-.56 1.72-3.48z"/><path id="H" d="M140.35 176.43l1.72 3.49 3.85.55-2.79 2.72.66 3.83-3.44-1.81-3.44 1.81.66-3.83-2.79-2.72 3.85-.55 1.72-3.49z"/><path id="I" d="M171.59 176.43l1.72 3.49 3.85.55-2.78 2.72.65 3.83-3.44-1.81-3.44 1.81.66-3.83-2.79-2.72 3.85-.55 1.72-3.49z"/><path id="J" d="M140.35 134.24l1.72 3.49 3.85.56-2.79 2.71.66 3.83-3.44-1.81-3.44 1.81.66-3.83-2.79-2.71 3.85-.56 1.72-3.49z"/></defs></svg>