<svg xmlns="http://www.w3.org/2000/svg" viewBox="0 0 500 500" xmlns:v="https://vecta.io/nano"><style><![CDATA[.B{fill:#c7c7c7}.C{fill:#ffc727}.D{opacity:.1}.E{fill:#dbdbdb}.F{fill:#ebebeb}]]></style><g class="F"><path d="M66.13 340.67l7.7-7.7a5.64 5.64 0 0 0 0-8h0a5.65 5.65 0 0 0-8 0l-7.7 7.7a5.64 5.64 0 0 0 0 8h0a5.65 5.65 0 0 0 8 0zM171.31 417l4.89-9.73a5.65 5.65 0 0 0-2.51-7.58h0a5.64 5.64 0 0 0-7.58 2.51l-4.89 9.73a5.64 5.64 0 0 0 2.51 7.58h0a5.64 5.64 0 0 0 7.58-2.51zm-67.42-98.07l5.79-.83a5.65 5.65 0 0 0 4.79-6.39h0a5.64 5.64 0 0 0-6.39-4.79l-5.79.83a5.64 5.64 0 0 0-4.79 6.39h0a5.65 5.65 0 0 0 6.39 4.79zm-45.96 76.41l-.83-5.79a5.64 5.64 0 0 0-6.39-4.79h0a5.63 5.63 0 0 0-4.78 6.38l.82 5.8a5.66 5.66 0 0 0 6.39 4.79h0a5.65 5.65 0 0 0 4.79-6.39z"/><rect x="167.89" y="374.56" width="17.14" height="11.29" rx="2.16" transform="matrix(0 1 -1 0 556.67 203.75)"/><path d="M93.41 444.42l5.65 1.51a5.64 5.64 0 0 0 6.91-4h0a5.65 5.65 0 0 0-4-6.92l-5.65-1.51a5.65 5.65 0 0 0-6.92 4h0a5.67 5.67 0 0 0 4.01 6.92z"/><circle cx="112.97" cy="377.76" r="65.14"/></g><path d="M136.67 339.12a14.63 14.63 0 0 1-2.41 8.84 17.63 17.63 0 0 1-7.08 6.26 12.92 12.92 0 0 1-9.57.81 13.44 13.44 0 0 1-7.28-5.6 19.45 19.45 0 0 0 7.81 3.45 11.43 11.43 0 0 0 4 0 12.63 12.63 0 0 0 3.79-1.22l1.83-1c.6-.37 1.16-.75 1.69-1.19a18.9 18.9 0 0 0 3-2.84 22.3 22.3 0 0 0 4.22-7.51zm-23.42 3.75a9.37 9.37 0 0 1 1.36-6.23 11.73 11.73 0 0 1 4.9-4.46 8.88 8.88 0 0 1 6.8-.49 8.65 8.65 0 0 1 4.87 4.16 14.58 14.58 0 0 0-5.4-2 8.77 8.77 0 0 0-5 .89 15.45 15.45 0 0 0-7.53 8.13zm-22.06 44.74a8.84 8.84 0 0 1 .16 6.21 10.81 10.81 0 0 1-3.76 5.27 8.54 8.54 0 0 1-6.41 1.73 8.72 8.72 0 0 1-5.46-3 15.72 15.72 0 0 0 5.56.78 8.4 8.4 0 0 0 4.58-1.77 13.31 13.31 0 0 0 3.46-3.89 16.18 16.18 0 0 0 1.87-5.33zM77.7 395a5.66 5.66 0 0 1-.44-4.36 7.25 7.25 0 0 1 2.62-3.81 5.88 5.88 0 0 1 4.65-1.18 5.6 5.6 0 0 1 3.7 2.4 12.86 12.86 0 0 0-3.8-.17 6 6 0 0 0-2.83 1.21 11.06 11.06 0 0 0-3.9 5.91zm-9.87-21.89a5.87 5.87 0 0 1 1.86 4.19 6.37 6.37 0 0 1-1.85 4.6 5.69 5.69 0 0 1-4.77 1.63 6.76 6.76 0 0 1-4.09-2 21.16 21.16 0 0 0 4.02-.23 5 5 0 0 0 2.79-1.4 6.61 6.61 0 0 0 1.65-2.83 12 12 0 0 0 .39-3.96zm-8.07 6.33a3.72 3.72 0 0 1-1.62-2.88 4.43 4.43 0 0 1 1.29-3.42A4.06 4.06 0 0 1 63 372a4.23 4.23 0 0 1 2.79 1.69 21.93 21.93 0 0 0-2.74.55 3.39 3.39 0 0 0-1.59.91 5.1 5.1 0 0 0-1.09 1.65 9.55 9.55 0 0 0-.61 2.64zm97.33-25.62a5.79 5.79 0 0 1-1.4 4.36 6.39 6.39 0 0 1-4.43 2.22 5.7 5.7 0 0 1-4.65-1.95 6.8 6.8 0 0 1-1.76-4.19 21.36 21.36 0 0 0 3.21 2.49 5.11 5.11 0 0 0 3 .81 6.66 6.66 0 0 0 3.11-1 12.34 12.34 0 0 0 2.92-2.74zm-10.24-.63a3.72 3.72 0 0 1 .71-3.23 4.45 4.45 0 0 1 3.23-1.7 4 4 0 0 1 3.42 1.51 4.21 4.21 0 0 1 1 3.12 20 20 0 0 0-2.42-1.42 3.33 3.33 0 0 0-1.79-.37 5.07 5.07 0 0 0-1.91.5 9.7 9.7 0 0 0-2.24 1.59z" class="B"/><path d="M120.57 398.08a14.43 14.43 0 1 0-7.24-19 14.39 14.39 0 0 0 7.24 19z" class="E"/><path d="M133.19 378.11a13 13 0 0 1 7.42 9.19 14.37 14.37 0 1 0-25.11 7 13.09 13.09 0 0 1 17.69-16.16zm13.16 9.21a18.58 18.58 0 0 1-3.18 10.76 22 22 0 0 1-8.68 7.57 15.84 15.84 0 0 1-11.6 1.06 17.05 17.05 0 0 1-9.06-6.66 22.92 22.92 0 0 0 9.59 4.5 21.72 21.72 0 0 0 2.53.27 13.9 13.9 0 0 0 2.5-.2 16 16 0 0 0 4.79-1.52l2.28-1.24a15.55 15.55 0 0 0 2.12-1.49 22.73 22.73 0 0 0 3.74-3.6 26.25 26.25 0 0 0 4.97-9.45z" class="B"/><path d="M162.12 392.8a5.39 5.39 0 1 0-4-6.46 5.38 5.38 0 0 0 4 6.46z" class="E"/><path d="M165.32 384.58a4.87 4.87 0 0 1 3.37 2.84 5.36 5.36 0 1 0-8.7 4.34 4.81 4.81 0 0 1-.51-3.51 4.88 4.88 0 0 1 5.84-3.67zm5.47 2.42a6.63 6.63 0 0 1-.27 4.23 8 8 0 0 1-2.66 3.47 6 6 0 0 1-4.28 1.21 6.1 6.1 0 0 1-3.79-1.93 9.1 9.1 0 0 0 3.84.82 5.82 5.82 0 0 0 3.38-1.23 9.77 9.77 0 0 0 3.78-6.57z" class="B"/><path d="M125.17 427.66a7.65 7.65 0 1 0-7.19-8.05 7.63 7.63 0 0 0 7.19 8.05z" class="E"/><path d="M127.63 415.38a6.88 6.88 0 0 1 5.42 3.14 7.62 7.62 0 1 0-11.11 8.21 6.83 6.83 0 0 1-1.58-4.79 6.92 6.92 0 0 1 7.27-6.56zm8.26 2.06a10 10 0 0 1 .43 5.92 11.67 11.67 0 0 1-2.85 5.38 8.47 8.47 0 0 1-5.52 2.72 9.15 9.15 0 0 1-5.74-1.55 12 12 0 0 0 5.6.45 8.34 8.34 0 0 0 4.62-2.59 13 13 0 0 0 2.83-4.7 13.75 13.75 0 0 0 .63-5.63z" class="B"/><path d="M91.09 353.87c-3.45 5.27-11.07 6.39-17 2.5s-8-11.32-4.54-16.59 11.06-6.39 17-2.5 7.98 11.32 4.54 16.59z" class="E"/><path d="M72.15 344.72a10 10 0 0 0-.56 9.61c-4-4.1-5-10.09-2.06-14.56 3.44-5.26 11.06-6.38 17-2.49a13.05 13.05 0 0 1 6.18 11.79 12.43 12.43 0 0 0-5.13-6.63c-5.38-3.52-12.3-2.51-15.43 2.28zm23.14.45a12.24 12.24 0 0 1 1.71 9.29 11.62 11.62 0 0 1-2.15 4.54 14.39 14.39 0 0 1-3.73 3.43 13.85 13.85 0 0 1-4.81 1.63 16.11 16.11 0 0 1-4.91-.14 20.13 20.13 0 0 1-8.63-3.74 40.15 40.15 0 0 0 8.87 1.53 14.56 14.56 0 0 0 8-1.72 12.35 12.35 0 0 0 3.08-2.66 11.18 11.18 0 0 0 2.11-3.51 16.09 16.09 0 0 0 .46-8.65z" class="B"/><circle cx="370.95" cy="390.79" r="32.59" transform="matrix(.727294 -.686326 .686326 .727294 -167.05 361.14)" fill="#455a64"/><path d="M340.62 402.75a38.32 38.32 0 0 1 9.63-7.14c6.21-3.36 23.47-7.87 31.25-12.62 10.94-6.67 11.86-13 11.54-16.18a32.77 32.77 0 0 0-10.62-6.52c-.55 3.35-2.78 13.84-21.17 22-9.5 4.23-19 2.68-22.28 2.16a32.48 32.48 0 0 0 1.65 18.3zm14.69 16.64A32.65 32.65 0 0 0 395.7 412a26 26 0 0 0-6-1.85c-8.91-1.42-18.19 3.54-21.54 5.79a19.14 19.14 0 0 1-12.85 3.45zm-12.37-11.92l.47.76.44.67 1 1.49c.32.49.67.86 1 1.27l.39.46.45.51.46.5.56.58.56.56.5.47 1.13 1h0c2.07.45 4.76 0 8.59-1.92 5.72-2.79 11.63-8.87 22.7-13.89a40.73 40.73 0 0 1 21.81-3.16h0a32.5 32.5 0 0 0-2.42-19.57c-2.08.09-8.69 1.58-22 14.48a85 85 0 0 1-13.55 11c-11.65 7.35-18.84 6-21.89 4.79h0z" fill="#37474f"/><path d="M372.49 372c.7 1.27 2.76 1.48 4.61.47s2.77-2.87 2.08-4.14-2.76-1.47-4.61-.46-2.77 2.81-2.08 4.13zm9.4 1.43c.39.71 1.61.8 2.72.19s1.68-1.68 1.29-2.39-1.61-.81-2.72-.2-1.68 1.68-1.29 2.4zm-21.54 42.15c.6 1.09 2.39 1.25 4 .36s2.44-2.48 1.85-3.57-2.39-1.24-4-.36-2.44 2.49-1.85 3.57zm6.08.58a1.63 1.63 0 1 0 .81-1.8 1.43 1.43 0 0 0-.81 1.8zm.69-3.1a.9.9 0 0 0 1.22.15c.49-.27.73-.77.54-1.11a.91.91 0 0 0-1.23-.15c-.48.27-.72.77-.53 1.11zm20.25-1.93c.53 1 2 1.18 3.3.47s1.91-2.07 1.38-3-2-1.18-3.3-.47-1.91 2.03-1.38 3zm-1.19-4.35a1.29 1.29 0 1 0 .58-1.62 1.22 1.22 0 0 0-.58 1.62zm-41.29 3.61a281.6 281.6 0 0 0 58.65-19.34c14.6-6.86 23.61-13.43 22.39-17.14s-12.17-3.76-27.6-.79c.42.65.81 1.31 1.19 2l.41.77c8.21-1.05 13.65-.57 14.39 1.69s-3.48 6-10.93 10.08A180.49 180.49 0 0 1 374 399.92a180.8 180.8 0 0 1-31 7.55c-8.39 1.11-14 .64-14.72-1.65s3.35-5.85 10.54-9.86a30.54 30.54 0 0 1-.36-3.3C323.88 399.5 314.74 406.3 316 410s12.67 3.66 28.89.39z" fill="#263238"/><path d="M346.73 412.62a288.17 288.17 0 0 0 28.83-7.76h0a289.24 289.24 0 0 0 27.78-10.49c20.28-9 33.23-18.17 31.54-23.43s-17.28-5.15-38.64-.7a37.91 37.91 0 0 1 .92 1.2c17.94-3.44 30.8-3.25 32.25 1.26s-9.07 12.34-25.94 20.12a261.41 261.41 0 0 1-28.29 10.9 260.13 260.13 0 0 1-29.47 7.72c-18.15 3.52-31.19 3.35-32.65-1.2s8.8-12.13 25.28-19.8c0-.51 0-1 .06-1.53-19.86 8.85-32.48 17.9-30.81 23.1s17.53 5.15 39.14.61z" fill="#37474f"/><circle cx="229.75" cy="219.34" r="19.23" transform="matrix(.946368 -.323092 .323092 .946368 -58.55 86.01)" class="F"/><path d="M248.16 224.93a22.62 22.62 0 0 0-6-3.74c-3.81-1.68-14.18-3.52-19-5.95-6.75-3.4-7.59-7.07-7.55-9a19.19 19.19 0 0 1 5.93-4.34c.48 1.94 2.29 8 13.5 12 5.79 2 11.33.68 13.21.22a19.13 19.13 0 0 1-.09 10.81zm-7.85 10.49A19.24 19.24 0 0 1 216.2 233a15.11 15.11 0 0 1 3.45-1.37c5.17-1.26 10.86 1.21 12.94 2.38a11.3 11.3 0 0 0 7.72 1.41zm6.69-7.6l-.24.46c-.07.15-.15.28-.23.42q-.26.48-.54.93l-.53.79-.21.29-.25.29-.25.32q-.14.18-.3.36-.16.18-.3.36l-.28.3-.61.64h0c-1.19.37-2.8.21-5.14-.72-3.5-1.37-7.26-4.67-14-7.09a24.05 24.05 0 0 0-12.94-.83h0a19.14 19.14 0 0 1 .5-11.62c1.22-.05 5.18.51 13.6 7.47a50.7 50.7 0 0 0 8.49 5.81c7.21 3.77 11.37 2.65 13.11 1.78h.12z" class="E"/><path d="M228.74 235.05c.34-.78 1.54-1 2.68-.51s1.78 1.53 1.44 2.31-1.54 1-2.68.52-1.78-1.53-1.44-2.32zm5.44-1.37c.19-.44.9-.55 1.59-.25s1.08.89.89 1.33-.91.56-1.59.26-1.07-.89-.89-1.34zm-14.91-23.62c.29-.66 1.33-.86 2.33-.42s1.57 1.33 1.27 2-1.33.86-2.33.42-1.54-1.33-1.27-2zm3.54-.66a.83.83 0 0 1 1.13-.27.84.84 0 0 1 .57 1 1 1 0 0 1-1.7-.74zm.57 1.78a.53.53 0 0 1 .71-.15c.3.13.46.41.37.62a.52.52 0 0 1-.71.16.53.53 0 0 1-.37-.63zm12 .05a1.64 1.64 0 1 1 1 1.71 1.42 1.42 0 0 1-1-1.71zm-.46 2.62a.76.76 0 0 1 1.39.61.76.76 0 0 1-1.39-.61z" class="B"/><g transform="matrix(.928356 -.371692 .371692 .928356 -25.04 41.35)"><circle cx="94.75" cy="85.63" r="19.23" class="C"/><circle cx="94.75" cy="85.63" r="19.23" class="D"/></g><g class="D"><path d="M113.16 91.22a22.73 22.73 0 0 0-6-3.74C103.34 85.8 93 84 88.17 81.54c-6.75-3.41-7.59-7.08-7.55-9a19.11 19.11 0 0 1 5.94-4.34c.48 1.94 2.28 8 13.49 12 5.79 2 11.33.67 13.21.21a19.13 19.13 0 0 1-.1 10.81zm-7.86 10.49a19.26 19.26 0 0 1-24.11-2.43 15.3 15.3 0 0 1 3.45-1.37c5.17-1.26 10.87 1.22 13 2.38a11.27 11.27 0 0 0 7.66 1.42zm6.7-7.6a5.21 5.21 0 0 1-.24.47l-.22.42-.55.92-.53.8-.21.28a3.81 3.81 0 0 1-.24.32l-.24.32-.3.37-.31.35-.27.31-.62.63h0c-1.2.36-2.8.2-5.15-.72-3.49-1.37-7.26-4.67-14-7.1a24.12 24.12 0 0 0-12.93-.83h0A19.14 19.14 0 0 1 76.68 79c1.23-.05 5.18.51 13.61 7.47a49.32 49.32 0 0 0 8.49 5.81C106 96.1 110.15 95 111.89 94.1h.11z"/></g><g class="D"><path d="M93.73 101.35c.34-.79 1.54-1 2.68-.52s1.79 1.53 1.45 2.31-1.55 1-2.68.52-1.79-1.53-1.45-2.31zm5.45-1.35c.19-.44.9-.56 1.58-.26s1.08.9.89 1.34-.9.55-1.59.26-1.06-.92-.88-1.34zM84.26 76.36c.29-.67 1.33-.86 2.33-.43s1.57 1.33 1.28 2-1.34.86-2.34.42S84 77 84.26 76.36zm3.54-.67a.84.84 0 0 1 1.13-.27.73.73 0 1 1-.56 1.29.85.85 0 0 1-.57-1.02z"/><path d="M88.37 77.48a.53.53 0 0 1 .71-.16c.3.14.47.41.38.63a.54.54 0 0 1-.71.15c-.3-.1-.47-.41-.38-.62zm12.01.04a1.63 1.63 0 1 1 1 1.72 1.42 1.42 0 0 1-1-1.72zm-.47 2.62a.76.76 0 0 1 1.39.61.76.76 0 0 1-1.39-.61z"/></g><path d="M233.64,122.84c-.71-.85-41.85-19.93-79.11,8.5-34.25,26.14-46.14,75.27-41.59,76.45,5.57,1.44,20.83-22,50.12-34.89,10.39-4.57,26.92,0,26.92,0Z" class="C"/><path d="M190 172.89a65.08 65.08 0 0 0-15-2l26.35-55.08c18.43.17 31.93 6.56 32.34 7z" class="D"/><path d="M301.41,202.77c.72.84,12.82,44.55-21.33,76.65-31.39,29.52-81.8,33.21-82.22,28.53-.51-5.73,25.12-16.95,42.62-43.74,6.2-9.5,4.41-26.56,4.41-26.56Z" class="C"/><path d="M303 236.05l-58.66 17.07a65.15 65.15 0 0 0 .51-15.47l56.52-34.88c.45.48 4.63 14.97 1.63 33.28z" class="D"/><path d="M205.63 256.2l-40.18-47.39s21-56.19 70.76-93.93c24.87-18.83 54-32.92 80.17-42.24 36.05-12.92 66.21-16.64 70.88-11.16s-4 34.66-22.58 68.13c-13.49 24.21-32.17 50.69-54.81 72.15-45.38 42.96-104.24 54.44-104.24 54.44z" class="B"/><path d="M303.24 181.47A35.83 35.83 0 1 1 307.4 131a35.84 35.84 0 0 1-4.16 50.47z" fill="#a6a6a6"/><path d="M305.2 178.14a35.83 35.83 0 1 1 4.16-50.5 35.84 35.84 0 0 1-4.16 50.5z" class="C"/><path d="M298.11 169.75a24.85 24.85 0 1 1 2.86-35 24.85 24.85 0 0 1-2.86 35z" fill="#fff"/><path d="M298.12 169.75a24.83 24.83 0 0 1-7.95 4.55l-20-1.63a24.68 24.68 0 0 1-7.1-5.78 24.36 24.36 0 0 1-3.61-5.65l43.1 3.51a24.49 24.49 0 0 1-4.44 5zm5-32.07l-39.78-3.24a24.29 24.29 0 0 1 2.6-2.57 24.84 24.84 0 0 1 35 2.86 24.11 24.11 0 0 1 2.18 2.95zm2.16 21.92l-47.6-3.89a20 20 0 0 1-.35-2.21l48.64 4-.69 2.1z" class="F"/><path d="M364.68 129.61l-48.3-57c36.05-12.89 66.21-16.61 70.88-11.13s-3.96 34.66-22.58 68.13z" class="C"/><path d="M330.58 77.45a2.09 2.09 0 1 1 .24-2.94 2.09 2.09 0 0 1-.24 2.94zm8.59 10.14a2.09 2.09 0 1 1-2.7-3.19 2.09 2.09 0 0 1 2.7 3.19zm8.59 10.13a2.09 2.09 0 1 1 .25-3 2.08 2.08 0 0 1-.25 3zm8.6 10.14a2.09 2.09 0 1 1 .24-3 2.09 2.09 0 0 1-.24 3zM365 118a2.09 2.09 0 1 1 .24-2.95A2.09 2.09 0 0 1 365 118z" fill="#fff"/><path d="M177 207.7a2.09 2.09 0 0 1-2.7-3.19 2.09 2.09 0 1 1 2.7 3.19zm8.64 10.14a2.09 2.09 0 1 1 .24-3 2.09 2.09 0 0 1-.24 3zm8.59 10.16a2.09 2.09 0 1 1 .24-2.95 2.09 2.09 0 0 1-.24 2.95zm8.59 10.11a2.09 2.09 0 1 1 .24-3 2.09 2.09 0 0 1-.24 3zm8.59 10.13a2.09 2.09 0 1 1 .25-3 2.08 2.08 0 0 1-.25 3z" fill="#a6a6a6"/><path d="M385,60.07c-27.82,2-76,18.84-126.69,58.6-37.46,29.37-64.79,80.77-77.53,108.22l-15.33-18.08s21-56.19,70.76-93.93c24.87-18.83,54-32.92,80.17-42.24C348.69,61.05,376.26,56.85,385,60.07Z" fill="#fff" opacity=".2"/><path d="M187.68 263.92l-32.67-38.54 12.71-13.89 35.74 42.16-15.78 10.27z" class="C"/><path d="M203.46 253.65l-7.69 5-32.91-41.85 4.86-5.3 35.74 42.15z" class="D"/><path d="M364.17 134.76l-14.93-1-7.02 14.22.64-15.84-13.58-6.28 15.08.15 6.86-13.37-.36 15.02 13.31 7.1zm-3.67-55.15l-8.35-.55-3.92 7.95.36-8.86-7.59-3.51 8.43.08 3.83-7.47-.2 8.4 7.44 3.96zm-67.52 169.52l-8.34-.56-3.92 7.95.35-8.85-7.59-3.51 8.43.08 3.84-7.47-.21 8.4 7.44 3.96zm-148.52-73.75l-8.35-.56-3.92 7.95.36-8.85-7.59-3.51 8.43.08 3.83-7.47-.2 8.39 7.44 3.97z" fill="#fcfcfc"/><path d="M180.5,255.32c-15.15,10.21-28.52,23.24-38.28,38.81a104.42,104.42,0,0,0-16.39,52.25,95.75,95.75,0,0,0,3.41,27.88,99.77,99.77,0,0,0,11.56,26.2A114.55,114.55,0,0,0,159.41,423a144.89,144.89,0,0,0,23.72,18,146,146,0,0,1-26-15.31,119.07,119.07,0,0,1-22-21.18,107.34,107.34,0,0,1-23.22-57.64c-1.88-21.31,2.62-43.18,11.94-62.69s23.25-36.84,39.71-51Z" opacity=".6" class="C"/><path d="M154.59 278.55l-5.96 1.1-1.33 6.28-1.33-6.28-5.96-1.11 5.94-1.45 1.35-5.93 1.36 5.93 5.93 1.46zm-21.93 117.63l-3.33.62-.74 3.51-.75-3.51-3.33-.62 3.32-.81.76-3.31.76 3.31 3.31.81zm-1.79-30.47l-3.33.61-.74 3.52-.74-3.52-3.34-.61 3.32-.81.76-3.32.76 3.32 3.31.81zm19.32-106.75l-3.33.62-.75 3.51-.74-3.51-3.33-.62 3.32-.81.75-3.31.76 3.31 3.32.81zm-9.65 144.82a1 1 0 0 0 0 1.93 1 1 0 0 0 0-1.93zm27.56-149.52a1 1 0 0 0 0 1.93 1 1 0 0 0 0-1.93zm-51.98 86.11a1 1 0 0 0 0 1.93 1 1 0 0 0 0-1.93zm22.7 58.38a.69.69 0 0 0 0 1.37.69.69 0 0 0 0-1.37zm-23.05-92.12a.68.68 0 0 0 0 1.36.68.68 0 0 0 0-1.36zm6.95 69.86a1.86 1.86 0 0 0 0 3.71 1.86 1.86 0 0 0 0-3.71zm1.79-76.14a1.85 1.85 0 0 0 0 3.7 1.85 1.85 0 0 0 0-3.7z" fill="#fff"/></svg>