<svg xmlns="http://www.w3.org/2000/svg" viewBox="0 0 500 500" xmlns:v="https://vecta.io/nano"><style><![CDATA[.B{fill:#263238}.C{fill:#407bff}.D{fill:#ffc3bd}]]></style><ellipse cx="250" cy="416.24" rx="193.89" ry="11.32" fill="#f5f5f5"/><path d="M231.73 118.33c-3.5-1.07-7.84 5.23-10.51 12.29s-7.08 8.27-11.8 11.1c8.72 12.2 29.05 9.65 35.81 8.11s12.81 3.84 21.44-2.49c7.73-5.67 7.16-22.56-6.49-30.26 3.02-10.37-28.12-11.41-28.45 1.25z" class="B"/><path d="M268.74 224.17h-9.6a5.26 5.26 0 0 1-5.3-6.21l1.08-7.33a7.46 7.46 0 0 1 7.12-6.21h9.59a5.25 5.25 0 0 1 5.3 6.21l-1.07 7.37a7.48 7.48 0 0 1-7.12 6.17z" fill="#fff"/><path d="M268.74 224.42h-9.6a5.54 5.54 0 0 1-4.28-1.89 5.63 5.63 0 0 1-1.26-4.61l1.07-7.33a7.71 7.71 0 0 1 7.37-6.42h9.59a5.57 5.57 0 0 1 4.29 1.88 5.68 5.68 0 0 1 1.26 4.61L276.1 218a7.7 7.7 0 0 1-7.36 6.42zM262 204.67a7.19 7.19 0 0 0-6.87 6l-1.04 7.33a5.18 5.18 0 0 0 1.15 4.21 5 5 0 0 0 3.9 1.72h9.6a7.19 7.19 0 0 0 6.87-6l1.07-7.33a5.15 5.15 0 0 0-1.14-4.21 5 5 0 0 0-3.91-1.71zm13.39 9.25h-.05a.25.25 0 0 1-.19-.3c.83-3.88.71-5.66-2.2-6.59a.253.253 0 1 1 .16-.48c3.53 1.14 3.28 3.69 2.53 7.18a.26.26 0 0 1-.25.19z" class="C"/><path d="M293.46 112.35l16.81-17.4 37.98 29.36-16.81 17.41-37.98-29.37z" class="B"/><path d="M311.24 93.95l-.97 1 37.98 29.36 2.3-8.17-39.31-22.19z" class="C"/><path d="M298.78,106.9c-2.46-1.67-4.06-3.72-4.4-5.63a3.4,3.4,0,0,1,.54-2.66c2.75-3.82,6.24-1.45,9.93,1.06l.49.33-.27.39-.49-.33c-3.64-2.48-6.79-4.63-9.28-1.18a3,3,0,0,0-.46,2.3c.32,1.79,1.85,3.74,4.21,5.33Z" class="B"/><g class="D"><path d="M264.69 159.57L279 148.82l7.18-5.38 1.75-1.32.87-.65.42-.32.21-.18a13.11 13.11 0 0 0 2.12-2.66 32.88 32.88 0 0 0 3.18-7.36 81.24 81.24 0 0 0 2-8.34l1.3-8.69.81-8.79v-.08a2.27 2.27 0 0 1 4.53 0 106 106 0 0 1-.08 18.51 69.27 69.27 0 0 1-1.47 9.35 38 38 0 0 1-3.39 9.4 20 20 0 0 1-3.27 4.55l-.6.58-.46.4-.88.76-1.77 1.52q-3.45 2.94-7 5.8l-7.12 5.64-7.32 5.43h0a4.58 4.58 0 0 1-5.38-7.4z"/><path d="M298.92,107.47l-7.81-3.67,8.07-4.21s6.24,3.19,4.24,7.74Z"/><path d="M289.47 98.43l6.95-3.16 2.76 4.32-8.07 4.21-1.64-5.37z"/></g><path d="M273.82 163.66c.14 6.49-.77 20-5.33 48h-36.35c.61-14.79 1.33-24.06-5.74-54.42a99 99 0 0 1 14.73-1.89 115 115 0 0 1 16.51 0c3.55.32 7.35.9 10.25 1.39a7.15 7.15 0 0 1 5.93 6.92z" class="B"/><path d="M273 207h0a.26.26 0 0 1-.22-.29C276.09 184 243 159.31 236 156a.25.25 0 1 1 .21-.45c4.16 2 14.28 9.2 22.79 18.52 7.51 8.21 16.08 20.55 14.31 32.74a.26.26 0 0 1-.31.19z" class="C"/><path d="M242.77,136.79c1,5.31,2.08,15-1.64,18.59a44.48,44.48,0,0,0,14.78,10.31c7.1-4.45,1.73-10.31,1.73-10.31-5.92-1.42-5.77-5.81-4.74-9.94Z" class="D"/><path d="M246.9 140.32l6 5.12a17 17 0 0 0-.51 2.93c-2.26-.33-5.37-2.81-5.61-5.18a8 8 0 0 1 .12-2.87z" opacity=".2"/><path d="M236.46 130c3.49 8.16 4.8 11.7 10.54 14.48 8.65 4.18 17.92-1.89 16.93-10.94-.88-8.14-6.44-20.13-15.8-20.54a12.12 12.12 0 0 0-11.67 17z" class="D"/><g class="B"><path d="M246.71 117.46c2 4.89-5.83 14.46-11.45 18.22-7.16-14.9-2.9-21.09 11.45-18.22z"/><path d="M253.14 112.54c9.67 2.46-13.75 10.59-20.5 11 7-11.46 11.42-13.96 20.5-11z"/></g><path d="M268.49 211.69s-3.13 65.47-2.83 92.77c.31 28.4-18.32 99.67-18.32 99.67l-7.17-2 6.84-97.59c-5.12-30.4-7.95-92.89-7.95-92.89z" class="D"/><path d="M246.76 402.49l-6.68-1.55a.73.73 0 0 0-.85.44l-2.73 6.67a1.46 1.46 0 0 0 1.05 1.9l8 1.59c2.68.62 7.3 2.86 11.09 2.86s3.08-3.58 1.49-3.86c-5.75-1.05-6-3.09-10.08-7.17a2.94 2.94 0 0 0-1.29-.88z" class="C"/><path d="M259,211.69s-20.07,94.07-24.86,103.12c-6.46,12.22-66.79-5.11-68.85-5.07l-.3-6.19s29.71-.68,54.33.55c0-30.83,12.83-92.41,12.83-92.41Z" class="D"/><path d="M166.12 309.66l4.48-5.2a.72.72 0 0 0 0-.95L166 298a1.45 1.45 0 0 0-2.17.05l-5.15 6.38-5.77 6.5c-2.67 2.68-.13 5.52 1.19 4.6 4.8-3.35 5.11-3.33 10.64-5.08a3 3 0 0 0 1.38-.79z" class="C"/><g class="B"><path d="M250 127.81c.24.68.8 1.1 1.24.95s.61-.84.37-1.52-.8-1.11-1.25-.95-.64.84-.36 1.52zm7.64-2.74c.25.68.8 1.1 1.25.94s.61-.83.36-1.51-.8-1.11-1.24-1-.61.89-.37 1.57z"/><path d="M257.83 123.66l1.46-1s-.38 1.52-1.46 1z"/></g><path d="M256,127a19.36,19.36,0,0,0,4,3.48,3.1,3.1,0,0,1-2.26,1.32Z" fill="#ed847e"/><path d="M255.13 135.6a8.5 8.5 0 0 0 1.17-.31.21.21 0 1 0-.14-.4 5.67 5.67 0 0 1-5.14-.54.21.21 0 1 0-.26.34 5.94 5.94 0 0 0 4.37.91z" class="B"/><path d="M236.09 135.05a6.46 6.46 0 0 0 4 2.86c2.22.49 3.2-1.53 2.48-3.56-.66-1.83-2.6-4.28-4.78-3.86a2.91 2.91 0 0 0-1.7 4.56z" class="D"/><path d="M242.29 138.53a2 2 0 1 1-2-2 2 2 0 0 1 2 2z" class="C"/><path d="M247.51 124.94a.45.45 0 0 0 .27-.2 3.41 3.41 0 0 1 2.48-1.8.421.421 0 0 0-.06-.84 4.2 4.2 0 0 0-3.17 2.23.42.42 0 0 0 .17.57.38.38 0 0 0 .31.04zm12.49-4.77a.41.41 0 0 0 .19-.24.42.42 0 0 0-.28-.53 4.22 4.22 0 0 0-3.82.63.43.43 0 1 0 .55.65 3.34 3.34 0 0 1 3-.47.44.44 0 0 0 .36-.04zm-9.86 6.23l1.47-1.05s-.39 1.57-1.47 1.05zm18.35 85.29l-1.11 83.16-48.55-9.85c-2-39.43 3.27-62.37 13.31-73.32z" class="B"/><path d="M268.37 213.67l-36.9-1.19a.53.53 0 0 1-.49-.67l.56-2a.52.52 0 0 1 .52-.38l36.4 1.19a.53.53 0 0 1 .51.54l-.06 2a.53.53 0 0 1-.54.51z" class="C"/><path d="M257.71 270.79l-10.59-19.45 1.31-17.43 9.28 36.88z" opacity=".4"/><g class="D"><path d="M228.16 165.67c-3.15-5.09-6-10.18-8.68-15.49a125.23 125.23 0 0 1-7.13-16.51c-.49-1.46-.93-3-1.31-4.52-.2-.77-.36-1.58-.51-2.39l-.33-2.25-1-8.75c-.52-5.82-.92-11.63-1.09-17.47a2.28 2.28 0 0 1 4.49-.62h0c1.39 5.66 2.6 11.34 3.79 17l1.75 8.44.45 2c.16.6.31 1.21.5 1.84a47.42 47.42 0 0 0 1.31 3.79c1 2.54 2.11 5.1 3.32 7.63a206.48 206.48 0 0 0 3.81 7.58c2.68 5 5.51 10 8.38 14.86v.06a4.57 4.57 0 0 1-7.82 4.75z"/><path d="M211.69,100.28l8.6-4.41-8.39-3.52s-4.5,3.57-3.84,7.24Z"/><path d="M223.45 89.04l-7.18-2.56-5.44 6.86 9.46 2.53 3.16-6.83z"/></g><path d="M174.386 101.648l3.396-2.114.528.849-3.396 2.114zm6.548-4.078l7.182-4.471.528.849-7.182 4.471zm21.566-9.3l18.04 16.16-40.53 31.84-16.09-24 38.58-24z" class="C"/><path d="M221.57 105.36l-1.03-.93-40.53 31.84 9.27 4.05 32.29-34.96zm-13.22-11.6a.23.23 0 0 1-.18-.09.24.24 0 0 1 0-.34c2-1.73 3.51-3.1 5.25-3.6a.24.24 0 0 1 .14.46c-1.64.47-3.16 1.81-5.07 3.5a.21.21 0 0 1-.14.07zm6.75 6.04a.25.25 0 0 1-.18-.08.24.24 0 0 1 0-.34c2.54-2.25 4.13-4.23 4.59-5.72a.25.25 0 0 1 .31-.16.25.25 0 0 1 .16.3c-.5 1.6-2.09 3.6-4.74 5.94a.25.25 0 0 1-.14.06z" class="B"/></svg>