<?xml version="1.0" encoding="utf-8"?>
<!-- Generator: Adobe Illustrator 27.2.0, SVG Export Plug-In . SVG Version: 6.00 Build 0)  -->
<svg version="1.1" id="Layer_1" xmlns="http://www.w3.org/2000/svg" xmlns:xlink="http://www.w3.org/1999/xlink" x="0px" y="0px"
	 viewBox="0 0 512 512" style="enable-background:new 0 0 512 512;" xml:space="preserve">
<style type="text/css">
	.st0{fill-rule:evenodd;clip-rule:evenodd;fill:#6FCCB3;}
	.st1{fill:#6FCCB3;}
	.st2{fill-rule:evenodd;clip-rule:evenodd;fill:#63BBA4;}
	.st3{fill:#63BBA4;}
	.st4{fill-rule:evenodd;clip-rule:evenodd;fill:#55AB94;}
	.st5{fill:#55AB94;}
	.st6{fill-rule:evenodd;clip-rule:evenodd;fill:#3A816D;}
	.st7{fill:#3A816D;}
</style>
<g>
	<rect x="51.2" y="404.48" class="st0" width="409.6" height="30.72"/>
	<path class="st1" d="M51.2,404.48v10.24h399.36v10.24H61.44l0-20.48H51.2v10.24V404.48H40.96v30.72c0,2.7,1.09,5.33,3,7.24
		c1.91,1.91,4.54,3,7.24,3h409.6c2.7,0,5.33-1.09,7.24-3c1.91-1.91,3-4.54,3-7.24v-30.72c0-2.7-1.09-5.33-3-7.24
		c-1.91-1.91-4.54-3-7.24-3H51.2c-2.7,0-5.33,1.09-7.24,3c-1.91,1.91-3,4.54-3,7.24H51.2z"/>
	<rect x="30.72" y="373.76" class="st2" width="450.56" height="30.72"/>
	<path class="st3" d="M30.72,373.76V384h440.32v10.24H40.96l0-20.48H30.72V384V373.76H20.48v30.72c0,2.7,1.09,5.33,3,7.24
		c1.91,1.91,4.54,3,7.24,3h450.56c2.7,0,5.33-1.09,7.24-3c1.91-1.91,3-4.54,3-7.24v-30.72c0-2.7-1.09-5.33-3-7.24
		c-1.91-1.91-4.54-3-7.24-3H30.72c-2.7,0-5.33,1.09-7.24,3c-1.91,1.91-3,4.54-3,7.24H30.72z"/>
	<rect x="10.24" y="76.8" class="st4" width="491.52" height="294.91"/>
	<path class="st5" d="M10.24,76.8v10.24h481.28v274.43H20.48V76.8H10.24v10.24V76.8H0v294.91c0,2.7,1.09,5.33,3,7.24
		c1.91,1.91,4.54,3,7.24,3h491.52c2.7,0,5.33-1.09,7.24-3c1.91-1.91,3-4.54,3-7.24V76.8c0-2.7-1.09-5.33-3-7.24
		c-1.91-1.91-4.54-3-7.24-3H10.24c-2.7,0-5.33,1.09-7.24,3c-1.91,1.91-3,4.54-3,7.24H10.24z"/>
	<ellipse class="st6" cx="253.53" cy="226.49" rx="79.03" ry="108.73"/>
	<path class="st7" d="M253.53,117.76V128c9,0.01,17.54,2.47,25.61,7.16c12.07,7,22.95,19.19,30.73,35.06
		c7.79,15.85,12.45,35.27,12.45,56.28c0.02,28.01-8.32,53.2-21.19,70.87c-6.42,8.84-13.94,15.79-21.99,20.47
		c-8.07,4.68-16.62,7.15-25.61,7.16c-9-0.01-17.54-2.47-25.61-7.16c-12.07-7-22.95-19.19-30.73-35.06
		c-7.79-15.85-12.45-35.27-12.45-56.28c-0.02-28.01,8.32-53.2,21.19-70.87c6.42-8.84,13.94-15.79,21.99-20.47
		c8.07-4.68,16.62-7.15,25.61-7.16V117.76v-10.24c-12.83-0.01-25.07,3.61-35.91,9.93c-16.29,9.5-29.55,24.89-38.81,43.73
		c-9.25,18.86-14.54,41.28-14.55,65.31c0.02,32.04,9.37,61.22,25.1,82.91c7.88,10.83,17.39,19.81,28.25,26.13
		c10.84,6.32,23.08,9.94,35.91,9.93c12.83,0.01,25.07-3.61,35.91-9.93c16.29-9.5,29.55-24.89,38.81-43.73
		c9.25-18.86,14.54-41.28,14.55-65.31c-0.02-32.04-9.37-61.22-25.1-82.91c-7.88-10.83-17.39-19.81-28.25-26.13
		c-10.84-6.32-23.08-9.94-35.91-9.93V117.76z"/>
	<path class="st7" d="M98.56,335.23v10.24h314.88c2.7,0,5.33-1.09,7.24-3c1.91-1.91,3-4.54,3-7.24c0-12.32,4.8-23.35,12.5-31.33
		c7.72-7.97,18.15-12.79,29.74-12.8c2.7,0,5.33-1.09,7.24-3c1.91-1.91,3-4.54,3-7.24V172.13c0-2.7-1.09-5.33-3-7.24
		c-1.91-1.91-4.54-3-7.24-3c-11.59-0.01-22.02-4.82-29.74-12.8c-7.69-7.98-12.5-19.01-12.5-31.33c0-2.7-1.09-5.33-3-7.24
		c-1.91-1.91-4.54-3-7.24-3H98.56c-2.7,0-5.33,1.09-7.24,3c-1.91,1.91-3,4.54-3,7.24c0,12.32-4.8,23.35-12.5,31.33
		c-7.72,7.97-18.15,12.79-29.74,12.8c-2.7,0-5.33,1.09-7.24,3c-1.91,1.91-3,4.54-3,7.24v108.73c0,2.7,1.09,5.33,3,7.24
		c1.91,1.91,4.54,3,7.24,3c11.59,0.01,22.02,4.82,29.74,12.8c7.69,7.98,12.5,19.01,12.5,31.33c0,2.7,1.09,5.33,3,7.24
		c1.91,1.91,4.54,3,7.24,3V335.23h10.24c0-17.71-6.94-33.86-18.24-45.56c-11.28-11.71-27.08-19.06-44.48-19.05v10.24h10.24V172.13
		H46.08v10.24c17.4,0.01,33.2-7.35,44.48-19.05c11.3-11.7,18.25-27.85,18.24-45.55H98.56V128h314.88v-10.24H403.2
		c0,17.71,6.94,33.86,18.24,45.55c11.28,11.71,27.08,19.06,44.48,19.05v-10.24h-10.24v108.73h10.24v-10.24
		c-17.4-0.01-33.2,7.35-44.48,19.05c-11.3,11.7-18.25,27.85-18.24,45.56h10.24v-10.24H98.56V335.23h10.24H98.56z"/>
	<ellipse class="st6" cx="120.17" cy="226.49" rx="14.82" ry="15.53"/>
	<path class="st7" d="M120.17,210.96v10.24c1.15,0.01,2.15,0.44,3.07,1.38c0.89,0.94,1.51,2.28,1.51,3.92
		c0,1.63-0.62,2.98-1.51,3.92c-0.92,0.93-1.92,1.37-3.07,1.38c-1.15-0.01-2.15-0.44-3.07-1.38c-0.89-0.94-1.51-2.28-1.51-3.92
		c0-1.63,0.62-2.98,1.51-3.92c0.92-0.93,1.92-1.37,3.07-1.38V210.96v-10.24c-7.03-0.01-13.44,3.03-17.89,7.72
		c-4.47,4.68-7.17,11.1-7.17,18.05c0,6.95,2.7,13.37,7.17,18.05c4.45,4.69,10.85,7.73,17.89,7.72c7.03,0.01,13.44-3.03,17.89-7.72
		c4.47-4.68,7.17-11.1,7.17-18.05c0-6.95-2.7-13.37-7.17-18.05c-4.45-4.69-10.85-7.73-17.89-7.72V210.96z"/>
	<ellipse class="st6" cx="381.95" cy="226.49" rx="14.82" ry="15.53"/>
	<path class="st7" d="M381.95,210.96v10.24c1.15,0.01,2.15,0.44,3.07,1.38c0.89,0.94,1.51,2.28,1.51,3.92
		c0,1.63-0.62,2.98-1.51,3.92c-0.92,0.93-1.92,1.37-3.07,1.38c-1.15-0.01-2.15-0.44-3.07-1.38c-0.89-0.94-1.51-2.28-1.51-3.92
		c0-1.63,0.62-2.98,1.51-3.92c0.92-0.93,1.92-1.37,3.07-1.38V210.96v-10.24c-7.03-0.01-13.44,3.03-17.89,7.72
		c-4.47,4.68-7.17,11.1-7.17,18.05c0,6.95,2.7,13.37,7.17,18.05c4.45,4.69,10.85,7.73,17.89,7.72c7.03,0.01,13.44-3.03,17.89-7.72
		c4.47-4.68,7.17-11.1,7.17-18.05c0-6.95-2.7-13.37-7.17-18.05c-4.45-4.69-10.85-7.73-17.89-7.72V210.96z"/>
</g>
</svg>
