<?xml version="1.0" encoding="utf-8"?>
<!-- Generator: Adobe Illustrator 24.1.1, SVG Export Plug-In . SVG Version: 6.00 Build 0)  -->
<svg version="1.1" id="Layer_1" xmlns="http://www.w3.org/2000/svg" xmlns:xlink="http://www.w3.org/1999/xlink" x="0px" y="0px"
	 viewBox="0 0 512 512" style="enable-background:new 0 0 512 512;" xml:space="preserve">
<style type="text/css">
	.st0{fill:#6772E5;}
</style>
<g>
	<path class="st0" d="M36,233c0-5.5,4.6-7.7,12.1-7.7c10.8,0,24.5,3.3,35.3,9.1V201c-11.8-4.7-23.5-6.5-35.3-6.5
		C19.2,194.4,0,209.5,0,234.7c0,39.3,54,33,54,49.9c0,6.5-5.7,8.7-13.7,8.7c-11.8,0-26.9-4.8-38.8-11.4v33.8
		c13.2,5.7,26.6,8.1,38.8,8.1c29.6,0,49.9-14.6,49.9-40.1C90.2,241.4,36,248.9,36,233z M132.1,166l-34.7,7.4l-0.1,113.9
		c0,21,15.8,36.6,36.8,36.6c11.7,0,20.2-2.1,24.9-4.7v-28.9c-4.6,1.8-27,8.4-27-12.7v-50.5h27v-30.3h-27L132.1,166z M203.2,207.4
		l-2.3-10.5h-30.7v124.4h35.6v-84.3c8.4-11,22.6-9,27-7.4v-32.7C228.3,195.1,211.6,192,203.2,207.4z M241.5,196.8h35.7v124.4h-35.7
		V196.8z M241.5,186l35.7-7.7v-28.9l-35.7,7.5V186z M351.4,194.4c-13.9,0-22.9,6.5-27.9,11.1l-1.8-8.8h-31.3v165.8L326,355l0.1-40.2
		c5.1,3.7,12.7,9,25.2,9c25.5,0,48.6-20.5,48.6-65.6C399.8,216.9,376.3,194.4,351.4,194.4z M342.9,292.4c-8.4,0-13.4-3-16.8-6.7
		L326,233c3.7-4.1,8.8-7,16.9-7c12.9,0,21.9,14.5,21.9,33.1C364.8,278.2,356,292.4,342.9,292.4z M512,259.6
		c0-36.4-17.6-65.1-51.3-65.1c-33.8,0-54.3,28.7-54.3,64.9c0,42.8,24.2,64.4,58.9,64.4c16.9,0,29.7-3.8,39.4-9.2V286
		c-9.7,4.8-20.8,7.8-34.8,7.8c-13.8,0-26-4.8-27.6-21.6h69.5C511.7,270.4,512,263,512,259.6z M441.7,246c0-16.1,9.8-22.8,18.8-22.8
		c8.7,0,17.9,6.7,17.9,22.8H441.7z"/>
</g>
</svg>
